<svg width="119" height="47" viewBox="0 0 119 47" fill="none" xmlns="http://www.w3.org/2000/svg">
<path d="M22.8798 6.05847C24.2479 4.40616 25.2252 2.20308 24.932 0C22.8798 0.091795 20.4366 1.28513 18.9707 2.84565C17.7002 4.22257 16.5275 6.51745 16.8207 8.62873C19.1661 8.90412 21.4139 7.71078 22.8798 6.05847ZM24.932 9.1795C21.6093 8.99591 18.7752 10.9236 17.2116 10.9236C15.6479 10.9236 13.2048 9.2713 10.5661 9.2713C7.14566 9.36309 4.01838 11.1072 2.25929 14.0446C-1.25889 19.8277 1.28202 28.3647 4.8002 33.0462C6.46157 35.3411 8.51384 37.9113 11.1525 37.8195C13.6934 37.7278 14.6707 36.259 17.7002 36.259C20.7298 36.259 21.6093 37.8195 24.3457 37.7278C27.082 37.636 28.8411 35.4329 30.5025 33.0462C32.4571 30.3842 33.2389 27.8139 33.2389 27.7221C33.1411 27.6303 27.8639 25.7944 27.8639 20.1031C27.7661 15.3298 31.9684 13.0349 32.1639 12.9431C29.9161 9.63848 26.2025 9.2713 24.932 9.1795Z" fill="white"/>
<path d="M53.5511 2.66406C60.7829 2.66406 65.767 7.34561 65.767 14.0466C65.767 20.8395 60.6852 25.521 53.3557 25.521H45.4397V37.3626H39.6738V2.66406H53.5511ZM45.4397 21.0231H51.9875C56.9716 21.0231 59.8057 18.4528 59.8057 14.1384C59.8057 9.73228 56.9716 7.25381 51.9875 7.25381H45.342V21.0231H45.4397ZM67.233 30.2944C67.233 25.8882 70.8489 23.1344 77.2989 22.7672L84.7262 22.4V20.4723C84.7262 17.6266 82.6739 15.9743 79.3511 15.9743C76.1261 15.9743 74.1716 17.4431 73.683 19.6461H68.4057C68.6989 15.0564 72.9011 11.66 79.5466 11.66C86.0943 11.66 90.2966 14.8728 90.2966 20.0133V37.4544H85.0193V33.3236H84.9216C83.358 36.1692 79.9375 37.9133 76.4193 37.9133C70.9466 37.9133 67.233 34.7923 67.233 30.2944ZM84.7262 27.9995V25.98L78.0807 26.3472C74.758 26.5308 72.9011 27.9077 72.9011 30.1108C72.9011 32.3139 74.8557 33.7826 77.7875 33.7826C81.6966 33.7826 84.7262 31.3041 84.7262 27.9995ZM95.183 46.8175V42.5949C95.5739 42.6867 96.5512 42.6867 96.9421 42.6867C99.483 42.6867 100.851 41.6769 101.731 39.1067C101.731 39.0149 102.219 37.5462 102.219 37.5462L92.4466 12.2107H98.408L105.249 32.8646H105.347L112.188 12.2107H118.051L107.985 38.9231C105.64 45.0734 103.001 47.0011 97.4307 47.0011C97.0398 46.9093 95.6716 46.9093 95.183 46.8175Z" fill="white"/>
</svg>
