<svg width="202" height="55" viewBox="0 0 202 55" fill="none" xmlns="http://www.w3.org/2000/svg">
<path d="M32.4242 25.5303C32.3746 19.5566 37.2715 16.6532 37.4866 16.5197C34.7072 12.4482 30.4059 11.8809 28.9004 11.8308C25.2939 11.447 21.7866 14.0167 19.9503 14.0167C18.0808 14.0167 15.2353 11.8809 12.1913 11.9309C8.27044 11.9977 4.5812 14.2837 2.57942 17.8546C-1.57304 25.1131 1.52062 35.7923 5.50765 41.6659C7.50943 44.5359 9.82555 47.7564 12.8861 47.6396C15.864 47.5228 16.989 45.7207 20.5789 45.7207C24.1524 45.7207 25.1946 47.6396 28.3048 47.5728C31.5143 47.5228 33.5161 44.6861 35.4517 41.7827C37.7513 38.4955 38.6777 35.2417 38.7108 35.0748C38.6281 35.0414 32.4904 32.672 32.4242 25.5303Z" fill="black"/>
<path d="M26.552 7.97682C28.1568 5.95778 29.2486 3.20454 28.9509 0.401245C26.6347 0.501363 23.7231 2.01982 22.0521 4.00548C20.5798 5.75754 19.2563 8.6109 19.5871 11.2974C22.201 11.4976 24.8811 9.96249 26.552 7.97682Z" fill="black"/>
<path d="M75.6364 47.2235H71.4674L69.1843 39.9817H61.2434L59.0762 47.2235H55.0229L62.8812 22.5779H67.745L75.6364 47.2235ZM68.506 36.9448L66.4381 30.5206C66.223 29.8531 65.8094 28.318 65.2139 25.8818H65.1311C64.883 26.933 64.5025 28.4848 63.9731 30.5206L61.9382 36.9448H68.506Z" fill="black"/>
<path d="M95.8366 38.1275C95.8366 41.1477 95.0259 43.5338 93.3881 45.2859C91.9323 46.8544 90.1125 47.622 87.9618 47.622C85.6291 47.622 83.9582 46.7877 82.9325 45.1023V54.43H79.0117V35.2908C79.0117 33.3886 78.9621 31.4529 78.8628 29.4506H82.3039L82.5189 32.2706H82.5851C83.8921 30.1514 85.8773 29.0835 88.5243 29.0835C90.6088 29.0835 92.3293 29.9178 93.719 31.5698C95.1418 33.2384 95.8366 35.4076 95.8366 38.1275ZM91.8496 38.261C91.8496 36.5256 91.4691 35.1072 90.6915 33.9893C89.8478 32.8212 88.7063 32.2372 87.2835 32.2372C86.324 32.2372 85.4472 32.5709 84.6531 33.205C83.8755 33.8558 83.3461 34.6901 83.1145 35.7413C82.9987 36.2252 82.9325 36.6257 82.9325 36.9427V39.9129C82.9325 41.1977 83.3296 42.299 84.1071 43.1834C84.8847 44.0678 85.9104 44.5183 87.1677 44.5183C88.6401 44.5183 89.7816 43.9343 90.6088 42.7996C91.436 41.6483 91.8496 40.1465 91.8496 38.261Z" fill="black"/>
<path d="M116.086 38.1275C116.086 41.1477 115.276 43.5338 113.638 45.2859C112.182 46.8544 110.362 47.622 108.212 47.622C105.879 47.622 104.208 46.7877 103.182 45.1023V54.43H99.2614V35.2908C99.2614 33.3886 99.2118 31.4529 99.1125 29.4506H102.554L102.769 32.2706H102.835C104.142 30.1514 106.127 29.0835 108.774 29.0835C110.859 29.0835 112.579 29.9178 113.969 31.5698C115.392 33.2384 116.086 35.4076 116.086 38.1275ZM112.099 38.261C112.099 36.5256 111.719 35.1072 110.941 33.9893C110.098 32.8212 108.956 32.2372 107.533 32.2372C106.574 32.2372 105.697 32.5709 104.903 33.205C104.125 33.8558 103.612 34.6901 103.364 35.7413C103.248 36.2252 103.182 36.6257 103.182 36.9427V39.9129C103.182 41.1977 103.579 42.299 104.357 43.1834C105.134 44.0678 106.16 44.5183 107.417 44.5183C108.89 44.5183 110.048 43.9343 110.859 42.7996C111.702 41.6483 112.099 40.1465 112.099 38.261Z" fill="black"/>
<path d="M138.75 40.3149C138.75 42.4173 138.022 44.1193 136.583 45.4375C134.995 46.8726 132.778 47.5901 129.932 47.5901C127.302 47.5901 125.201 47.0728 123.613 46.0549L124.523 42.7677C126.243 43.7856 128.129 44.3029 130.181 44.3029C131.653 44.3029 132.811 43.9692 133.622 43.3017C134.449 42.6343 134.863 41.7332 134.863 40.6152C134.863 39.614 134.515 38.7797 133.853 38.0956C133.175 37.4114 132.05 36.7774 130.478 36.1933C126.161 34.5748 124.026 32.222 124.026 29.135C124.026 27.116 124.787 25.4641 126.293 24.1625C127.798 22.8777 129.8 22.2269 132.298 22.2269C134.515 22.2269 136.368 22.6107 137.84 23.395L136.848 26.5987C135.458 25.8479 133.903 25.4641 132.149 25.4641C130.776 25.4641 129.684 25.8145 128.907 26.4819C128.262 27.0993 127.931 27.8335 127.931 28.7179C127.931 29.6857 128.311 30.5033 129.056 31.1207C129.701 31.7047 130.892 32.3388 132.613 33.023C134.714 33.874 136.252 34.8751 137.245 36.0265C138.254 37.1778 138.75 38.6129 138.75 40.3149Z" fill="black"/>
<path d="M151.721 32.4213H147.403V41.0481C147.403 43.234 148.164 44.3353 149.686 44.3353C150.381 44.3353 150.96 44.2686 151.424 44.1518L151.539 47.1553C150.762 47.439 149.753 47.5892 148.495 47.5892C146.94 47.5892 145.749 47.1053 144.872 46.1541C143.995 45.203 143.565 43.6011 143.565 41.3652V32.4046H141.001V29.4512H143.565V26.1973L147.403 25.0293V29.4512H151.721V32.4213Z" fill="black"/>
<path d="M171.143 38.1972C171.143 40.9337 170.366 43.1697 168.827 44.9218C167.206 46.7239 165.055 47.6249 162.375 47.6249C159.795 47.6249 157.727 46.7572 156.188 45.0386C154.649 43.3199 153.888 41.134 153.888 38.4975C153.888 35.7443 154.683 33.4916 156.254 31.7396C157.842 29.9875 159.977 29.1031 162.657 29.1031C165.237 29.1031 167.322 29.9708 168.894 31.7062C170.399 33.3748 171.143 35.5441 171.143 38.1972ZM167.09 38.2806C167.09 36.6454 166.743 35.2604 166.048 34.0924C165.221 32.674 164.046 31.9732 162.524 31.9732C160.953 31.9732 159.745 32.674 158.934 34.0924C158.223 35.2604 157.892 36.6787 157.892 38.364C157.892 39.9993 158.239 41.4009 158.934 42.5523C159.778 43.9706 160.969 44.6715 162.491 44.6715C163.98 44.6715 165.155 43.9539 166.015 42.5189C166.726 41.3175 167.09 39.9159 167.09 38.2806Z" fill="black"/>
<path d="M183.881 32.9213C183.501 32.8546 183.087 32.8212 182.64 32.8212C181.267 32.8212 180.192 33.3385 179.448 34.3897C178.802 35.3075 178.471 36.4922 178.471 37.8939V47.2215H174.551V35.0405C174.551 32.9881 174.518 31.1192 174.435 29.4506H177.843L177.992 32.8546H178.108C178.521 31.6866 179.166 30.7354 180.06 30.0346C180.936 29.4005 181.879 29.0835 182.889 29.0835C183.253 29.0835 183.583 29.1169 183.865 29.1502L183.881 32.9213Z" fill="black"/>
<path d="M201.384 37.495C201.384 38.1958 201.335 38.7965 201.235 39.2804H189.489C189.539 41.0325 190.101 42.3841 191.193 43.3018C192.186 44.1194 193.46 44.5366 195.031 44.5366C196.768 44.5366 198.357 44.2529 199.779 43.7023L200.392 46.4388C198.721 47.173 196.752 47.5401 194.485 47.5401C191.756 47.5401 189.605 46.7225 188.05 45.1039C186.495 43.4854 185.717 41.2995 185.717 38.5796C185.717 35.9098 186.445 33.6738 187.901 31.8884C189.423 29.9862 191.474 29.035 194.055 29.035C196.586 29.035 198.522 29.9862 199.813 31.8884C200.855 33.4235 201.384 35.2757 201.384 37.495ZM197.645 36.4771C197.678 35.3091 197.414 34.2912 196.884 33.4402C196.206 32.3389 195.164 31.7883 193.774 31.7883C192.5 31.7883 191.458 32.3222 190.664 33.3902C190.019 34.2412 189.622 35.2757 189.506 36.4604L197.645 36.4771Z" fill="black"/>
<path d="M66.6215 13.7701H64.5701L63.4451 10.216H59.5408L58.4655 13.7701H56.4802L60.3349 1.65588H62.7172L66.6215 13.7701ZM63.0977 8.71419L62.0885 5.54379C61.9893 5.22675 61.7907 4.45918 61.4764 3.25777H61.4433C61.311 3.77504 61.1455 4.52593 60.8643 5.54379L59.8717 8.71419H63.0977Z" fill="black"/>
<path d="M76.2812 5.02405L73.0055 13.7677H71.1361L67.9597 5.02405H70.0277L71.5001 9.64615C71.7482 10.4137 71.9633 11.1479 72.1287 11.8487H72.1784C72.3272 11.2147 72.5423 10.4805 72.807 9.64615L74.2629 5.02405H76.2812Z" fill="black"/>
<path d="M83.2644 13.7675L83.1155 12.7663H83.0659C82.4703 13.5672 81.6266 13.9677 80.5347 13.9677C78.9796 13.9677 77.8877 12.8664 77.8877 11.398C77.8877 9.24547 79.7406 8.12748 82.9501 8.12748V7.96062C82.9501 6.80927 82.3379 6.24193 81.1468 6.24193C80.2865 6.24193 79.5421 6.45886 78.8803 6.8927L78.4833 5.62454C79.2774 5.12395 80.2865 4.87366 81.4611 4.87366C83.7276 4.87366 84.8691 6.07507 84.8691 8.49458V11.715C84.8691 12.5994 84.9022 13.2836 85.0015 13.8008L83.2644 13.7675ZM82.9997 9.41233C80.8656 9.41233 79.7902 9.9296 79.7902 11.1811C79.7902 12.0988 80.3362 12.5494 81.1137 12.5494C82.0898 12.5494 82.9997 11.7985 82.9997 10.7639V9.41233Z" fill="black"/>
<path d="M89.1542 3.58844C88.509 3.58844 88.0127 3.08785 88.0127 2.4204C88.0127 1.75295 88.5255 1.26904 89.1873 1.26904C89.849 1.26904 90.3784 1.75295 90.3619 2.4204C90.3619 3.12122 89.8656 3.58844 89.1542 3.58844ZM88.2278 5.02346H90.1468V13.7504H88.2278V5.02346Z" fill="black"/>
<path d="M93.5713 1.02014H95.4904V13.7518H93.5713V1.02014Z" fill="black"/>
<path d="M103.664 13.7663L103.515 12.7651H103.465C102.869 13.5661 102.026 13.9666 100.934 13.9666C99.3787 13.9666 98.2869 12.8653 98.2869 11.3969C98.2869 9.24433 100.14 8.12635 103.349 8.12635V7.95949C103.349 6.80813 102.737 6.2408 101.546 6.2408C100.686 6.2408 99.9412 6.45772 99.2795 6.89156L98.8824 5.60672C99.6765 5.10613 100.686 4.85583 101.86 4.85583C104.127 4.85583 105.268 6.05725 105.268 8.47676V11.6972C105.268 12.5816 105.301 13.2657 105.384 13.783H103.664V13.7663ZM103.399 9.41119C101.265 9.41119 100.189 9.92847 100.189 11.1799C100.189 12.0977 100.735 12.5482 101.513 12.5482C102.489 12.5482 103.399 11.7973 103.399 10.7628V9.41119Z" fill="black"/>
<path d="M113.075 13.9687C111.851 13.9687 110.941 13.4514 110.346 12.4169H110.313L110.197 13.7685H108.559C108.609 13.0676 108.625 12.2834 108.625 11.4157V1.02014H110.561V6.3097H110.594C111.173 5.34189 112.083 4.85799 113.357 4.85799C115.441 4.85799 116.897 6.66011 116.897 9.27985C116.897 11.983 115.276 13.9687 113.075 13.9687ZM112.678 6.37644C111.57 6.37644 110.561 7.34424 110.561 8.69583V10.231C110.561 11.4324 111.471 12.4169 112.645 12.4169C114.085 12.4169 114.945 11.2322 114.945 9.3466C114.945 7.57785 114.052 6.37644 112.678 6.37644Z" fill="black"/>
<path d="M119.744 1.02014H121.663V13.7518H119.744V1.02014Z" fill="black"/>
<path d="M132.132 9.86458H126.359C126.392 11.5165 127.483 12.451 129.088 12.451C129.948 12.451 130.726 12.3008 131.421 12.0338L131.719 13.3854C130.908 13.7525 129.948 13.9193 128.824 13.9193C126.11 13.9193 124.506 12.2007 124.506 9.51417C124.506 6.84436 126.143 4.82532 128.608 4.82532C130.809 4.82532 132.215 6.47726 132.215 8.98021C132.215 9.33062 132.198 9.63097 132.132 9.86458ZM130.379 8.47962C130.379 7.12803 129.7 6.17691 128.476 6.17691C127.368 6.17691 126.507 7.14471 126.375 8.47962H130.379Z" fill="black"/>
<path d="M143.797 13.9666C141.266 13.9666 139.628 12.0643 139.628 9.47794C139.628 6.77476 141.299 4.85583 143.946 4.85583C146.444 4.85583 148.115 6.67464 148.115 9.32776C148.115 12.0476 146.395 13.9666 143.797 13.9666ZM143.88 6.27417C142.49 6.27417 141.597 7.59239 141.597 9.41119C141.597 11.2133 142.507 12.5148 143.863 12.5148C145.22 12.5148 146.13 11.1132 146.13 9.36113C146.113 7.59239 145.236 6.27417 143.88 6.27417Z" fill="black"/>
<path d="M158.456 13.7686H156.537V8.74602C156.537 7.1942 155.941 6.42663 154.783 6.42663C153.641 6.42663 152.864 7.41112 152.864 8.56247V13.7519H150.945V7.52792C150.945 6.76035 150.928 5.92604 150.879 5.02498H152.566L152.649 6.37657H152.698C153.211 5.44214 154.27 4.84143 155.445 4.84143C157.265 4.84143 158.456 6.24308 158.456 8.5291V13.7686Z" fill="black"/>
<path d="M171.045 6.49149H168.928V10.7298C168.928 11.8144 169.308 12.3484 170.053 12.3484C170.383 12.3484 170.681 12.315 170.913 12.265L170.962 13.7333C170.582 13.8835 170.086 13.9503 169.473 13.9503C167.951 13.9503 167.058 13.0993 167.058 10.8967V6.49149H165.801V5.03979H167.058V3.4379L168.944 2.85388V5.0231H171.062V6.49149" fill="black"/>
<path d="M181.237 13.7685H179.318V8.77927C179.318 7.21075 178.722 6.4265 177.564 6.4265C176.572 6.4265 175.645 7.11064 175.645 8.4956V13.7518H173.726V1.02014H175.645V6.25964H175.678C176.29 5.30852 177.151 4.8413 178.276 4.8413C180.112 4.8413 181.237 6.27632 181.237 8.56234V13.7685Z" fill="black"/>
<path d="M191.064 9.86458H185.29C185.323 11.5165 186.415 12.451 188.02 12.451C188.88 12.451 189.658 12.3008 190.353 12.0338L190.651 13.3854C189.84 13.7525 188.88 13.9193 187.755 13.9193C185.042 13.9193 183.438 12.2007 183.438 9.51417C183.438 6.84436 185.075 4.82532 187.54 4.82532C189.741 4.82532 191.147 6.47726 191.147 8.98021C191.147 9.33062 191.13 9.63097 191.064 9.86458ZM189.31 8.47962C189.31 7.12803 188.632 6.17691 187.408 6.17691C186.3 6.17691 185.423 7.14471 185.307 8.47962H189.31Z" fill="black"/>
</svg>
