<svg xmlns="http://www.w3.org/2000/svg" width="50" height="50" viewBox="0 0 50 50" fill="none">
  <path fill-rule="evenodd" clip-rule="evenodd" d="M10 24.8366C10 23.5434 11.0483 22.4951 12.3414 22.4951H33.7956C35.0888 22.4951 36.1371 23.5434 36.1371 24.8366C36.1371 26.1297 35.0888 27.178 33.7956 27.178H12.3414C11.0483 27.178 10 26.1297 10 24.8366Z" fill="white"/>
  <path fill-rule="evenodd" clip-rule="evenodd" d="M26.0246 13.5055C26.9596 12.6122 28.4417 12.6458 29.3351 13.5808L38.7009 23.3822C39.5657 24.2872 39.5657 25.7124 38.7009 26.6174L29.3351 36.4188C28.4417 37.3537 26.9596 37.3874 26.0246 36.494C25.0897 35.6007 25.056 34.1185 25.9494 33.1836L33.7695 24.9998L25.9494 16.816C25.056 15.8811 25.0897 14.3989 26.0246 13.5055Z" fill="white"/>
</svg>