<svg width="235" height="350" viewBox="0 0 235 350" fill="none" xmlns="http://www.w3.org/2000/svg">
<path d="M37.6301 219.483C37.6301 219.483 -36.8717 281.983 37.6319 253.984" stroke="#151515" stroke-width="8" stroke-linecap="round" stroke-linejoin="round"/>
<path d="M57.0366 341.573L80.2034 341.573C80.2034 341.573 77.4476 305.718 87.4347 267.752C95.1605 238.383 97.6366 218.577 97.6366 218.577" stroke="#151515" stroke-width="8" stroke-linecap="round" stroke-linejoin="round"/>
<path d="M174.517 343.224L154.66 343.224C154.66 343.224 159.624 295.294 145.792 254.142C138.44 232.272 121.692 209.324 121.692 209.324" stroke="#151515" stroke-width="8" stroke-linecap="round" stroke-linejoin="round"/>
<path d="M200.509 216.949C200.509 216.949 218.904 236.148 226.924 246.146C240.333 262.862 200.508 255.482 200.508 255.482" stroke="#151515" stroke-width="8" stroke-linecap="round" stroke-linejoin="round"/>
<path fill-rule="evenodd" clip-rule="evenodd" d="M171.811 7.59214C169.863 5.37649 166.863 4.3967 163.983 5.03526L41.2453 32.2469C36.5004 33.2989 33.1747 37.5774 33.326 42.4352L39.5 240.629C39.677 246.312 44.5026 250.733 50.1793 250.411L166.58 243.829C172.32 243.504 176.635 238.467 176.074 232.745L167.707 147.343C167.707 147.343 184.752 114.53 186.097 102.579C187.112 93.5588 202.887 71.8371 210.564 61.7243C212.933 58.6041 212.817 54.2359 210.23 51.2938L171.811 7.59214Z" fill="#65D36E" stroke="#151515" stroke-width="8" stroke-linecap="round" stroke-linejoin="round"/>
<path fill-rule="evenodd" clip-rule="evenodd" d="M181.947 62.3325C180.29 62.7463 178.618 61.7119 178.249 60.0446L166.357 6.31555C166.247 5.81987 165.787 5.48235 165.281 5.52665L45.0781 16.0566C34.3457 16.9968 26.2867 26.269 26.8508 37.0277L37.8391 246.562C38.3963 257.186 47.173 265.514 57.8117 265.514L181.786 265.514C192.363 265.514 201.111 257.279 201.749 246.721L213.288 55.8593C213.329 55.1773 212.696 54.6515 212.033 54.8171L181.947 62.3325Z" fill="#F2F2F2" stroke="#151515" stroke-width="8" stroke-linecap="round" stroke-linejoin="round"/>
<path d="M125.727 226.125C125.727 226.125 121.362 230.729 116.693 230.701C112.023 230.672 107.767 226.125 107.767 226.125" stroke="#151515" stroke-width="8" stroke-linecap="round" stroke-linejoin="round"/>
<ellipse rx="28.6825" ry="26.4761" transform="matrix(-1 0 0 1 84.0597 172.785)" fill="#F2F2F2" stroke="#151515" stroke-width="8" stroke-linecap="round" stroke-linejoin="round"/>
<ellipse rx="16.5476" ry="15.4444" transform="matrix(-1 0 0 1 76.0618 180.784)" fill="#151515"/>
<ellipse rx="28.6825" ry="26.4761" transform="matrix(-1 0 0 1 154.661 172.785)" fill="#F2F2F2" stroke="#151515" stroke-width="8" stroke-linecap="round" stroke-linejoin="round"/>
<ellipse rx="15.996" ry="15.4444" transform="matrix(-1 0 0 1 146.055 180.73)" fill="#151515"/>
</svg>
