<svg width="369" height="533" viewBox="0 0 369 533" fill="none" xmlns="http://www.w3.org/2000/svg">
<path d="M317.365 369.69C317.365 369.69 327.892 402.847 364.02 416.461" stroke="#333333" stroke-width="8" stroke-linecap="round" stroke-linejoin="round"/>
<path d="M286.892 520.375L251.425 520.375C251.425 520.375 255.644 465.498 240.355 407.389C228.527 362.438 224.736 332.123 224.736 332.123" stroke="#333333" stroke-width="8" stroke-linecap="round" stroke-linejoin="round"/>
<path d="M107.031 522.905L137.431 522.905C137.431 522.905 129.831 449.545 151.008 386.56C162.262 353.086 187.902 317.963 187.902 317.963" stroke="#333333" stroke-width="8" stroke-linecap="round" stroke-linejoin="round"/>
<path d="M62.3495 369.894C62.3495 369.894 49.0134 395.828 36.7355 411.13C16.2063 436.716 11.1225 439.035 11.1225 439.035" stroke="#333333" stroke-width="8" stroke-linecap="round" stroke-linejoin="round"/>
<path fill-rule="evenodd" clip-rule="evenodd" d="M112.858 7.29419C114.805 5.07914 117.804 4.09964 120.684 4.73794L315.409 47.8991C320.154 48.9509 323.48 53.2295 323.329 58.0876L313.567 371.378C313.39 377.061 308.564 381.481 302.888 381.16L113.603 370.458C107.863 370.134 103.548 365.096 104.108 359.375L117.463 223.098C117.463 223.098 91.3678 172.875 89.309 154.583C87.6512 139.853 60.2685 102.991 49.6672 89.1936C47.28 86.0867 47.405 81.7276 49.9923 78.7853L112.858 7.29419Z" fill="#EB5757" stroke="#333333" stroke-width="8" stroke-linecap="round" stroke-linejoin="round"/>
<path fill-rule="evenodd" clip-rule="evenodd" d="M97.2669 93.3839C98.9236 93.7976 100.595 92.7633 100.964 91.0962L119.63 6.78618C119.74 6.29053 120.2 5.95304 120.706 5.99733L315.41 23.0496C326.143 23.9896 334.202 33.2621 333.638 44.021L315.752 385.011C315.194 395.635 306.418 403.964 295.779 403.964L85.9113 403.964C75.3344 403.964 66.5861 395.729 65.9477 385.171L47.636 82.3451C47.5947 81.6631 48.2276 81.1373 48.8905 81.3028L97.2669 93.3839Z" fill="white" stroke="#333333" stroke-width="8" stroke-linecap="round" stroke-linejoin="round"/>
<path d="M181.727 350.684C181.727 350.684 188.408 343.636 195.557 343.68C202.705 343.725 209.221 350.684 209.221 350.684" stroke="#333333" stroke-width="8" stroke-linecap="round" stroke-linejoin="round"/>
<ellipse cx="245.52" cy="262.039" rx="43.9107" ry="40.5231" fill="white" stroke="#333333" stroke-width="8" stroke-linecap="round" stroke-linejoin="round"/>
<ellipse cx="244.335" cy="273.881" rx="25.3331" ry="23.6385" fill="#333333"/>
<ellipse cx="137.434" cy="262.039" rx="43.9107" ry="40.5231" fill="white" stroke="#333333" stroke-width="8" stroke-linecap="round" stroke-linejoin="round"/>
<ellipse cx="137.176" cy="273.799" rx="24.4887" ry="23.6385" fill="#333333"/>
</svg>
