<svg width="397" height="535" viewBox="0 0 397 535" fill="none" xmlns="http://www.w3.org/2000/svg">
<path d="M321.826 370.648C321.826 370.648 375.522 434.891 386.78 361.599" stroke="#333333" stroke-width="8" stroke-linecap="round" stroke-linejoin="round"/>
<path d="M290.305 521.875L256.269 521.875C256.269 521.875 260.318 466.8 245.645 408.483C234.294 363.37 230.657 332.946 230.657 332.946" stroke="#333333" stroke-width="8" stroke-linecap="round" stroke-linejoin="round"/>
<path d="M114.41 523.68L146.868 524.413C146.868 524.413 136.089 450.011 156.412 386.8C167.213 353.205 156.412 321.305 156.412 321.305" stroke="#333333" stroke-width="8" stroke-linecap="round" stroke-linejoin="round"/>
<path d="M79.5163 330.451C79.5163 330.451 52.4904 359.941 40.7077 375.298C21.0064 400.975 21.2617 432.064 21.2617 432.064" stroke="#333333" stroke-width="8" stroke-linecap="round" stroke-linejoin="round"/>
<path fill-rule="evenodd" clip-rule="evenodd" d="M123.129 7.14168C125.086 4.81346 128.184 3.78011 131.148 4.467L317.45 47.6512C322.144 48.7392 325.418 52.9879 325.275 57.8043L315.903 372.34C315.734 378.038 310.889 382.471 305.198 382.134L124.354 371.441C118.643 371.103 114.349 366.099 114.882 360.402L127.708 223.531C127.708 223.531 102.665 173.128 100.69 154.77C99.0923 139.929 72.613 102.701 62.5272 88.9829C60.2851 85.9335 60.3989 81.7436 62.8348 78.8467L123.129 7.14168Z" fill="#65D36E" stroke="#333333" stroke-width="8" stroke-linecap="round" stroke-linejoin="round"/>
<path fill-rule="evenodd" clip-rule="evenodd" d="M108.156 93.3049C109.831 93.7424 111.532 92.6916 111.891 90.9978L129.789 6.45192C129.896 5.95028 130.36 5.60751 130.871 5.65427L317.027 22.7041C327.708 23.6823 335.715 32.9109 335.178 43.6226L318.002 386.048C317.468 396.691 308.684 405.046 298.027 405.046L98.2417 405.046C87.6445 405.046 78.8868 396.78 78.2751 386.201L60.7014 82.279C60.6617 81.5934 61.3022 81.0686 61.9665 81.2421L108.156 93.3049Z" fill="white" stroke="#333333" stroke-width="8" stroke-linecap="round" stroke-linejoin="round"/>
<path d="M189.379 344.545C189.379 344.545 195.791 351.618 202.651 351.573C209.512 351.529 215.765 344.545 215.765 344.545" stroke="#333333" stroke-width="8" stroke-linecap="round" stroke-linejoin="round"/>
<ellipse cx="250.603" cy="262.612" rx="42.1398" ry="40.6687" fill="white" stroke="#333333" stroke-width="8" stroke-linecap="round" stroke-linejoin="round"/>
<ellipse cx="250.604" cy="262.612" rx="24.3115" ry="23.7234" fill="#333333"/>
<ellipse cx="146.876" cy="262.612" rx="42.1398" ry="40.6687" fill="white" stroke="#333333" stroke-width="8" stroke-linecap="round" stroke-linejoin="round"/>
<ellipse cx="147.765" cy="262.526" rx="23.501" ry="23.7234" fill="#333333"/>
</svg>
