<svg width="221" height="59" viewBox="0 0 221 59" fill="none" xmlns="http://www.w3.org/2000/svg">
<path d="M20.2522 19.0036C20.2522 19.0036 3.73899 9.76862 2.76666 9.22923C1.79434 8.68985 0.822021 9.01675 0.822021 10.1446V49.9448C0.822021 50.7947 1.51885 51.1543 2.36153 50.6966C3.20421 50.2226 20.2522 40.6935 20.2522 40.6935C20.2522 40.6935 22.5696 39.4022 23.7202 38.7484C25.5838 37.7023 29.311 35.6265 29.311 35.6265C29.311 35.6265 37.0086 31.3277 38.0295 30.7557C39.0504 30.1836 38.9532 29.399 38.0943 28.9577C37.2354 28.5164 29.3272 24.0542 29.3272 24.0542L20.2522 19.0036Z" fill="url(#paint0_linear)"/>
<path d="M23.2977 29.7925L1.58248 9.0343C1.08012 9.14872 0.772217 9.541 0.772217 10.1785V49.8969C0.772217 50.4363 0.982886 50.7632 1.25838 50.8777L23.2977 29.7925Z" fill="url(#paint1_linear)"/>
<mask id="mask0" mask-type="alpha" maskUnits="userSpaceOnUse" x="0" y="9" width="24" height="42">
<path d="M23.2977 29.7925L1.58248 9.0343C1.08012 9.14872 0.772217 9.541 0.772217 10.1785V49.8969C0.772217 50.4363 0.982886 50.7632 1.25838 50.8777L23.2977 29.7925Z" fill="black"/>
</mask>
<g mask="url(#mask0)">
</g>
<mask id="mask1" mask-type="alpha" maskUnits="userSpaceOnUse" x="1" y="29" width="29" height="22">
<path d="M2.14715 50.7631L14.7063 43.8001C17.8015 42.0675 20.2485 40.6945 20.2485 40.6945L29.3722 35.742L23.2951 29.7924L1.25586 50.8775C1.49894 50.9592 1.93648 50.9102 2.2768 50.7467" fill="black"/>
</mask>
<g mask="url(#mask1)">
<path d="M20.2172 19.0062C20.1848 19.0879 3.67151 9.83659 2.71539 9.36259C1.74307 8.74147 0.770752 9.08472 0.770752 10.1798V50.0618C0.770752 50.9444 1.46758 51.304 2.22923 50.879C3.15294 50.356 20.1848 40.8268 20.2172 40.7451L29.2922 35.6781C29.2436 35.7435 36.9249 31.4448 37.881 30.9381C38.983 30.3006 38.8695 29.516 38.0431 29.1401C37.1518 28.6171 29.2436 24.1549 29.2922 24.0731L20.2172 19.0062Z" fill="url(#paint2_linear)"/>
</g>
<path d="M2.73026 9.21408C2.30892 9.00159 1.90379 8.93621 1.56348 9.01794L23.2949 29.8089L29.307 24.0717L20.2483 19.0048C20.2483 19.0048 11.708 14.232 6.55473 11.3553L2.73026 9.21408Z" fill="url(#paint3_linear)"/>
<mask id="mask2" mask-type="alpha" maskUnits="userSpaceOnUse" x="1" y="8" width="29" height="22">
<path d="M2.73026 9.21408C2.30892 9.00159 1.90379 8.93621 1.56348 9.01794L23.2949 29.8089L29.307 24.0717L20.2483 19.0048C20.2483 19.0048 11.708 14.232 6.55473 11.3553L2.73026 9.21408Z" fill="black"/>
</mask>
<g mask="url(#mask2)">
</g>
<path d="M154.984 44.7189L153.185 46.4351C152.763 46.6639 152.358 46.9418 151.953 47.1216C150.705 47.6937 149.441 47.8408 148.307 47.8408C147.108 47.8408 145.228 47.759 143.316 46.3534C140.658 44.4573 139.491 41.172 139.491 38.3279C139.491 32.4274 144.223 29.5343 148.096 29.5343C149.441 29.5343 150.835 29.8775 151.953 30.5967C153.833 31.8553 154.319 33.4898 154.578 34.3724L145.763 37.9847L142.878 38.2135C143.818 43.0517 147.043 45.863 150.608 45.863C152.391 45.863 153.703 45.2746 154.919 44.6698C154.919 44.6698 155.162 44.5391 154.984 44.7189ZM149.603 35.0099C150.316 34.7484 150.673 34.5195 150.673 33.9802C150.673 32.4437 149.004 30.6785 146.994 30.6785C145.52 30.6785 142.732 31.8716 142.732 36.0069C142.732 36.6607 142.813 37.3472 142.846 38.0337L149.603 35.0099Z" fill="black"/>
<path d="M136.574 44.5057C136.574 45.9767 136.834 46.2056 138.065 46.32C138.714 46.4017 139.346 46.4344 139.978 46.4998L138.6 47.3334H132.005C132.863 46.1892 133.025 46.0748 133.025 45.3229V44.473L133.009 21.9168H130.092L132.896 20.5438H138.244C137.077 21.2303 136.736 21.6389 136.591 22.9629L136.574 44.5057Z" fill="black"/>
<path d="M126.348 31.3969C127.207 32.1161 128.989 33.6362 128.989 36.5129C128.989 39.3243 127.433 40.6482 125.862 41.9068C125.375 42.3971 124.808 42.9365 124.808 43.7701C124.808 44.6037 125.375 45.0614 125.781 45.4046L127.126 46.4671C128.762 47.8727 130.253 49.164 130.253 51.7792C130.253 55.3424 126.85 58.9547 120.433 58.9547C115.02 58.9547 112.411 56.3395 112.411 53.5281C112.411 52.1551 113.076 50.2264 115.296 48.9025C117.613 47.4641 120.741 47.268 122.426 47.1535C121.907 46.4671 121.308 45.7479 121.308 44.571C121.308 43.9336 121.502 43.5413 121.681 43.0836C121.275 43.1163 120.854 43.1653 120.481 43.1653C116.527 43.1653 114.291 40.1579 114.291 37.1994C114.291 35.4505 115.069 33.5218 116.689 32.1161C118.812 30.3345 121.356 30.0239 123.366 30.0239H131.063L128.665 31.3969H126.348ZM123.722 48.216C123.415 48.1669 123.236 48.1669 122.864 48.1669C122.523 48.1669 120.481 48.2487 118.909 48.788C118.083 49.0986 115.668 50.0303 115.668 52.7762C115.668 55.5222 118.261 57.5 122.296 57.5C125.91 57.5 127.822 55.7184 127.822 53.332C127.822 51.3379 126.575 50.2918 123.722 48.216ZM124.776 40.8934C125.635 40.0271 125.716 38.8176 125.716 38.1311C125.716 35.4014 124.128 31.1681 121.032 31.1681C120.076 31.1681 119.023 31.6584 118.423 32.4266C117.791 33.2112 117.613 34.241 117.613 35.2217C117.613 37.7551 119.072 41.9558 122.264 41.9558C123.188 41.9558 124.192 41.4982 124.776 40.8934Z" fill="black"/>
<path d="M103.078 47.8408C97.1306 47.8408 93.9543 43.1007 93.9543 38.8183C93.9543 33.8167 97.9571 29.5343 103.645 29.5343C109.139 29.5343 112.591 33.9311 112.591 38.5568C112.591 43.068 109.187 47.8408 103.078 47.8408ZM107.729 44.7515C108.636 43.5257 108.863 41.9892 108.863 40.5018C108.863 37.1184 107.291 30.6785 102.624 30.6785C101.393 30.6785 100.145 31.1688 99.2373 31.9861C97.7788 33.3264 97.5033 35.0099 97.5033 36.6607C97.5033 40.4528 99.3345 46.6966 103.888 46.6966C105.379 46.6966 106.87 45.9774 107.729 44.7515Z" fill="black"/>
<path d="M83.1449 47.8408C77.1975 47.8408 74.0212 43.1007 74.0212 38.8183C74.0212 33.8167 78.024 29.5343 83.712 29.5343C89.2057 29.5343 92.6574 33.9311 92.6574 38.5568C92.6574 43.068 89.2543 47.8408 83.1449 47.8408ZM87.7958 44.7515C88.7033 43.5257 88.9302 41.9892 88.9302 40.5018C88.9302 37.1184 87.3421 30.6785 82.6911 30.6785C81.4433 30.6785 80.2117 31.1688 79.3042 31.9861C77.8295 33.3264 77.5702 35.0099 77.5702 36.6607C77.5702 40.4528 79.4176 46.6966 83.9551 46.6966C85.446 46.6966 86.9369 45.9774 87.7958 44.7515Z" fill="black"/>
<path d="M71.5578 46.712L66.518 47.8889C64.4761 48.2158 62.6449 48.51 60.7003 48.51C50.977 48.4936 47.2822 41.2364 47.2822 35.5484C47.2822 28.6181 52.5328 22.1781 61.5105 22.1781C63.4066 22.1781 65.2378 22.456 66.9069 22.93C69.5484 23.6818 70.78 24.6135 71.5578 25.1529L68.6247 27.9806L67.3931 28.2585L68.2682 26.8364C67.069 25.6596 64.8812 23.4694 60.7327 23.4694C55.1742 23.4694 50.977 27.7518 50.977 34.0119C50.977 40.7297 55.7576 47.0553 63.439 47.0553C65.6915 47.0553 66.8583 46.5976 67.9116 46.1726V40.4028L62.5963 40.6971L65.416 39.1606H72.8867L71.9792 40.0596C71.7361 40.2721 71.7037 40.3375 71.6227 40.6317C71.5903 40.9586 71.5578 41.9883 71.5578 42.3642V46.712Z" fill="black"/>
<path d="M165.856 44.8823V54.5422H163.96V29.9756H165.856V32.7706C167.088 30.9563 169.357 29.5343 171.966 29.5343C176.665 29.5343 179.842 33.1466 179.842 38.851C179.842 44.5227 176.682 48.2004 171.966 48.2004C169.503 48.2004 167.283 46.9091 165.856 44.8823ZM177.897 38.9981C177.897 34.6503 175.677 31.3323 171.723 31.3323C169.276 31.3323 166.926 33.2937 165.905 35.0099V42.9536C166.926 44.6698 169.276 46.6966 171.723 46.6966C175.677 46.6966 177.897 43.3459 177.897 38.9981Z" fill="black"/>
<path d="M182.436 23.1591H184.38V47.8401H182.436V23.1591Z" fill="black"/>
<path d="M205.527 52.8431C205.933 53.0229 206.629 53.1373 207.067 53.1373C208.234 53.1373 209.028 52.6633 209.757 50.9634L211.134 47.7925L203.664 29.8619H205.787L212.188 45.4061L218.54 29.8619H220.679L211.572 51.5518C210.632 53.7911 209.141 54.8699 207.099 54.8699C206.484 54.8699 205.673 54.7554 205.203 54.6083L205.527 52.8431Z" fill="black"/>
<path d="M200.163 47.8244C200.034 47.2033 199.936 46.6639 199.872 46.2063C199.807 45.7486 199.774 45.2909 199.774 44.8169C199.126 45.7813 198.202 46.5985 197.003 47.236C195.82 47.8735 194.686 48.184 193.146 48.184C191.283 48.184 189.84 47.7263 188.82 46.7783C187.799 45.8467 187.28 44.5718 187.28 42.9699C187.28 41.3681 188.025 40.0605 189.516 39.0635C191.007 38.0664 192.936 37.5597 195.318 37.5597H199.758V35.3368C199.758 34.0619 199.321 33.0485 198.462 32.3293C197.603 31.5938 196.387 31.2342 194.816 31.2342C193.373 31.2342 192.206 31.5774 191.315 32.2312C190.44 32.9014 189.986 33.735 189.986 34.732H188.042L188.009 34.634C187.944 33.2773 188.544 32.1005 189.857 31.0707C191.153 30.041 192.838 29.5343 194.929 29.5343C197.003 29.5343 198.689 30.041 199.953 31.0544C201.217 32.0514 201.849 33.5062 201.849 35.3858V44.2122C201.849 44.8496 201.881 45.4544 201.962 46.0592C202.043 46.6639 202.173 47.2523 202.335 47.8244H200.163ZM193.389 46.5332C195.01 46.5332 196.177 46.1572 197.36 45.438C198.543 44.7189 199.337 43.7708 199.758 42.6267V39.1779H195.285C193.584 39.1779 192.174 39.5538 191.056 40.3384C189.938 41.1066 189.387 42.0383 189.387 43.1334C189.387 44.1631 189.743 44.9804 190.456 45.6015C191.186 46.2226 192.158 46.5332 193.389 46.5332Z" fill="black"/>
<path d="M46.6338 6.53615C46.6338 3.02196 49.4211 0.75 52.8891 0.75C55.2064 0.75 56.7297 1.79608 57.6858 3.071L55.9843 3.98632C55.3361 3.15272 54.2179 2.49892 52.8891 2.49892C50.5393 2.49892 48.7729 4.18246 48.7729 6.53615C48.7891 8.87349 50.5393 10.5734 52.8891 10.5734C54.1045 10.5734 55.174 10.0503 55.7088 9.55998V7.84375H52.1436V6.11118H57.7831V10.2792C56.6163 11.505 54.9471 12.3223 52.8891 12.3223C49.4211 12.3386 46.6338 10.0503 46.6338 6.53615Z" fill="black"/>
<path d="M60.4895 12.1739V0.928467H68.7704V2.66104H62.6124V5.55412H68.6408V7.30304H62.6124V10.4413H68.7704V12.1739H60.4895Z" fill="black"/>
<path d="M74.3928 12.1739V2.66104H70.7952V0.928467H80.0808V2.66104H76.4832V12.1739H74.3928Z" fill="black"/>
<path d="M87.5186 0.928467H89.5442V12.1739H87.5186V0.928467Z" fill="black"/>
<path d="M95.3476 12.1739V2.66104H91.75V0.928467H101.036V2.66104H97.4381V12.1739H95.3476Z" fill="black"/>
<path d="M107.97 6.5508C107.97 3.21641 110.514 0.764648 114.144 0.764648C117.742 0.764648 120.302 3.21641 120.302 6.5508C120.302 9.88519 117.725 12.337 114.144 12.337C110.514 12.337 107.97 9.88519 107.97 6.5508ZM118.098 6.45273C118.098 4.16442 116.542 2.44819 114.128 2.44819C111.697 2.44819 110.157 4.16442 110.157 6.45273C110.157 8.72469 111.697 10.4573 114.128 10.4573C116.542 10.4573 118.098 8.74104 118.098 6.45273Z" fill="black"/>
<path d="M130.95 12.1739L124.744 4.1321V12.1739H122.653V0.928467H124.792L130.869 8.72506V0.928467H132.96V12.1739H130.95Z" fill="black"/>
<defs>
<linearGradient id="paint0_linear" x1="9.77962" y1="22.2089" x2="23.7029" y2="42.4666" gradientUnits="userSpaceOnUse">
<stop stop-color="#FF177B"/>
<stop offset="1" stop-color="#FFEC73"/>
</linearGradient>
<linearGradient id="paint1_linear" x1="15.6359" y1="-6.30782" x2="-9.43156" y2="46.47" gradientUnits="userSpaceOnUse">
<stop stop-color="#064AA2"/>
<stop offset="1" stop-color="#63FFD4"/>
</linearGradient>
<linearGradient id="paint2_linear" x1="23.1199" y1="17.4617" x2="-7.43892" y2="35.5865" gradientUnits="userSpaceOnUse">
<stop stop-color="#FF4521"/>
<stop offset="1" stop-color="#8A33DB"/>
</linearGradient>
<linearGradient id="paint3_linear" x1="5.67258" y1="2.35598" x2="16.7281" y2="30.8469" gradientUnits="userSpaceOnUse">
<stop stop-color="#00A3B5"/>
<stop offset="1" stop-color="#D6FFA1"/>
</linearGradient>
</defs>
</svg>
