<svg width="18" height="22" viewBox="0 0 18 22" fill="none" xmlns="http://www.w3.org/2000/svg">
<path d="M15.7854 8.25H15.0739V5.5C15.0739 2.46667 12.5215 0 9.38265 0C6.24382 0 3.69135 2.46667 3.69135 5.5V8.25H2.97994C1.80375 8.25 0.845703 9.17484 0.845703 10.3125V19.9375C0.845703 21.0752 1.80375 22 2.97994 22H15.7854C16.9616 22 17.9196 21.0752 17.9196 19.9375V10.3125C17.9196 9.17484 16.9616 8.25 15.7854 8.25ZM5.58851 5.5C5.58851 3.47778 7.2901 1.83339 9.38265 1.83339C11.4752 1.83339 13.1768 3.47778 13.1768 5.5V8.25H5.58851V5.5Z" fill="#979797"/>
</svg>
