<svg width="242" height="94" viewBox="0 0 242 94" fill="none" xmlns="http://www.w3.org/2000/svg">
<path d="M0 40.8484C0 26.5501 0 19.401 2.78263 13.9398C5.2303 9.13593 9.13593 5.2303 13.9398 2.78263C19.401 0 26.5501 0 40.8484 0H52.7625C67.0608 0 74.2099 0 79.6711 2.78263C84.4749 5.2303 88.3806 9.13593 90.8282 13.9398C93.6109 19.401 93.6109 26.5501 93.6109 40.8484V52.7625C93.6109 67.0608 93.6109 74.2099 90.8282 79.6711C88.3806 84.4749 84.4749 88.3806 79.6711 90.8282C74.2099 93.6109 67.0608 93.6109 52.7625 93.6109H40.8484C26.5501 93.6109 19.401 93.6109 13.9398 90.8282C9.13593 88.3806 5.2303 84.4749 2.78263 79.6711C0 74.2099 0 67.0608 0 52.7625V40.8484Z" fill="#D2E3D6"/>
<path d="M40.8484 0C26.5501 0 19.401 0 13.9398 2.78263C9.13593 5.2303 5.2303 9.13593 2.78263 13.9398C0 19.401 0 26.5501 0 40.8484V52.7625C0 67.0608 0 74.2099 2.78263 79.6711C5.2303 84.4749 9.13593 88.3806 13.9398 90.8282C19.401 93.6109 26.5501 93.6109 40.8484 93.6109H52.7625C67.0608 93.6109 74.2099 93.6109 79.6711 90.8282C84.4749 88.3806 88.3806 84.4749 90.8282 79.6711C93.6109 74.2099 93.6109 67.0608 93.6109 52.7625V40.8484C93.6109 37.1952 93.6109 34.0088 93.5645 31.1979C93.5439 29.9496 93.5336 29.3255 93.3738 28.6902C93.2362 28.1434 92.9958 27.5742 92.6997 27.0944C92.3556 26.537 91.8947 26.0737 90.9727 25.147L68.6146 2.67504C67.6325 1.68792 67.1414 1.19432 66.5676 0.841307C66.0589 0.528328 65.504 0.29764 64.9233 0.157767C64.2684 0 63.5721 0 62.1796 0H40.8484Z" fill="#2EC86B"/>
<mask id="mask0" mask-type="alpha" maskUnits="userSpaceOnUse" x="65" y="0" width="29" height="29">
<path d="M65.2439 0H68.0806C82.1806 0 93.6108 11.4303 93.6108 25.5302V28.3669H65.2439V0Z" fill="white"/>
</mask>
<g mask="url(#mask0)">
<path opacity="0.5" d="M65.2439 -11.3464C65.2439 -16.616 65.2439 -19.2509 65.5351 -21.4629C67.5461 -36.7379 79.566 -48.7578 94.8411 -50.7688C97.0531 -51.0601 99.6879 -51.0601 104.958 -51.0601C110.227 -51.0601 112.862 -51.0601 115.074 -50.7688C130.349 -48.7578 142.369 -36.7379 144.38 -21.4629C144.671 -19.2509 144.671 -16.616 144.671 -11.3464C144.671 -6.07669 144.671 -3.44186 144.38 -1.22982C142.369 14.0452 130.349 26.0651 115.074 28.0761C112.862 28.3673 110.227 28.3673 104.958 28.3673H97.0149C88.567 28.3673 84.3431 28.3673 80.9248 27.2566C74.016 25.0118 68.5994 19.5953 66.3546 12.6865C65.2439 9.2681 65.2439 5.0442 65.2439 -3.40362V-11.3464Z" fill="white"/>
</g>
<path d="M23.2446 40.7968C19.9075 40.7968 17.2358 43.4081 17.2358 46.643V67.2084C17.2358 70.4339 19.9195 73.0546 23.2446 73.0546C26.5814 73.0546 29.2534 70.443 29.2534 67.2084V46.643C29.2534 43.4175 26.5697 40.7968 23.2446 40.7968ZM56.4512 20.5566C45.4527 20.5566 36.5272 29.3663 36.5272 40.2108V67.2265C36.5272 70.4426 39.1714 73.0546 42.4387 73.0546C45.7057 73.0546 48.3502 70.4423 48.3502 67.2265V40.2108C48.3502 35.7976 51.988 32.2128 56.4512 32.2128C60.9097 32.2128 64.5521 35.8028 64.5521 40.2108V67.2265C64.5521 70.4426 67.1963 73.0546 70.4636 73.0546C73.7306 73.0546 76.3751 70.4423 76.3751 67.2265V40.2108C76.3751 29.3719 67.4455 20.5566 56.4512 20.5566ZM23.2446 20.5566C18.947 20.5566 15.4631 24.0405 15.4631 28.3381C15.4631 32.6357 18.947 36.1196 23.2446 36.1196C27.5422 36.1196 31.0261 32.6357 31.0261 28.3381C31.0261 24.0405 27.5422 20.5566 23.2446 20.5566Z" fill="white"/>
<path d="M141.937 20.5566C145.113 20.5566 147.701 23.0256 147.842 26.1182L147.848 26.3847V67.2265C147.848 70.4423 145.204 73.0546 141.937 73.0546C140.024 73.0546 138.325 72.1594 137.245 70.7719C134.463 72.2293 131.291 73.0546 127.924 73.0546C117.064 73.0546 108.218 64.453 108.004 53.7961L108 53.4005V51.685C108 51.5329 108.006 51.3823 108.018 51.2331L108.005 51.0089L108 50.7814V40.2108C108 29.3663 116.926 20.5566 127.924 20.5566L128.023 20.5579L128.023 20.5566H141.937ZM127.924 32.2128C123.558 32.2128 119.982 35.6435 119.828 39.9242L119.823 40.2108V50.7814C119.823 50.9338 119.817 51.0849 119.806 51.2345L119.819 51.4581L119.823 51.685V53.4005C119.823 57.8085 123.466 61.3984 127.924 61.3984C132.29 61.3984 135.867 57.9678 136.02 53.6871L136.025 53.4005L136.024 42.8892L136.027 42.8897V34.7444C136.027 33.3471 134.894 32.2144 133.497 32.2144H128.598C128.491 32.2144 128.384 32.2166 128.279 32.2211C128.162 32.2154 128.043 32.2128 127.924 32.2128Z" fill="#2EC86B"/>
<path d="M160.988 20.5566C157.811 20.5566 155.224 23.0256 155.082 26.1182L155.076 26.3847V82.4067C155.076 85.6224 157.721 88.2348 160.988 88.2348C164.164 88.2348 166.752 85.7658 166.893 82.6732L166.899 82.4067L166.9 73.0534L174.901 73.0546H175C185.861 73.0546 194.706 64.453 194.92 53.7961L194.924 53.4005V51.685C194.924 51.5329 194.918 51.3823 194.907 51.2332L194.92 51.0089L194.924 50.7814V40.2108C194.924 29.3663 185.999 20.5566 175 20.5566L174.902 20.5579L174.901 20.5566H160.988ZM175 32.2128C179.366 32.2128 182.943 35.6435 183.096 39.9242L183.101 40.2108V50.7814C183.101 50.9338 183.107 51.0849 183.119 51.2345L183.106 51.4581L183.101 51.685V53.4005C183.101 57.8085 179.459 61.3985 175 61.3985C174.887 61.3985 174.774 61.3961 174.662 61.3916C174.599 61.3933 174.536 61.3941 174.472 61.3941H169.427C168.03 61.3941 166.897 60.2613 166.897 58.8641V50.7187L166.9 50.7183V42.8892L166.897 42.8897V34.7444C166.897 33.3471 168.03 32.2144 169.427 32.2144H174.327C174.434 32.2144 174.54 32.2166 174.646 32.2211C174.763 32.2154 174.881 32.2128 175 32.2128Z" fill="#2EC86B"/>
<path d="M208.064 20.5566C204.887 20.5566 202.3 23.0256 202.158 26.1182L202.152 26.3847V82.4067C202.152 85.6224 204.797 88.2348 208.064 88.2348C211.24 88.2348 213.828 85.7658 213.969 82.6732L213.975 82.4067L213.976 73.0534L221.977 73.0546H222.076C232.936 73.0546 241.782 64.453 241.996 53.7961L242 53.4005V51.685C242 51.5329 241.994 51.3823 241.982 51.2332L241.996 51.0089L242 50.7814V40.2108C242 29.3663 233.074 20.5566 222.076 20.5566L221.977 20.5579L221.977 20.5566H208.064ZM222.076 32.2128C226.442 32.2128 230.018 35.6435 230.172 39.9242L230.177 40.2108V50.7814C230.177 50.9338 230.183 51.0849 230.195 51.2345L230.181 51.4581L230.177 51.685V53.4005C230.177 57.8085 226.535 61.3985 222.076 61.3985C221.963 61.3985 221.85 61.3961 221.738 61.3916C221.675 61.3933 221.611 61.3941 221.548 61.3941H216.503C215.106 61.3941 213.973 60.2613 213.973 58.8641V50.7187L213.976 50.7183V42.8892L213.973 42.8897V34.7444C213.973 33.3471 215.106 32.2144 216.503 32.2144H221.403C221.509 32.2144 221.616 32.2166 221.722 32.2211C221.838 32.2154 221.957 32.2128 222.076 32.2128Z" fill="#2EC86B"/>
</svg>
