<svg width="78" height="31" viewBox="0 0 78 31" fill="none" xmlns="http://www.w3.org/2000/svg">
<path d="M0 13.366C0 8.68743 0 6.34817 0.896881 4.56121C1.6858 2.98936 2.94464 1.7114 4.49298 0.910501C6.25321 0 8.55747 0 13.166 0H17.0061C21.6146 0 23.9189 0 25.6791 0.910501C27.2275 1.7114 28.4863 2.98936 29.2752 4.56121C30.1721 6.34817 30.1721 8.68743 30.1721 13.366V17.2644C30.1721 21.9429 30.1721 24.2821 29.2752 26.0691C28.4863 27.641 27.2275 28.9189 25.6791 29.7198C23.9189 30.6303 21.6146 30.6303 17.0061 30.6303H13.166C8.55747 30.6303 6.25321 30.6303 4.49298 29.7198C2.94464 28.9189 1.6858 27.641 0.896881 26.0691C0 24.2821 0 21.9429 0 17.2644V13.366Z" fill="#D2E3D6"/>
<path d="M13.166 0C8.55747 0 6.25321 0 4.49298 0.910501C2.94464 1.7114 1.6858 2.98936 0.896881 4.56121C0 6.34817 0 8.68743 0 13.366V17.2644C0 21.9429 0 24.2821 0.896881 26.0691C1.6858 27.641 2.94464 28.9189 4.49298 29.7198C6.25321 30.6303 8.55747 30.6303 13.166 30.6303H17.0061C21.6146 30.6303 23.9189 30.6303 25.6791 29.7198C27.2275 28.9189 28.4863 27.641 29.2752 26.0691C30.1721 24.2821 30.1721 21.9429 30.1721 17.2644V13.366C30.1721 12.1706 30.1721 11.128 30.1571 10.2082C30.1505 9.79978 30.1472 9.59555 30.0957 9.38769C30.0513 9.20876 29.9739 9.02253 29.8784 8.86553C29.7675 8.68313 29.6189 8.53153 29.3218 8.22833L22.1154 0.875296C21.7989 0.552302 21.6406 0.390792 21.4557 0.275283C21.2917 0.172873 21.1128 0.0973905 20.9257 0.0516227C20.7146 0 20.4902 0 20.0414 0H13.166Z" fill="white"/>
<mask id="mask0" mask-type="alpha" maskUnits="userSpaceOnUse" x="21" y="0" width="10" height="10">
<path d="M21.0291 0H21.9434C26.488 0 30.1721 3.74009 30.1721 8.35372V9.28191H21.0291V0Z" fill="white"/>
</mask>
<g mask="url(#mask0)">
<path opacity="0.5" d="M21.0291 -3.71236C21.0291 -5.43664 21.0291 -6.29878 21.1229 -7.02257C21.7711 -12.0207 25.6453 -15.9537 30.5686 -16.6117C31.2816 -16.707 32.1309 -16.707 33.8293 -16.707C35.5278 -16.707 36.3771 -16.707 37.09 -16.6117C42.0134 -15.9537 45.8876 -12.0207 46.5358 -7.02257C46.6296 -6.29878 46.6296 -5.43664 46.6296 -3.71236C46.6296 -1.98807 46.6296 -1.12593 46.5358 -0.402136C45.8876 4.59599 42.0134 8.52901 37.09 9.18703C36.3771 9.28232 35.5278 9.28232 33.8293 9.28232H31.2693C28.5464 9.28232 27.185 9.28232 26.0832 8.91889C23.8564 8.18437 22.1106 6.41202 21.387 4.15141C21.0291 3.03288 21.0291 1.65078 21.0291 -1.11342V-3.71236Z" fill="#2EC86B"/>
</g>
<path d="M7.49196 13.3493C6.41636 13.3493 5.55524 14.2038 5.55524 15.2623V21.9914C5.55524 23.0469 6.42025 23.9044 7.49196 23.9044C8.56747 23.9044 9.42868 23.0498 9.42868 21.9914V15.2623C9.42868 14.2068 8.56367 13.3493 7.49196 13.3493ZM18.1949 6.72656C14.65 6.72656 11.7731 9.60915 11.7731 13.1576V21.9974C11.7731 23.0497 12.6254 23.9044 13.6785 23.9044C14.7315 23.9044 15.5839 23.0496 15.5839 21.9974V13.1576C15.5839 11.7136 16.7564 10.5406 18.1949 10.5406C19.6319 10.5406 20.8059 11.7152 20.8059 13.1576V21.9974C20.8059 23.0497 21.6582 23.9044 22.7113 23.9044C23.7643 23.9044 24.6167 23.0496 24.6167 21.9974V13.1576C24.6167 9.611 21.7385 6.72656 18.1949 6.72656ZM7.49196 6.72656C6.10679 6.72656 4.98389 7.86652 4.98389 9.27273C4.98389 10.6789 6.10679 11.8189 7.49196 11.8189C8.87713 11.8189 10 10.6789 10 9.27273C10 7.86652 8.87713 6.72656 7.49196 6.72656Z" fill="#2EC86B"/>
<path d="M45.7482 6.72656C46.7721 6.72656 47.6061 7.53443 47.6516 8.54634L47.6536 8.63357V21.9974C47.6536 23.0496 46.8012 23.9044 45.7482 23.9044C45.1317 23.9044 44.584 23.6114 44.2359 23.1574C43.3394 23.6343 42.3169 23.9044 41.2318 23.9044C37.7314 23.9044 34.8804 21.0898 34.8113 17.6028L34.8101 17.4734V16.912C34.8101 16.8623 34.812 16.813 34.8157 16.7642L34.8115 16.6908L34.8101 16.6164V13.1576C34.8101 9.60915 37.6869 6.72656 41.2318 6.72656L41.2636 6.72698L41.2637 6.72656H45.7482ZM41.2318 10.5406C39.8246 10.5406 38.6719 11.6631 38.6224 13.0638L38.6208 13.1576V16.6164C38.6208 16.6663 38.6189 16.7157 38.6151 16.7646L38.6193 16.8378L38.6208 16.912V17.4734C38.6208 18.9157 39.7948 20.0904 41.2318 20.0904C42.6391 20.0904 43.7918 18.9678 43.8412 17.5671L43.8429 17.4734L43.8425 14.034L43.8435 14.0342V11.3689C43.8435 10.9117 43.4784 10.5411 43.028 10.5411H41.4489C41.4144 10.5411 41.3801 10.5418 41.346 10.5433C41.3084 10.5414 41.2702 10.5406 41.2318 10.5406Z" fill="white"/>
<path d="M51.8887 6.72656C50.8649 6.72656 50.0309 7.53443 49.9853 8.54634L49.9834 8.63357V26.9644C49.9834 28.0167 50.8358 28.8714 51.8887 28.8714C52.9126 28.8714 53.7466 28.0636 53.7921 27.0517L53.7941 26.9644L53.7944 23.904L56.3733 23.9044H56.4051C59.9056 23.9044 62.7566 21.0899 62.8256 17.6028L62.8269 17.4734V16.912C62.8269 16.8623 62.825 16.813 62.8213 16.7642L62.8255 16.6908L62.8269 16.6164V13.1576C62.8269 9.60915 59.9501 6.72656 56.4051 6.72656L56.3733 6.72698L56.3733 6.72656H51.8887ZM56.4051 10.5406C57.8124 10.5406 58.9651 11.6631 59.0145 13.0638L59.0162 13.1576V16.6164C59.0162 16.6663 59.0181 16.7157 59.0219 16.7646L59.0176 16.8378L59.0162 16.912V17.4734C59.0162 18.9157 57.8422 20.0904 56.4051 20.0904C56.3686 20.0904 56.3322 20.0896 56.2961 20.0881C56.2758 20.0887 56.2554 20.0889 56.2349 20.0889H54.6089C54.1586 20.0889 53.7935 19.7183 53.7935 19.2611V16.5959L53.7944 16.5957V14.034L53.7935 14.0342V11.3689C53.7935 10.9117 54.1586 10.5411 54.6089 10.5411H56.188C56.2225 10.5411 56.2568 10.5418 56.2909 10.5433C56.3285 10.5414 56.3667 10.5406 56.4051 10.5406Z" fill="white"/>
<path d="M67.0618 6.72656C66.038 6.72656 65.204 7.53443 65.1584 8.54634L65.1565 8.63357V26.9644C65.1565 28.0167 66.0089 28.8714 67.0618 28.8714C68.0857 28.8714 68.9197 28.0636 68.9652 27.0517L68.9672 26.9644L68.9675 23.904L71.5464 23.9044H71.5782C75.0787 23.9044 77.9297 21.0899 77.9987 17.6028L78 17.4734V16.912C78 16.8623 77.9981 16.813 77.9944 16.7642L77.9986 16.6908L78 16.6164V13.1576C78 9.60915 75.1232 6.72656 71.5782 6.72656L71.5464 6.72698L71.5464 6.72656H67.0618ZM71.5782 10.5406C72.9855 10.5406 74.1382 11.6631 74.1876 13.0638L74.1893 13.1576V16.6164C74.1893 16.6663 74.1912 16.7157 74.195 16.7646L74.1907 16.8378L74.1893 16.912V17.4734C74.1893 18.9157 73.0153 20.0904 71.5782 20.0904C71.5417 20.0904 71.5053 20.0896 71.4692 20.0881C71.4489 20.0887 71.4285 20.0889 71.408 20.0889H69.782C69.3317 20.0889 68.9666 19.7183 68.9666 19.2611V16.5959L68.9675 16.5957V14.034L68.9666 14.0342V11.3689C68.9666 10.9117 69.3317 10.5411 69.782 10.5411H71.3611C71.3956 10.5411 71.4299 10.5418 71.464 10.5433C71.5016 10.5414 71.5398 10.5406 71.5782 10.5406Z" fill="white"/>
</svg>
