<svg width="903" height="695" viewBox="0 0 903 695" fill="none" xmlns="http://www.w3.org/2000/svg">
<g filter="url(#filter0_f)">
<ellipse cx="691.113" cy="660.524" rx="191.859" ry="14.4737" fill="#EAEAEA"/>
</g>
<path d="M574.398 452.435C574.398 452.435 563.524 486.709 526.209 500.781" stroke="#333333" stroke-width="8" stroke-linecap="round" stroke-linejoin="round"/>
<path d="M605.874 608.196L642.506 608.196C642.506 608.196 638.149 551.47 653.941 491.404C666.157 444.938 670.073 413.602 670.073 413.602" stroke="#333333" stroke-width="8" stroke-linecap="round" stroke-linejoin="round"/>
<path d="M791.647 610.812L760.248 610.812C760.248 610.812 768.098 534.981 746.224 469.874C734.6 435.272 708.117 398.966 708.117 398.966" stroke="#333333" stroke-width="8" stroke-linecap="round" stroke-linejoin="round"/>
<path d="M837.796 452.647C837.796 452.647 851.571 479.454 864.253 495.272C885.457 521.72 890.708 524.118 890.708 524.118" stroke="#333333" stroke-width="8" stroke-linecap="round" stroke-linejoin="round"/>
<path fill-rule="evenodd" clip-rule="evenodd" d="M785.525 77.7118C783.577 75.4947 780.576 74.5143 777.695 75.1534L576.146 119.862C571.402 120.915 568.077 125.193 568.228 130.05L578.331 454.528C578.507 460.211 583.333 464.632 589.01 464.311L785.206 453.209C790.945 452.884 795.259 447.847 794.699 442.126L780.871 300.903C780.871 300.903 807.824 248.989 809.951 230.081C811.67 214.791 840.181 176.433 851.031 162.312C853.417 159.206 853.297 154.844 850.712 151.902L785.525 77.7118Z" fill="#EB5757" stroke="#333333" stroke-width="8" stroke-linecap="round" stroke-linejoin="round"/>
<path fill-rule="evenodd" clip-rule="evenodd" d="M801.633 166.845C799.976 167.26 798.304 166.225 797.935 164.557L778.627 77.2766C778.517 76.7809 778.057 76.4433 777.551 76.4876L575.781 94.1726C565.05 95.1132 556.991 104.385 557.555 115.143L576.097 468.911C576.654 479.535 585.431 487.864 596.07 487.864L814.079 487.864C824.656 487.864 833.404 479.629 834.042 469.071L852.997 155.364C853.038 154.682 852.405 154.156 851.742 154.322L801.633 166.845Z" fill="white" stroke="#333333" stroke-width="8" stroke-linecap="round" stroke-linejoin="round"/>
<path d="M714.496 432.789C714.496 432.789 707.595 425.504 700.211 425.55C692.828 425.596 686.097 432.789 686.097 432.789" stroke="#333333" stroke-width="8" stroke-linecap="round" stroke-linejoin="round"/>
<ellipse rx="45.3543" ry="41.8884" transform="matrix(-1 0 0 1 648.605 341.158)" fill="white" stroke="#333333" stroke-width="8" stroke-linecap="round" stroke-linejoin="round"/>
<ellipse rx="26.166" ry="24.4349" transform="matrix(-1 0 0 1 649.83 353.396)" fill="#333333"/>
<ellipse rx="45.3544" ry="41.8884" transform="matrix(-1 0 0 1 760.245 341.158)" fill="white" stroke="#333333" stroke-width="8" stroke-linecap="round" stroke-linejoin="round"/>
<ellipse rx="25.2937" ry="24.4349" transform="matrix(-1 0 0 1 760.511 353.31)" fill="#333333"/>
<path d="M584.994 435C581.48 435 578.501 432.374 578.056 428.886C577.823 427.032 578.322 425.198 579.466 423.716C580.61 422.237 582.268 421.294 584.123 421.061L585.014 421C588.524 421 591.498 423.63 591.944 427.118C592.43 430.945 589.713 434.457 585.884 434.943L584.994 435Z" fill="white"/>
<path d="M216.657 420C206.398 420 196.382 417.063 187.692 411.503C180.23 406.728 174.006 400.135 169.693 392.424L167.958 389.312L165.155 391.509C155.682 398.927 143.828 403.011 131.774 403.011C121.517 403.011 111.511 400.074 102.828 394.523C86.9672 384.371 77.6867 367.012 78.0043 348.087L78.0535 344.886L74.8619 344.987C74.319 345.004 73.774 345.008 73.2242 345.008C62.932 345.008 52.9 342.071 44.2072 336.511C24.3051 323.785 14.9165 299.019 21.379 276.295L21.8951 274.477L20.5006 273.208C1.57248 255.91 -2.52157 227.411 10.7704 205.439C20.6275 189.162 37.8939 179.441 56.9668 179.441C61.5972 179.441 66.2122 180.039 70.6808 181.215L74.8225 182.309L74.5016 178.038C73.6118 166.259 76.4793 154.81 82.7938 144.935C92.7416 129.377 109.732 120.088 128.239 120.088C135.67 120.088 142.891 121.589 149.698 124.55L151.559 125.359L153.026 123.948C161.957 115.362 173.717 110.082 186.135 109.094L187.252 109.004L188.041 108.215C198.066 98.2587 211.946 92.5523 226.128 92.5523C236.395 92.5523 246.414 95.4889 255.104 101.049C256.494 101.94 257.813 102.904 259.095 103.9L261.121 105.47L263.02 103.745C275.594 92.3001 291.904 86 308.954 86C321.896 86 334.53 89.7052 345.487 96.7131C360.456 106.287 370.952 121.121 375.039 138.48L375.43 140.119L377.016 140.664C383.917 143.043 390.314 146.102 396.036 149.763C437.314 176.167 449.425 231.238 423.024 272.525C414.447 285.931 402.324 296.819 387.96 304.006L385.678 305.149L386.398 307.597C390.814 322.634 388.529 338.789 380.139 351.914C370.188 367.475 353.188 376.765 334.674 376.765C329.333 376.765 324.041 375.98 318.95 374.426L316.651 373.723L314.954 376.643L314.414 377.582C304.462 393.152 287.448 402.454 268.917 402.454C265.684 402.454 262.44 402.161 259.266 401.583L257.611 401.282L256.475 402.523C246.292 413.631 231.78 420 216.657 420Z" fill="white"/>
<path d="M120.438 193.266C121.578 193.266 122.266 192.562 122.266 191.375V177H122.375L128.359 191.516C128.734 192.438 129.344 192.859 130.266 192.859C131.203 192.859 131.781 192.438 132.172 191.5L138.156 177H138.266V191.375C138.266 192.562 138.938 193.266 140.078 193.266C141.219 193.266 141.891 192.562 141.891 191.375V172.75C141.891 171.141 140.938 170.188 139.328 170.188C137.922 170.188 137.109 170.797 136.516 172.281L130.328 187.469H130.203L124 172.281C123.406 170.781 122.609 170.188 121.219 170.188C119.609 170.188 118.625 171.156 118.625 172.75V191.375C118.625 192.562 119.297 193.266 120.438 193.266ZM147.797 193H152.859C156.719 193 159.203 190.75 159.203 187.203C159.203 183.656 156.719 181.406 152.859 181.406H149.656V178.031C149.656 176.859 148.875 176.109 147.703 176.109C146.531 176.109 145.781 176.844 145.781 178.031V190.906C145.781 192.219 146.531 193 147.797 193ZM162.906 193.312C164.094 193.312 164.844 192.531 164.844 191.266V178.172C164.844 176.906 164.094 176.109 162.906 176.109C161.719 176.109 160.953 176.906 160.953 178.156V191.266C160.953 192.531 161.719 193.312 162.906 193.312ZM149.656 190.016V184.359H152.359C154.156 184.359 155.344 185.484 155.344 187.188C155.344 188.875 154.172 190.016 152.359 190.016H149.656ZM176.656 193.312C177.844 193.312 178.594 192.531 178.594 191.266V185.969H185.594V191.266C185.594 192.531 186.344 193.312 187.531 193.312C188.719 193.312 189.469 192.531 189.469 191.266V178.172C189.469 176.906 188.719 176.109 187.531 176.109C186.344 176.109 185.594 176.906 185.594 178.156V182.969H178.594V178.172C178.594 176.906 177.844 176.109 176.656 176.109C175.469 176.109 174.719 176.906 174.719 178.156V191.266C174.719 192.531 175.469 193.312 176.656 193.312ZM200.344 193.328C203.5 193.328 205.969 192.094 207.062 189.984C207.234 189.641 207.328 189.297 207.328 189C207.328 188.062 206.641 187.5 205.766 187.5C205.219 187.5 204.859 187.672 204.453 188.125C203.203 189.719 202.062 190.328 200.312 190.328C197.781 190.328 196.172 188.547 196.172 185.781V185.656H205.938C207.094 185.656 207.75 184.969 207.75 183.812C207.75 179.312 204.656 176.094 200.125 176.094C195.344 176.094 192.297 179.5 192.297 184.781C192.297 190.156 195.281 193.328 200.344 193.328ZM196.203 183.094C196.359 180.719 197.953 179.109 200.141 179.109C202.328 179.109 203.859 180.688 203.938 183.094H196.203ZM224.219 193.328C227.328 193.328 230.078 191.719 231 189.453C231.172 189.078 231.234 188.75 231.234 188.453C231.234 187.484 230.516 186.859 229.594 186.859C228.766 186.859 228.328 187.188 227.812 188.062C227.047 189.391 226 190.188 224.266 190.188C221.797 190.188 220.188 188.156 220.188 184.719C220.188 181.328 221.781 179.25 224.281 179.25C225.891 179.25 226.984 179.969 227.828 181.484C228.266 182.266 228.734 182.594 229.531 182.594C230.469 182.594 231.188 182 231.188 181.031C231.188 180.75 231.125 180.422 230.984 180.094C230.188 177.766 227.438 176.094 224.188 176.094C219.344 176.094 216.234 179.453 216.234 184.734C216.234 190.047 219.375 193.328 224.219 193.328ZM235.922 193.312C237.047 193.312 237.766 192.609 237.766 191.5V181.672H237.875L241.969 190.906C242.391 191.875 242.953 192.281 243.922 192.281C244.891 192.281 245.453 191.828 245.875 190.875L249.969 181.672H250.094V191.5C250.094 192.609 250.812 193.312 251.938 193.312C253.078 193.312 253.797 192.609 253.797 191.5V178.828C253.797 177.141 252.781 176.109 251.078 176.109C249.594 176.109 248.828 176.719 248.188 178.344L244.031 188H243.906L239.766 178.344C239.141 176.719 238.344 176.109 236.812 176.109C235.125 176.109 234.062 177.172 234.062 178.844V191.5C234.062 192.609 234.797 193.312 235.922 193.312ZM264.625 193.328C269.484 193.328 272.641 190.094 272.641 184.719C272.641 179.359 269.453 176.094 264.625 176.094C259.797 176.094 256.609 179.375 256.609 184.719C256.609 190.094 259.766 193.328 264.625 193.328ZM264.625 190.25C262.156 190.25 260.562 188.25 260.562 184.719C260.562 181.203 262.172 179.188 264.625 179.188C267.094 179.188 268.688 181.203 268.688 184.719C268.688 188.25 267.094 190.25 264.625 190.25ZM277.359 193.312C278.531 193.312 279.312 192.578 279.312 191.406V179.438H285.484C286.297 179.438 286.922 178.859 286.922 177.938C286.922 177.016 286.297 176.438 285.484 176.438H277.453C276.188 176.438 275.438 177.219 275.438 178.531V191.406C275.438 192.578 276.188 193.312 277.359 193.312ZM288.641 193.094C291.5 193.094 292.984 190.766 293.312 185.703L293.734 179.438H298.453V191.406C298.453 192.578 299.219 193.312 300.391 193.312C301.578 193.312 302.328 192.578 302.328 191.406V178.531C302.328 177.219 301.562 176.438 300.312 176.438H292.266C291.016 176.438 290.328 177.188 290.266 178.531L289.812 185.422C289.609 188.578 289 189.781 287.719 189.812C287.688 189.812 287.672 189.812 287.594 189.812C286.734 189.812 286.234 190.359 286.234 191.234C286.234 192.328 287.156 193.094 288.641 193.094ZM307.938 193.312C309.016 193.312 309.672 192.938 310.297 191.922L316.828 181.859H316.953V191.328C316.953 192.609 317.75 193.312 318.859 193.312C319.969 193.312 320.766 192.609 320.766 191.328V178.25C320.766 176.938 319.922 176.109 318.609 176.109C317.562 176.109 316.906 176.484 316.266 177.5L309.75 187.5H309.625V178.109C309.625 176.828 308.828 176.109 307.719 176.109C306.609 176.109 305.812 176.828 305.812 178.094V191.172C305.812 192.5 306.547 193.312 307.938 193.312ZM76.4688 231.328C79.5781 231.328 82.3281 229.719 83.25 227.453C83.4219 227.078 83.4844 226.75 83.4844 226.453C83.4844 225.484 82.7656 224.859 81.8438 224.859C81.0156 224.859 80.5781 225.188 80.0625 226.062C79.2969 227.391 78.25 228.188 76.5156 228.188C74.0469 228.188 72.4375 226.156 72.4375 222.719C72.4375 219.328 74.0312 217.25 76.5312 217.25C78.1406 217.25 79.2344 217.969 80.0781 219.484C80.5156 220.266 80.9844 220.594 81.7812 220.594C82.7188 220.594 83.4375 220 83.4375 219.031C83.4375 218.75 83.375 218.422 83.2344 218.094C82.4375 215.766 79.6875 214.094 76.4375 214.094C71.5938 214.094 68.4844 217.453 68.4844 222.734C68.4844 228.047 71.625 231.328 76.4688 231.328ZM88.2344 231.312C89.4062 231.312 90.1875 230.578 90.1875 229.406V217.438H97.0312V229.406C97.0312 230.578 97.8125 231.312 99 231.312C100.172 231.312 100.922 230.578 100.922 229.406V216.531C100.922 215.219 100.156 214.438 98.9062 214.438H88.3281C87.0625 214.438 86.3125 215.219 86.3125 216.531V229.406C86.3125 230.578 87.0625 231.312 88.2344 231.312ZM106.531 231.312C107.609 231.312 108.266 230.938 108.891 229.922L115.422 219.859H115.547V229.328C115.547 230.609 116.344 231.312 117.453 231.312C118.562 231.312 119.359 230.609 119.359 229.328V216.25C119.359 214.938 118.516 214.109 117.203 214.109C116.156 214.109 115.5 214.484 114.859 215.5L108.344 225.5H108.219V216.109C108.219 214.828 107.422 214.109 106.312 214.109C105.203 214.109 104.406 214.828 104.406 216.094V229.172C104.406 230.5 105.141 231.312 106.531 231.312ZM130.125 231.328C133.234 231.328 135.984 229.719 136.906 227.453C137.078 227.078 137.141 226.75 137.141 226.453C137.141 225.484 136.422 224.859 135.5 224.859C134.672 224.859 134.234 225.188 133.719 226.062C132.953 227.391 131.906 228.188 130.172 228.188C127.703 228.188 126.094 226.156 126.094 222.719C126.094 219.328 127.688 217.25 130.188 217.25C131.797 217.25 132.891 217.969 133.734 219.484C134.172 220.266 134.641 220.594 135.438 220.594C136.375 220.594 137.094 220 137.094 219.031C137.094 218.75 137.031 218.422 136.891 218.094C136.094 215.766 133.344 214.094 130.094 214.094C125.25 214.094 122.141 217.453 122.141 222.734C122.141 228.047 125.281 231.328 130.125 231.328ZM144.844 231.266C146.984 231.266 149.062 230.156 150.016 228.359H150.094V229.516C150.156 230.672 150.891 231.312 151.953 231.312C153.047 231.312 153.844 230.609 153.844 229.359V219.594C153.844 216.266 151.172 214.094 147.062 214.094C143.891 214.094 141.328 215.312 140.484 217.234C140.312 217.594 140.219 217.938 140.219 218.297C140.219 219.234 140.906 219.859 141.859 219.859C142.516 219.859 143.031 219.609 143.438 219.078C144.406 217.656 145.391 217.141 146.906 217.141C148.828 217.141 150 218.141 150 219.875V221.062L145.609 221.312C141.578 221.562 139.312 223.328 139.312 226.266C139.312 229.25 141.641 231.266 144.844 231.266ZM146.031 228.328C144.344 228.328 143.203 227.469 143.203 226.109C143.203 224.797 144.281 223.953 146.156 223.828L150 223.594V224.859C150 226.859 148.219 228.328 146.031 228.328ZM162.969 231.312C164.141 231.312 164.906 230.578 164.906 229.406V217.438H168.812C169.625 217.438 170.25 216.875 170.25 215.953C170.25 215.031 169.625 214.438 168.812 214.438H157.141C156.328 214.438 155.703 215.031 155.703 215.953C155.703 216.875 156.328 217.438 157.141 217.438H161.047V229.406C161.047 230.578 161.781 231.312 162.969 231.312ZM174.422 231H179.484C183.344 231 185.828 228.75 185.828 225.203C185.828 221.656 183.344 219.406 179.484 219.406H176.281V216.031C176.281 214.859 175.5 214.109 174.328 214.109C173.156 214.109 172.406 214.844 172.406 216.031V228.906C172.406 230.219 173.156 231 174.422 231ZM176.281 228.016V222.359H178.984C180.781 222.359 181.969 223.484 181.969 225.188C181.969 226.875 180.797 228.016 178.984 228.016H176.281ZM202.219 231.328C205.328 231.328 208.078 229.719 209 227.453C209.172 227.078 209.234 226.75 209.234 226.453C209.234 225.484 208.516 224.859 207.594 224.859C206.766 224.859 206.328 225.188 205.812 226.062C205.047 227.391 204 228.188 202.266 228.188C199.797 228.188 198.188 226.156 198.188 222.719C198.188 219.328 199.781 217.25 202.281 217.25C203.891 217.25 204.984 217.969 205.828 219.484C206.266 220.266 206.734 220.594 207.531 220.594C208.469 220.594 209.188 220 209.188 219.031C209.188 218.75 209.125 218.422 208.984 218.094C208.188 215.766 205.438 214.094 202.188 214.094C197.344 214.094 194.234 217.453 194.234 222.734C194.234 228.047 197.375 231.328 202.219 231.328ZM214.016 236.891C215.156 236.891 215.969 236.156 215.969 234.844V228.25H216.047C216.953 230.109 218.828 231.266 221.234 231.266C225.391 231.266 228.047 228 228.047 222.719C228.047 217.422 225.375 214.156 221.172 214.156C218.766 214.156 216.891 215.375 215.953 217.297H215.875V216.109C215.875 214.828 215.078 214.109 213.969 214.109C212.859 214.109 212.078 214.828 212.078 216.109V234.844C212.078 236.156 212.875 236.891 214.016 236.891ZM219.984 228.078C217.562 228.078 215.953 225.969 215.938 222.719C215.953 219.5 217.562 217.359 219.984 217.359C222.5 217.359 224.062 219.453 224.062 222.719C224.062 226 222.5 228.078 219.984 228.078ZM238.25 231.328C241.406 231.328 243.875 230.094 244.969 227.984C245.141 227.641 245.234 227.297 245.234 227C245.234 226.062 244.547 225.5 243.672 225.5C243.125 225.5 242.766 225.672 242.359 226.125C241.109 227.719 239.969 228.328 238.219 228.328C235.688 228.328 234.078 226.547 234.078 223.781V223.656H243.844C245 223.656 245.656 222.969 245.656 221.812C245.656 217.312 242.562 214.094 238.031 214.094C233.25 214.094 230.203 217.5 230.203 222.781C230.203 228.156 233.188 231.328 238.25 231.328ZM234.109 221.094C234.266 218.719 235.859 217.109 238.047 217.109C240.234 217.109 241.766 218.688 241.844 221.094H234.109ZM248.516 235.656C249.609 235.656 250.281 235 250.281 233.906V231H262.125V233.906C262.125 235 262.812 235.656 263.922 235.656C265.031 235.656 265.688 235 265.688 233.906V229.953C265.688 228.766 264.984 228 263.906 228H263.078V216.531C263.078 215.219 262.328 214.438 261.062 214.438H252.359C251.156 214.438 250.438 215.234 250.359 216.531L249.906 223.078C249.75 225.312 249.312 227.281 248.094 228H248.062C247.219 228.109 246.719 228.75 246.719 229.734V233.906C246.719 235 247.406 235.656 248.516 235.656ZM259.203 228H252.109V227.875C252.875 226.781 253.25 225.156 253.375 223.281L253.797 217.422H259.203V228ZM273.094 231.312C274.266 231.312 275.031 230.578 275.031 229.406V217.438H278.938C279.75 217.438 280.375 216.875 280.375 215.953C280.375 215.031 279.75 214.438 278.938 214.438H267.266C266.453 214.438 265.828 215.031 265.828 215.953C265.828 216.875 266.453 217.438 267.266 217.438H271.172V229.406C271.172 230.578 271.906 231.312 273.094 231.312ZM289.5 231.328C292.609 231.328 295.359 229.719 296.281 227.453C296.453 227.078 296.516 226.75 296.516 226.453C296.516 225.484 295.797 224.859 294.875 224.859C294.047 224.859 293.609 225.188 293.094 226.062C292.328 227.391 291.281 228.188 289.547 228.188C287.078 228.188 285.469 226.156 285.469 222.719C285.469 219.328 287.062 217.25 289.562 217.25C291.172 217.25 292.266 217.969 293.109 219.484C293.547 220.266 294.016 220.594 294.812 220.594C295.75 220.594 296.469 220 296.469 219.031C296.469 218.75 296.406 218.422 296.266 218.094C295.469 215.766 292.719 214.094 289.469 214.094C284.625 214.094 281.516 217.453 281.516 222.734C281.516 228.047 284.656 231.328 289.5 231.328ZM301.359 231H307.328C311 231 313.281 229.141 313.281 226.219C313.281 224.141 311.812 222.609 309.641 222.328V222.203C311.281 221.922 312.547 220.375 312.547 218.641C312.547 216.016 310.547 214.438 307.203 214.438H301.359C300.094 214.438 299.344 215.219 299.344 216.531V228.906C299.344 230.219 300.094 231 301.359 231ZM303.156 221.203V217.078H306.297C307.875 217.078 308.75 217.812 308.75 219.109C308.75 220.484 307.812 221.203 306 221.203H303.156ZM303.156 228.359V223.672H306.234C308.328 223.672 309.406 224.469 309.406 226.016C309.406 227.531 308.391 228.359 306.547 228.359H303.156ZM321.031 231.266C323.172 231.266 325.25 230.156 326.203 228.359H326.281V229.516C326.344 230.672 327.078 231.312 328.141 231.312C329.234 231.312 330.031 230.609 330.031 229.359V219.594C330.031 216.266 327.359 214.094 323.25 214.094C320.078 214.094 317.516 215.312 316.672 217.234C316.5 217.594 316.406 217.938 316.406 218.297C316.406 219.234 317.094 219.859 318.047 219.859C318.703 219.859 319.219 219.609 319.625 219.078C320.594 217.656 321.578 217.141 323.094 217.141C325.016 217.141 326.188 218.141 326.188 219.875V221.062L321.797 221.312C317.766 221.562 315.5 223.328 315.5 226.266C315.5 229.25 317.828 231.266 321.031 231.266ZM322.219 228.328C320.531 228.328 319.391 227.469 319.391 226.109C319.391 224.797 320.469 223.953 322.344 223.828L326.188 223.594V224.859C326.188 226.859 324.406 228.328 322.219 228.328ZM346.141 231.328C350.406 231.328 353.109 229.281 353.109 226.062C353.109 224.156 351.984 222.828 349.953 222.344V222.219C351.547 221.797 352.531 220.406 352.531 218.734C352.531 215.797 350.172 214.094 346.094 214.094C342.984 214.094 340.672 215.266 339.891 217.125C339.719 217.469 339.656 217.797 339.656 218.188C339.656 219.109 340.297 219.688 341.266 219.688C341.891 219.688 342.281 219.484 342.734 218.859C343.484 217.734 344.438 217.109 346.094 217.109C347.781 217.109 348.734 217.859 348.734 219.125C348.734 220.453 347.844 221.125 346.062 221.125H344.891C344.094 221.125 343.562 221.641 343.562 222.469C343.562 223.297 344.094 223.812 344.891 223.812H346.141C348.25 223.812 349.25 224.516 349.25 226C349.25 227.406 348.062 228.266 346.141 228.266C344.375 228.266 343.422 227.672 342.484 226.469C342 225.891 341.656 225.688 341.031 225.688C340.031 225.688 339.359 226.281 339.359 227.234C339.359 227.578 339.453 227.938 339.609 228.266C340.484 230.125 342.953 231.328 346.141 231.328ZM360.875 231.266C363.016 231.266 365.094 230.156 366.047 228.359H366.125V229.516C366.188 230.672 366.922 231.312 367.984 231.312C369.078 231.312 369.875 230.609 369.875 229.359V219.594C369.875 216.266 367.203 214.094 363.094 214.094C359.922 214.094 357.359 215.312 356.516 217.234C356.344 217.594 356.25 217.938 356.25 218.297C356.25 219.234 356.938 219.859 357.891 219.859C358.547 219.859 359.062 219.609 359.469 219.078C360.438 217.656 361.422 217.141 362.938 217.141C364.859 217.141 366.031 218.141 366.031 219.875V221.062L361.641 221.312C357.609 221.562 355.344 223.328 355.344 226.266C355.344 229.25 357.672 231.266 360.875 231.266ZM362.062 228.328C360.375 228.328 359.234 227.469 359.234 226.109C359.234 224.797 360.312 223.953 362.188 223.828L366.031 223.594V224.859C366.031 226.859 364.25 228.328 362.062 228.328ZM76.6406 269.328C79.75 269.328 82.5 267.719 83.4219 265.453C83.5938 265.078 83.6562 264.75 83.6562 264.453C83.6562 263.484 82.9375 262.859 82.0156 262.859C81.1875 262.859 80.75 263.188 80.2344 264.062C79.4688 265.391 78.4219 266.188 76.6875 266.188C74.2188 266.188 72.6094 264.156 72.6094 260.719C72.6094 257.328 74.2031 255.25 76.7031 255.25C78.3125 255.25 79.4062 255.969 80.25 257.484C80.6875 258.266 81.1562 258.594 81.9531 258.594C82.8906 258.594 83.6094 258 83.6094 257.031C83.6094 256.75 83.5469 256.422 83.4062 256.094C82.6094 253.766 79.8594 252.094 76.6094 252.094C71.7656 252.094 68.6562 255.453 68.6562 260.734C68.6562 266.047 71.7969 269.328 76.6406 269.328ZM92.0469 269.312C93.2188 269.312 93.9844 268.578 93.9844 267.406V255.438H97.8906C98.7031 255.438 99.3281 254.875 99.3281 253.953C99.3281 253.031 98.7031 252.438 97.8906 252.438H86.2188C85.4062 252.438 84.7812 253.031 84.7812 253.953C84.7812 254.875 85.4062 255.438 86.2188 255.438H90.125V267.406C90.125 268.578 90.8594 269.312 92.0469 269.312ZM103.438 274.891C104.578 274.891 105.391 274.156 105.391 272.844V266.25H105.469C106.375 268.109 108.25 269.266 110.656 269.266C114.812 269.266 117.469 266 117.469 260.719C117.469 255.422 114.797 252.156 110.594 252.156C108.188 252.156 106.312 253.375 105.375 255.297H105.297V254.109C105.297 252.828 104.5 252.109 103.391 252.109C102.281 252.109 101.5 252.828 101.5 254.109V272.844C101.5 274.156 102.297 274.891 103.438 274.891ZM109.406 266.078C106.984 266.078 105.375 263.969 105.359 260.719C105.375 257.5 106.984 255.359 109.406 255.359C111.922 255.359 113.484 257.453 113.484 260.719C113.484 264 111.922 266.078 109.406 266.078ZM125.172 269.266C127.312 269.266 129.391 268.156 130.344 266.359H130.422V267.516C130.484 268.672 131.219 269.312 132.281 269.312C133.375 269.312 134.172 268.609 134.172 267.359V257.594C134.172 254.266 131.5 252.094 127.391 252.094C124.219 252.094 121.656 253.312 120.812 255.234C120.641 255.594 120.547 255.938 120.547 256.297C120.547 257.234 121.234 257.859 122.188 257.859C122.844 257.859 123.359 257.609 123.766 257.078C124.734 255.656 125.719 255.141 127.234 255.141C129.156 255.141 130.328 256.141 130.328 257.875V259.062L125.938 259.312C121.906 259.562 119.641 261.328 119.641 264.266C119.641 267.25 121.969 269.266 125.172 269.266ZM126.359 266.328C124.672 266.328 123.531 265.469 123.531 264.109C123.531 262.797 124.609 261.953 126.484 261.828L130.328 261.594V262.859C130.328 264.859 128.547 266.328 126.359 266.328ZM138.859 269.312C139.516 269.312 139.938 269.078 140.422 268.328L143.984 263.062H144.062L147.641 268.391C148.047 269.016 148.469 269.312 149.188 269.312C150.234 269.312 151.047 268.625 151.047 267.594C151.047 267.188 150.906 266.812 150.625 266.406L146.484 260.625L150.609 255.062C150.953 254.609 151.094 254.219 151.094 253.766C151.094 252.797 150.328 252.109 149.234 252.109C148.547 252.109 148.125 252.422 147.625 253.188L144.25 258.25H144.172L140.719 253.156C140.219 252.375 139.828 252.109 139.062 252.109C138 252.109 137.188 252.844 137.188 253.797C137.188 254.25 137.328 254.641 137.609 255.016L141.75 260.734L137.547 266.422C137.219 266.891 137.062 267.25 137.062 267.703C137.062 268.641 137.812 269.312 138.859 269.312ZM161.016 269.328C165.875 269.328 169.031 266.094 169.031 260.719C169.031 255.359 165.844 252.094 161.016 252.094C156.188 252.094 153 255.375 153 260.719C153 266.094 156.156 269.328 161.016 269.328ZM161.016 266.25C158.547 266.25 156.953 264.25 156.953 260.719C156.953 257.203 158.562 255.188 161.016 255.188C163.484 255.188 165.078 257.203 165.078 260.719C165.078 264.25 163.484 266.25 161.016 266.25ZM173.844 269H179.812C183.484 269 185.766 267.141 185.766 264.219C185.766 262.141 184.297 260.609 182.125 260.328V260.203C183.766 259.922 185.031 258.375 185.031 256.641C185.031 254.016 183.031 252.438 179.688 252.438H173.844C172.578 252.438 171.828 253.219 171.828 254.531V266.906C171.828 268.219 172.578 269 173.844 269ZM175.641 259.203V255.078H178.781C180.359 255.078 181.234 255.812 181.234 257.109C181.234 258.484 180.297 259.203 178.484 259.203H175.641ZM175.641 266.359V261.672H178.719C180.812 261.672 181.891 262.469 181.891 264.016C181.891 265.531 180.875 266.359 179.031 266.359H175.641ZM190.562 269.312C191.734 269.312 192.516 268.578 192.516 267.406V261.594H192.641L198.812 268.422C199.281 269 199.781 269.312 200.547 269.312C201.578 269.312 202.344 268.547 202.344 267.516C202.344 267.047 202.188 266.656 201.797 266.203L196.219 260.156L201.5 254.969C201.922 254.547 202.047 254.203 202.047 253.719C202.047 252.812 201.297 252.109 200.312 252.109C199.734 252.109 199.359 252.312 198.859 252.859L192.641 259.344H192.516V254.031C192.516 252.859 191.734 252.109 190.562 252.109C189.391 252.109 188.641 252.844 188.641 254.031V267.406C188.641 268.578 189.391 269.312 190.562 269.312ZM207.625 275.156C210.938 275.156 212.656 273.719 214.156 269.594L219.609 255C219.75 254.625 219.828 254.188 219.828 253.875C219.828 252.844 219.047 252.109 217.938 252.109C216.953 252.109 216.391 252.562 216.062 253.625L212.109 265.688H212.047L208.094 253.641C207.766 252.547 207.219 252.109 206.234 252.109C205.094 252.109 204.234 252.859 204.234 253.922C204.234 254.234 204.312 254.641 204.453 255.031L209.875 269.297L209.594 270.109C209.016 271.562 208.109 272.016 207.234 272.016C206.875 272.016 206.719 272 206.391 272C205.484 272 204.922 272.516 204.922 273.312C204.922 274.5 205.875 275.156 207.625 275.156ZM230.594 269.312C231.766 269.312 232.547 268.578 232.547 267.406V261.594H232.672L238.844 268.422C239.312 269 239.812 269.312 240.578 269.312C241.609 269.312 242.375 268.547 242.375 267.516C242.375 267.047 242.219 266.656 241.828 266.203L236.25 260.156L241.531 254.969C241.953 254.547 242.078 254.203 242.078 253.719C242.078 252.812 241.328 252.109 240.344 252.109C239.766 252.109 239.391 252.312 238.891 252.859L232.672 259.344H232.547V254.031C232.547 252.859 231.766 252.109 230.594 252.109C229.422 252.109 228.672 252.844 228.672 254.031V267.406C228.672 268.578 229.422 269.312 230.594 269.312ZM247.594 269H253.562C257.234 269 259.516 267.141 259.516 264.219C259.516 262.141 258.047 260.609 255.875 260.328V260.203C257.516 259.922 258.781 258.375 258.781 256.641C258.781 254.016 256.781 252.438 253.438 252.438H247.594C246.328 252.438 245.578 253.219 245.578 254.531V266.906C245.578 268.219 246.328 269 247.594 269ZM249.391 259.203V255.078H252.531C254.109 255.078 254.984 255.812 254.984 257.109C254.984 258.484 254.047 259.203 252.234 259.203H249.391ZM249.391 266.359V261.672H252.469C254.562 261.672 255.641 262.469 255.641 264.016C255.641 265.531 254.625 266.359 252.781 266.359H249.391ZM267.266 269.266C269.406 269.266 271.484 268.156 272.438 266.359H272.516V267.516C272.578 268.672 273.312 269.312 274.375 269.312C275.469 269.312 276.266 268.609 276.266 267.359V257.594C276.266 254.266 273.594 252.094 269.484 252.094C266.312 252.094 263.75 253.312 262.906 255.234C262.734 255.594 262.641 255.938 262.641 256.297C262.641 257.234 263.328 257.859 264.281 257.859C264.938 257.859 265.453 257.609 265.859 257.078C266.828 255.656 267.812 255.141 269.328 255.141C271.25 255.141 272.422 256.141 272.422 257.875V259.062L268.031 259.312C264 259.562 261.734 261.328 261.734 264.266C261.734 267.25 264.062 269.266 267.266 269.266ZM268.453 266.328C266.766 266.328 265.625 265.469 265.625 264.109C265.625 262.797 266.703 261.953 268.578 261.828L272.422 261.594V262.859C272.422 264.859 270.641 266.328 268.453 266.328ZM281.625 274.891C282.766 274.891 283.578 274.156 283.578 272.844V266.25H283.656C284.562 268.109 286.438 269.266 288.844 269.266C293 269.266 295.656 266 295.656 260.719C295.656 255.422 292.984 252.156 288.781 252.156C286.375 252.156 284.5 253.375 283.562 255.297H283.484V254.109C283.484 252.828 282.688 252.109 281.578 252.109C280.469 252.109 279.688 252.828 279.688 254.109V272.844C279.688 274.156 280.484 274.891 281.625 274.891ZM287.594 266.078C285.172 266.078 283.562 263.969 283.547 260.719C283.562 257.5 285.172 255.359 287.594 255.359C290.109 255.359 291.672 257.453 291.672 260.719C291.672 264 290.109 266.078 287.594 266.078ZM303.891 269.312C305.062 269.312 305.828 268.578 305.828 267.406V255.438H309.734C310.547 255.438 311.172 254.875 311.172 253.953C311.172 253.031 310.547 252.438 309.734 252.438H298.062C297.25 252.438 296.625 253.031 296.625 253.953C296.625 254.875 297.25 255.438 298.062 255.438H301.969V267.406C301.969 268.578 302.703 269.312 303.891 269.312ZM315.453 269.312C316.531 269.312 317.188 268.938 317.812 267.922L324.344 257.859H324.469V267.328C324.469 268.609 325.266 269.312 326.375 269.312C327.484 269.312 328.281 268.609 328.281 267.328V254.25C328.281 252.938 327.438 252.109 326.125 252.109C325.078 252.109 324.422 252.484 323.781 253.5L317.266 263.5H317.141V254.109C317.141 252.828 316.344 252.109 315.234 252.109C314.125 252.109 313.328 252.828 313.328 254.094V267.172C313.328 268.5 314.062 269.312 315.453 269.312ZM333.719 274.891C334.859 274.891 335.672 274.156 335.672 272.844V266.25H335.75C336.656 268.109 338.531 269.266 340.938 269.266C345.094 269.266 347.75 266 347.75 260.719C347.75 255.422 345.078 252.156 340.875 252.156C338.469 252.156 336.594 253.375 335.656 255.297H335.578V254.109C335.578 252.828 334.781 252.109 333.672 252.109C332.562 252.109 331.781 252.828 331.781 254.109V272.844C331.781 274.156 332.578 274.891 333.719 274.891ZM339.688 266.078C337.266 266.078 335.656 263.969 335.641 260.719C335.656 257.5 337.266 255.359 339.688 255.359C342.203 255.359 343.766 257.453 343.766 260.719C343.766 264 342.203 266.078 339.688 266.078ZM352.594 269H357.656C361.516 269 364 266.75 364 263.203C364 259.656 361.516 257.406 357.656 257.406H354.453V254.031C354.453 252.859 353.672 252.109 352.5 252.109C351.328 252.109 350.578 252.844 350.578 254.031V266.906C350.578 268.219 351.328 269 352.594 269ZM367.703 269.312C368.891 269.312 369.641 268.531 369.641 267.266V254.172C369.641 252.906 368.891 252.109 367.703 252.109C366.516 252.109 365.75 252.906 365.75 254.156V267.266C365.75 268.531 366.516 269.312 367.703 269.312ZM354.453 266.016V260.359H357.156C358.953 260.359 360.141 261.484 360.141 263.188C360.141 264.875 358.969 266.016 357.156 266.016H354.453ZM99.0469 307.266C100.312 307.266 101.062 306.5 101.062 305.172V287.875H111.766V305.172C111.766 306.5 112.531 307.266 113.781 307.266C115.047 307.266 115.797 306.5 115.797 305.172V286.547C115.797 285.234 115.047 284.453 113.781 284.453H99.0469C97.7969 284.453 97.0312 285.234 97.0312 286.547V305.172C97.0312 306.5 97.7969 307.266 99.0469 307.266ZM121.609 312.891C122.75 312.891 123.562 312.156 123.562 310.844V304.25H123.641C124.547 306.109 126.422 307.266 128.828 307.266C132.984 307.266 135.641 304 135.641 298.719C135.641 293.422 132.969 290.156 128.766 290.156C126.359 290.156 124.484 291.375 123.547 293.297H123.469V292.109C123.469 290.828 122.672 290.109 121.562 290.109C120.453 290.109 119.672 290.828 119.672 292.109V310.844C119.672 312.156 120.469 312.891 121.609 312.891ZM127.578 304.078C125.156 304.078 123.547 301.969 123.531 298.719C123.547 295.5 125.156 293.359 127.578 293.359C130.094 293.359 131.656 295.453 131.656 298.719C131.656 302 130.094 304.078 127.578 304.078ZM145.812 307.328C150.672 307.328 153.828 304.094 153.828 298.719C153.828 293.359 150.641 290.094 145.812 290.094C140.984 290.094 137.797 293.375 137.797 298.719C137.797 304.094 140.953 307.328 145.812 307.328ZM145.812 304.25C143.344 304.25 141.75 302.25 141.75 298.719C141.75 295.203 143.359 293.188 145.812 293.188C148.281 293.188 149.875 295.203 149.875 298.719C149.875 302.25 148.281 304.25 145.812 304.25ZM158.641 307H164.609C168.281 307 170.562 305.141 170.562 302.219C170.562 300.141 169.094 298.609 166.922 298.328V298.203C168.562 297.922 169.828 296.375 169.828 294.641C169.828 292.016 167.828 290.438 164.484 290.438H158.641C157.375 290.438 156.625 291.219 156.625 292.531V304.906C156.625 306.219 157.375 307 158.641 307ZM160.438 297.203V293.078H163.578C165.156 293.078 166.031 293.812 166.031 295.109C166.031 296.484 165.094 297.203 163.281 297.203H160.438ZM160.438 304.359V299.672H163.516C165.609 299.672 166.688 300.469 166.688 302.016C166.688 303.531 165.672 304.359 163.828 304.359H160.438ZM180.812 307.328C183.969 307.328 186.438 306.094 187.531 303.984C187.703 303.641 187.797 303.297 187.797 303C187.797 302.062 187.109 301.5 186.234 301.5C185.688 301.5 185.328 301.672 184.922 302.125C183.672 303.719 182.531 304.328 180.781 304.328C178.25 304.328 176.641 302.547 176.641 299.781V299.656H186.406C187.562 299.656 188.219 298.969 188.219 297.812C188.219 293.312 185.125 290.094 180.594 290.094C175.812 290.094 172.766 293.5 172.766 298.781C172.766 304.156 175.75 307.328 180.812 307.328ZM176.672 297.094C176.828 294.719 178.422 293.109 180.609 293.109C182.797 293.109 184.328 294.688 184.406 297.094H176.672ZM192.953 312.891C194.094 312.891 194.906 312.156 194.906 310.844V304.25H194.984C195.891 306.109 197.766 307.266 200.172 307.266C204.328 307.266 206.984 304 206.984 298.719C206.984 293.422 204.312 290.156 200.109 290.156C197.703 290.156 195.828 291.375 194.891 293.297H194.812V292.109C194.812 290.828 194.016 290.109 192.906 290.109C191.797 290.109 191.016 290.828 191.016 292.109V310.844C191.016 312.156 191.812 312.891 192.953 312.891ZM198.922 304.078C196.5 304.078 194.891 301.969 194.875 298.719C194.891 295.5 196.5 293.359 198.922 293.359C201.438 293.359 203 295.453 203 298.719C203 302 201.438 304.078 198.922 304.078ZM211.828 307H216.891C220.75 307 223.234 304.75 223.234 301.203C223.234 297.656 220.75 295.406 216.891 295.406H213.688V292.031C213.688 290.859 212.906 290.109 211.734 290.109C210.562 290.109 209.812 290.844 209.812 292.031V304.906C209.812 306.219 210.562 307 211.828 307ZM213.688 304.016V298.359H216.391C218.188 298.359 219.375 299.484 219.375 301.188C219.375 302.875 218.203 304.016 216.391 304.016H213.688ZM232.703 311.656C233.797 311.656 234.469 311 234.469 309.906V307H246.312V309.906C246.312 311 247 311.656 248.109 311.656C249.219 311.656 249.875 311 249.875 309.906V305.953C249.875 304.766 249.172 304 248.094 304H247.266V292.531C247.266 291.219 246.516 290.438 245.25 290.438H236.547C235.344 290.438 234.625 291.234 234.547 292.531L234.094 299.078C233.938 301.312 233.5 303.281 232.281 304H232.25C231.406 304.109 230.906 304.75 230.906 305.734V309.906C230.906 311 231.594 311.656 232.703 311.656ZM243.391 304H236.297V303.875C237.062 302.781 237.438 301.156 237.562 299.281L237.984 293.422H243.391V304ZM256.844 307.266C258.984 307.266 261.062 306.156 262.016 304.359H262.094V305.516C262.156 306.672 262.891 307.312 263.953 307.312C265.047 307.312 265.844 306.609 265.844 305.359V295.594C265.844 292.266 263.172 290.094 259.062 290.094C255.891 290.094 253.328 291.312 252.484 293.234C252.312 293.594 252.219 293.938 252.219 294.297C252.219 295.234 252.906 295.859 253.859 295.859C254.516 295.859 255.031 295.609 255.438 295.078C256.406 293.656 257.391 293.141 258.906 293.141C260.828 293.141 262 294.141 262 295.875V297.062L257.609 297.312C253.578 297.562 251.312 299.328 251.312 302.266C251.312 305.25 253.641 307.266 256.844 307.266ZM258.031 304.328C256.344 304.328 255.203 303.469 255.203 302.109C255.203 300.797 256.281 299.953 258.156 299.828L262 299.594V300.859C262 302.859 260.219 304.328 258.031 304.328ZM271.188 307.312C272.375 307.312 273.125 306.531 273.125 305.266V299.969H280.125V305.266C280.125 306.531 280.875 307.312 282.062 307.312C283.25 307.312 284 306.531 284 305.266V292.172C284 290.906 283.25 290.109 282.062 290.109C280.875 290.109 280.125 290.906 280.125 292.156V296.969H273.125V292.172C273.125 290.906 272.375 290.109 271.188 290.109C270 290.109 269.25 290.906 269.25 292.156V305.266C269.25 306.531 270 307.312 271.188 307.312ZM289.438 307.312C290.625 307.312 291.375 306.531 291.375 305.266V299.969H298.375V305.266C298.375 306.531 299.125 307.312 300.312 307.312C301.5 307.312 302.25 306.531 302.25 305.266V292.172C302.25 290.906 301.5 290.109 300.312 290.109C299.125 290.109 298.375 290.906 298.375 292.156V296.969H291.375V292.172C291.375 290.906 290.625 290.109 289.438 290.109C288.25 290.109 287.5 290.906 287.5 292.156V305.266C287.5 306.531 288.25 307.312 289.438 307.312ZM307.766 307H312.828C316.688 307 319.172 304.75 319.172 301.203C319.172 297.656 316.688 295.406 312.828 295.406H309.625V292.031C309.625 290.859 308.844 290.109 307.672 290.109C306.5 290.109 305.75 290.844 305.75 292.031V304.906C305.75 306.219 306.5 307 307.766 307ZM322.875 307.312C324.062 307.312 324.812 306.531 324.812 305.266V292.172C324.812 290.906 324.062 290.109 322.875 290.109C321.688 290.109 320.922 290.906 320.922 292.156V305.266C320.922 306.531 321.688 307.312 322.875 307.312ZM309.625 304.016V298.359H312.328C314.125 298.359 315.312 299.484 315.312 301.188C315.312 302.875 314.141 304.016 312.328 304.016H309.625ZM335.656 307.328C338.812 307.328 341.281 306.094 342.375 303.984C342.547 303.641 342.641 303.297 342.641 303C342.641 302.062 341.953 301.5 341.078 301.5C340.531 301.5 340.172 301.672 339.766 302.125C338.516 303.719 337.375 304.328 335.625 304.328C333.094 304.328 331.484 302.547 331.484 299.781V299.656H341.25C342.406 299.656 343.062 298.969 343.062 297.812C343.062 293.312 339.969 290.094 335.438 290.094C330.656 290.094 327.609 293.5 327.609 298.781C327.609 304.156 330.594 307.328 335.656 307.328ZM331.516 297.094C331.672 294.719 333.266 293.109 335.453 293.109C337.641 293.109 339.172 294.688 339.25 297.094H331.516ZM136.234 345.328C139.344 345.328 142.094 343.719 143.016 341.453C143.188 341.078 143.25 340.75 143.25 340.453C143.25 339.484 142.531 338.859 141.609 338.859C140.781 338.859 140.344 339.188 139.828 340.062C139.062 341.391 138.016 342.188 136.281 342.188C133.812 342.188 132.203 340.156 132.203 336.719C132.203 333.328 133.797 331.25 136.297 331.25C137.906 331.25 139 331.969 139.844 333.484C140.281 334.266 140.75 334.594 141.547 334.594C142.484 334.594 143.203 334 143.203 333.031C143.203 332.75 143.141 332.422 143 332.094C142.203 329.766 139.453 328.094 136.203 328.094C131.359 328.094 128.25 331.453 128.25 336.734C128.25 342.047 131.391 345.328 136.234 345.328ZM148.094 345H154.062C157.734 345 160.016 343.141 160.016 340.219C160.016 338.141 158.547 336.609 156.375 336.328V336.203C158.016 335.922 159.281 334.375 159.281 332.641C159.281 330.016 157.281 328.438 153.938 328.438H148.094C146.828 328.438 146.078 329.219 146.078 330.531V342.906C146.078 344.219 146.828 345 148.094 345ZM149.891 335.203V331.078H153.031C154.609 331.078 155.484 331.812 155.484 333.109C155.484 334.484 154.547 335.203 152.734 335.203H149.891ZM149.891 342.359V337.672H152.969C155.062 337.672 156.141 338.469 156.141 340.016C156.141 341.531 155.125 342.359 153.281 342.359H149.891ZM170.234 345.328C175.094 345.328 178.25 342.094 178.25 336.719C178.25 331.359 175.062 328.094 170.234 328.094C165.406 328.094 162.219 331.375 162.219 336.719C162.219 342.094 165.375 345.328 170.234 345.328ZM170.234 342.25C167.766 342.25 166.172 340.25 166.172 336.719C166.172 333.203 167.781 331.188 170.234 331.188C172.703 331.188 174.297 333.203 174.297 336.719C174.297 340.25 172.703 342.25 170.234 342.25ZM188.422 345.328C191.578 345.328 194.047 344.094 195.141 341.984C195.312 341.641 195.406 341.297 195.406 341C195.406 340.062 194.719 339.5 193.844 339.5C193.297 339.5 192.938 339.672 192.531 340.125C191.281 341.719 190.141 342.328 188.391 342.328C185.859 342.328 184.25 340.547 184.25 337.781V337.656H194.016C195.172 337.656 195.828 336.969 195.828 335.812C195.828 331.312 192.734 328.094 188.203 328.094C183.422 328.094 180.375 331.5 180.375 336.781C180.375 342.156 183.359 345.328 188.422 345.328ZM184.281 335.094C184.438 332.719 186.031 331.109 188.219 331.109C190.406 331.109 191.938 332.688 192.016 335.094H184.281ZM206.109 326.078C208.797 326.078 210.797 324.625 211.234 322.562C211.297 322.359 211.328 322.109 211.328 321.906C211.328 321.156 210.875 320.656 210.156 320.656C209.531 320.656 209.172 320.969 208.969 321.719C208.594 323.078 207.625 324 206.094 324C204.609 324 203.656 323.109 203.25 321.719C203.031 320.969 202.688 320.656 202.062 320.656C201.344 320.656 200.875 321.156 200.875 321.906C200.875 322.141 200.906 322.375 200.969 322.625C201.453 324.641 203.406 326.078 206.109 326.078ZM200.734 345.312C201.812 345.312 202.469 344.938 203.094 343.922L209.625 333.859H209.75V343.328C209.75 344.609 210.547 345.312 211.656 345.312C212.766 345.312 213.562 344.609 213.562 343.328V330.25C213.562 328.938 212.719 328.109 211.406 328.109C210.359 328.109 209.703 328.484 209.062 329.5L202.547 339.5H202.422V330.109C202.422 328.828 201.625 328.109 200.516 328.109C199.406 328.109 198.609 328.828 198.609 330.094V343.172C198.609 344.5 199.344 345.312 200.734 345.312ZM225.375 345.312C226.547 345.312 227.328 344.578 227.328 343.406V337.594H227.453L233.625 344.422C234.094 345 234.594 345.312 235.359 345.312C236.391 345.312 237.156 344.547 237.156 343.516C237.156 343.047 237 342.656 236.609 342.203L231.031 336.156L236.312 330.969C236.734 330.547 236.859 330.203 236.859 329.719C236.859 328.812 236.109 328.109 235.125 328.109C234.547 328.109 234.172 328.312 233.672 328.859L227.453 335.344H227.328V330.031C227.328 328.859 226.547 328.109 225.375 328.109C224.203 328.109 223.453 328.844 223.453 330.031V343.406C223.453 344.578 224.203 345.312 225.375 345.312ZM244.922 345.266C247.062 345.266 249.141 344.156 250.094 342.359H250.172V343.516C250.234 344.672 250.969 345.312 252.031 345.312C253.125 345.312 253.922 344.609 253.922 343.359V333.594C253.922 330.266 251.25 328.094 247.141 328.094C243.969 328.094 241.406 329.312 240.562 331.234C240.391 331.594 240.297 331.938 240.297 332.297C240.297 333.234 240.984 333.859 241.938 333.859C242.594 333.859 243.109 333.609 243.516 333.078C244.484 331.656 245.469 331.141 246.984 331.141C248.906 331.141 250.078 332.141 250.078 333.875V335.062L245.688 335.312C241.656 335.562 239.391 337.328 239.391 340.266C239.391 343.25 241.719 345.266 244.922 345.266ZM246.109 342.328C244.422 342.328 243.281 341.469 243.281 340.109C243.281 338.797 244.359 337.953 246.234 337.828L250.078 337.594V338.859C250.078 340.859 248.297 342.328 246.109 342.328ZM259.281 350.891C260.422 350.891 261.234 350.156 261.234 348.844V342.25H261.312C262.219 344.109 264.094 345.266 266.5 345.266C270.656 345.266 273.312 342 273.312 336.719C273.312 331.422 270.641 328.156 266.438 328.156C264.031 328.156 262.156 329.375 261.219 331.297H261.141V330.109C261.141 328.828 260.344 328.109 259.234 328.109C258.125 328.109 257.344 328.828 257.344 330.109V348.844C257.344 350.156 258.141 350.891 259.281 350.891ZM265.25 342.078C262.828 342.078 261.219 339.969 261.203 336.719C261.219 333.5 262.828 331.359 265.25 331.359C267.766 331.359 269.328 333.453 269.328 336.719C269.328 340 267.766 342.078 265.25 342.078ZM281.547 345.312C282.719 345.312 283.484 344.578 283.484 343.406V331.438H287.391C288.203 331.438 288.828 330.875 288.828 329.953C288.828 329.031 288.203 328.438 287.391 328.438H275.719C274.906 328.438 274.281 329.031 274.281 329.953C274.281 330.875 274.906 331.438 275.719 331.438H279.625V343.406C279.625 344.578 280.359 345.312 281.547 345.312ZM293 345H298.062C301.922 345 304.406 342.75 304.406 339.203C304.406 335.656 301.922 333.406 298.062 333.406H294.859V330.031C294.859 328.859 294.078 328.109 292.906 328.109C291.734 328.109 290.984 328.844 290.984 330.031V342.906C290.984 344.219 291.734 345 293 345ZM308.109 345.312C309.297 345.312 310.047 344.531 310.047 343.266V330.172C310.047 328.906 309.297 328.109 308.109 328.109C306.922 328.109 306.156 328.906 306.156 330.156V343.266C306.156 344.531 306.922 345.312 308.109 345.312ZM294.859 342.016V336.359H297.562C299.359 336.359 300.547 337.484 300.547 339.188C300.547 340.875 299.375 342.016 297.562 342.016H294.859Z" fill="#151515"/>
<path d="M387.029 326.173C377.092 341.735 360.117 351.022 341.628 351.022C336.295 351.022 331.012 350.234 325.928 348.684L323.632 347.981L321.939 350.896L321.399 351.836C311.461 367.406 294.472 376.701 275.967 376.701C272.739 376.701 269.498 376.409 266.331 375.835L264.676 375.53L263.542 376.775C253.374 387.876 238.882 394.244 223.781 394.244C213.538 394.244 203.536 391.312 194.859 385.749C187.406 380.979 181.193 374.384 176.886 366.678L175.152 363.567L172.352 365.763C162.895 373.176 151.056 377.259 139.021 377.259C128.781 377.259 118.787 374.327 110.118 368.772C94.2786 358.627 85.0098 341.271 85.327 322.347L85.3794 319.154L82.1907 319.248C81.6469 319.264 81.1044 319.272 80.557 319.272C70.2778 319.272 60.2602 316.332 51.5783 310.774C31.7063 298.05 22.3312 273.294 28.7828 250.571L29.2982 248.758L27.9073 247.485C16.0257 236.616 10.0069 221.322 10.4671 206C-2.44398 227.897 1.70429 256.081 20.4627 273.241L21.8552 274.51L21.3399 276.328C14.8866 299.046 24.2618 323.806 44.1353 336.53C52.8157 342.089 62.8333 345.025 73.1124 345.025C73.6598 345.025 74.204 345.021 74.7461 345.004L77.9348 344.903L77.884 348.103C77.5669 367.024 86.834 384.379 102.673 394.528C111.343 400.079 121.336 403.015 131.576 403.015C143.613 403.015 155.45 398.932 164.909 391.515L167.709 389.319L169.441 392.43C173.748 400.14 179.963 406.731 187.414 411.505C196.092 417.064 206.093 420 216.338 420C231.439 420 245.931 413.632 256.099 402.527L257.233 401.287L258.886 401.588C262.056 402.165 265.295 402.458 268.523 402.458C287.027 402.458 304.017 393.158 313.955 377.592L314.494 376.653L316.188 373.733L318.484 374.436C323.568 375.99 328.852 376.775 334.185 376.775C352.674 376.775 369.648 367.487 379.586 351.929C384.881 343.634 387.724 334.131 388 324.461C387.667 325.026 387.387 325.616 387.029 326.173Z" fill="#E9E8E7"/>
<path d="M308.922 83C291.435 83 274.218 89.4568 260.95 101.533C259.597 100.484 258.203 99.4675 256.733 98.5283C247.234 92.4495 236.617 89.5504 226.124 89.5504C211.312 89.5504 196.746 95.3242 185.904 106.095C172.989 107.124 160.571 112.52 150.938 121.79C143.635 118.615 135.919 117.078 128.271 117.078C109.503 117.078 91.1424 126.328 80.2755 143.324C73.358 154.14 70.6156 166.403 71.5128 178.288C66.7361 177.028 61.8659 176.414 57.0274 176.414C37.7519 176.414 18.9532 186.18 8.24078 203.876C-6.07998 227.544 -1.15692 257.475 18.5182 275.451C11.8154 299.034 20.9208 325.171 42.6273 339.056C52.136 345.139 62.768 348.03 73.2771 348.03C73.8519 348.03 74.43 348.022 75.0065 348.006C74.6857 367.132 83.9342 385.983 101.229 397.05C110.722 403.121 121.325 406.016 131.806 406.016C144.453 406.016 156.923 401.8 167.05 393.871C171.485 401.8 177.871 408.785 186.059 414.026C195.555 420.101 206.169 423 216.658 423C232.322 423 247.706 416.539 258.708 404.54C262.089 405.154 265.503 405.459 268.898 405.459C287.689 405.459 306.078 396.188 316.954 379.18C317.345 378.57 317.656 377.928 318.021 377.306C323.468 378.969 329.066 379.778 334.627 379.778C353.402 379.778 371.773 370.527 382.644 353.527C391.901 339.056 393.75 322.003 389.258 306.723C403.58 299.55 416.256 288.641 425.512 274.162C452.851 231.407 440.363 174.572 397.612 147.223C391.323 143.202 384.709 140.144 377.949 137.815C373.859 120.44 363.305 104.57 347.082 94.1898C335.235 86.6147 322.004 83 308.922 83ZM308.922 89.0991C321.275 89.0991 333.334 92.6365 343.796 99.3293C358.086 108.47 368.111 122.636 372.017 139.213L372.786 142.486L375.965 143.58C382.628 145.878 388.807 148.834 394.328 152.363C434.175 177.853 445.859 231.021 420.378 270.876C412.101 283.819 400.397 294.325 386.53 301.266L381.969 303.551L383.408 308.439C387.575 322.625 385.425 337.861 377.51 350.242C368.123 364.92 352.093 373.679 334.627 373.679C329.59 373.679 324.604 372.939 319.801 371.471L315.203 370.068L312.765 374.215L312.249 375.134L311.817 375.895C302.421 390.585 286.377 399.36 268.898 399.36C265.852 399.36 262.789 399.083 259.799 398.539L256.489 397.937L254.214 400.417C244.608 410.891 230.92 416.901 216.658 416.901C206.985 416.901 197.54 414.128 189.344 408.887C182.307 404.386 176.44 398.165 172.375 390.894L168.899 384.677L163.293 389.069C154.359 396.062 143.176 399.917 131.806 399.917C122.14 399.917 112.703 397.148 104.516 391.911C89.5573 382.339 80.806 365.965 81.1044 348.107L81.2109 341.715L74.8239 341.911C74.3077 341.927 73.7934 341.931 73.2771 341.931C63.5729 341.931 54.1101 339.162 45.9145 333.917C27.1443 321.91 18.291 298.554 24.3844 277.122L25.415 273.495L22.6311 270.95C4.77879 254.637 0.921653 227.756 13.4573 207.035C22.7534 191.678 39.0414 182.513 57.0274 182.513C61.3975 182.513 65.7486 183.078 69.9582 184.184L78.2396 186.371L77.5948 177.829C76.755 166.716 79.4576 155.921 85.4128 146.609C94.7962 131.935 110.818 123.177 128.271 123.177C135.281 123.177 142.088 124.592 148.507 127.385L152.236 129.003L155.166 126.186C163.585 118.086 174.672 113.113 186.39 112.174L188.617 111.995L190.201 110.421C199.653 101.033 212.746 95.6494 226.124 95.6494C235.802 95.6494 245.25 98.4184 253.447 103.664C254.597 104.4 255.796 105.254 257.218 106.355L261.268 109.494L265.055 106.046C277.061 95.1168 292.639 89.0991 308.922 89.0991Z" fill="#333333"/>
<path d="M445.466 355C434.187 355 424.605 346.551 423.182 335.34C421.614 323.037 430.35 311.75 442.657 310.185C443.62 310.06 444.58 310 445.531 310C456.81 310 466.388 318.453 467.815 329.66C468.577 335.622 466.965 341.52 463.284 346.272C459.604 351.025 454.295 354.061 448.333 354.819C447.369 354.944 446.414 355 445.466 355Z" fill="white"/>
<path d="M445.031 307C443.934 307 442.83 307.074 441.717 307.214C427.476 309.024 417.4 322.042 419.21 336.283C420.882 349.411 432.075 359 444.965 359C446.057 359 447.166 358.934 448.279 358.791C462.524 356.98 472.6 343.962 470.79 329.721C469.118 316.593 457.925 307 445.031 307ZM445.031 313.16C454.976 313.16 463.423 320.613 464.679 330.497C466.059 341.346 458.352 351.3 447.499 352.68C446.657 352.787 445.807 352.84 444.965 352.84C435.024 352.84 426.577 345.387 425.321 335.507C424.651 330.251 426.072 325.048 429.316 320.855C432.56 316.667 437.237 313.989 442.493 313.324C443.335 313.217 444.189 313.16 445.031 313.16Z" fill="#333333"/>
<path d="M497.475 383C491.215 383 485.892 378.304 485.101 372.075C484.232 365.239 489.083 358.969 495.92 358.101C496.454 358.032 496.987 358 497.516 358C503.784 358 509.103 362.696 509.899 368.925C510.319 372.236 509.426 375.515 507.382 378.151C505.335 380.792 502.386 382.479 499.075 382.895C498.537 382.968 498.004 383 497.475 383Z" fill="white"/>
<path d="M497.516 355C496.863 355 496.202 355.04 495.537 355.125C487.044 356.205 481.045 363.967 482.126 372.455C483.121 380.281 489.785 386 497.476 386C498.129 386 498.79 385.96 499.451 385.875C507.948 384.795 513.955 377.037 512.874 368.545C511.879 360.723 505.207 355 497.516 355ZM497.516 361.045C502.253 361.045 506.276 364.596 506.872 369.307C507.195 371.814 506.517 374.292 504.974 376.287C503.426 378.282 501.197 379.556 498.689 379.878C498.282 379.931 497.875 379.955 497.476 379.955C492.743 379.955 488.721 376.404 488.124 371.693C487.805 369.186 488.479 366.708 490.027 364.713C491.57 362.714 493.8 361.44 496.303 361.122C496.71 361.069 497.117 361.045 497.516 361.045Z" fill="#333333"/>
<path d="M540.014 386C539.596 386 539.169 386.024 538.743 386.081C533.263 386.775 529.386 391.784 530.08 397.26C530.726 402.31 535.029 406 539.989 406C540.412 406 540.838 405.976 541.264 405.919C546.74 405.225 550.617 400.216 549.919 394.74C549.277 389.69 544.97 386 540.014 386ZM540.014 392.089C541.97 392.089 543.631 393.558 543.878 395.507C544.15 397.646 542.636 399.607 540.497 399.879L539.989 399.911C538.033 399.911 536.372 398.442 536.121 396.493C535.849 394.354 537.371 392.393 539.51 392.117L540.014 392.089Z" fill="#333333"/>
<defs>
<filter id="filter0_f" x="479.254" y="626.051" width="423.718" height="68.9474" filterUnits="userSpaceOnUse" color-interpolation-filters="sRGB">
<feFlood flood-opacity="0" result="BackgroundImageFix"/>
<feBlend mode="normal" in="SourceGraphic" in2="BackgroundImageFix" result="shape"/>
<feGaussianBlur stdDeviation="10" result="effect1_foregroundBlur"/>
</filter>
</defs>
</svg>
