<svg width="710" height="906" viewBox="0 0 710 906" fill="none" xmlns="http://www.w3.org/2000/svg">
<path d="M635.789 732.917C635.789 732.917 689.031 793.844 700.194 724.334" stroke="#333333" stroke-width="9" stroke-linecap="round" stroke-linejoin="round"/>
<path d="M422.321 861.74L433.495 835.988C433.495 835.988 629.301 900.609 560.257 807.223C532.075 769.107 545.395 735.586 545.395 735.586" stroke="#333333" stroke-width="9" stroke-linecap="round" stroke-linejoin="round"/>
<path d="M605.007 861.037L594.318 832.925C594.318 832.925 386.854 920.53 475.233 787.398C485.942 755.538 510.34 722.108 510.34 722.108" stroke="#333333" stroke-width="9" stroke-linecap="round" stroke-linejoin="round"/>
<path d="M395.531 733.218C395.531 733.218 362.601 749.199 343.643 751.398C317.488 754.431 314.31 718.552 314.31 718.552" stroke="#333333" stroke-width="9" stroke-linecap="round" stroke-linejoin="round"/>
<path fill-rule="evenodd" clip-rule="evenodd" d="M438.777 426.592C440.725 424.376 443.724 423.397 446.604 424.035L631.275 464.978C636.019 466.03 639.345 470.308 639.194 475.166L629.933 772.451C629.756 778.134 624.93 782.554 619.254 782.233L440.148 772.103C434.409 771.779 430.094 766.742 430.654 761.02L443.312 631.818C443.312 631.818 418.481 584.017 416.522 566.607C414.954 552.675 389.217 517.945 378.994 504.621C376.609 501.514 376.738 497.16 379.325 494.218L438.777 426.592Z" fill="#65D36E" stroke="#333333" stroke-width="9" stroke-linecap="round" stroke-linejoin="round"/>
<path fill-rule="evenodd" clip-rule="evenodd" d="M423.956 508.32C425.613 508.734 427.285 507.7 427.654 506.032L445.374 425.976C445.484 425.48 445.944 425.143 446.449 425.187L630.923 441.347C641.585 442.281 649.622 451.444 649.159 462.137L635.889 768.302C635.45 778.428 627.505 786.626 617.397 787.381L415.611 802.453C404.486 803.284 394.831 794.852 394.158 783.716L376.88 497.917C376.839 497.235 377.472 496.709 378.135 496.874L423.956 508.32Z" fill="white" stroke="#333333" stroke-width="9" stroke-linecap="round" stroke-linejoin="round"/>
<path d="M500.064 716.391C500.064 716.391 506.423 723.098 513.225 723.056C520.027 723.014 526.227 716.391 526.227 716.391" stroke="#333333" stroke-width="9" stroke-linecap="round" stroke-linejoin="round"/>
<path d="M601.922 658.609C601.922 658.609 595.594 672.838 567.183 678.188C540.61 674.057 535.767 659.01 535.767 659.01" stroke="#333333" stroke-width="9" stroke-linecap="round" stroke-linejoin="round"/>
<path d="M424.273 663.141C424.273 663.141 430.463 678.859 458.833 682.661C485.46 675.793 490.455 658.235 490.455 658.235" stroke="#333333" stroke-width="9" stroke-linecap="round" stroke-linejoin="round"/>
<path d="M584.994 352C581.48 352 578.501 349.374 578.056 345.886C577.823 344.032 578.322 342.198 579.466 340.716C580.61 339.237 582.268 338.294 584.123 338.061L585.014 338C588.524 338 591.498 340.63 591.944 344.118C592.43 347.945 589.713 351.457 585.884 351.943L584.994 352Z" fill="white"/>
<path d="M216.657 337C206.398 337 196.382 334.063 187.692 328.503C180.23 323.728 174.006 317.135 169.693 309.424L167.958 306.312L165.155 308.509C155.682 315.927 143.828 320.011 131.774 320.011C121.517 320.011 111.511 317.074 102.828 311.523C86.9672 301.371 77.6867 284.012 78.0043 265.087L78.0535 261.886L74.8619 261.987C74.319 262.004 73.774 262.008 73.2242 262.008C62.932 262.008 52.9 259.071 44.2072 253.511C24.3051 240.785 14.9165 216.019 21.379 193.295L21.8951 191.477L20.5006 190.208C1.57248 172.91 -2.52157 144.411 10.7704 122.439C20.6275 106.162 37.8939 96.4414 56.9668 96.4414C61.5972 96.4414 66.2122 97.0392 70.6808 98.2147L74.8225 99.3089L74.5016 95.0382C73.6118 83.2594 76.4793 71.81 82.7938 61.9347C92.7416 46.3774 109.732 37.0878 128.239 37.0878C135.67 37.0878 142.891 38.5886 149.698 41.5496L151.559 42.3589L153.026 40.9476C161.957 32.3616 173.717 27.0823 186.135 26.094L187.252 26.0045L188.041 25.2154C198.066 15.2587 211.946 9.55231 226.128 9.55231C236.395 9.55231 246.414 12.4889 255.104 18.0489C256.494 18.9396 257.813 19.9036 259.095 20.9001L261.121 22.4699L263.02 20.7454C275.594 9.30014 291.904 3 308.954 3C321.896 3 334.53 6.7052 345.487 13.7131C360.456 23.2875 370.952 38.1208 375.039 55.48L375.43 57.1191L377.016 57.664C383.917 60.0434 390.314 63.102 396.036 66.7626C437.314 93.1673 449.425 148.238 423.024 189.525C414.447 202.931 402.324 213.819 387.96 221.006L385.678 222.149L386.398 224.597C390.814 239.634 388.529 255.789 380.139 268.914C370.188 284.475 353.188 293.765 334.674 293.765C329.333 293.765 324.041 292.98 318.95 291.426L316.651 290.723L314.954 293.643L314.414 294.582C304.462 310.152 287.448 319.454 268.917 319.454C265.684 319.454 262.44 319.161 259.266 318.583L257.611 318.282L256.475 319.523C246.292 330.631 231.78 337 216.657 337Z" fill="white"/>
<path d="M152.688 97.2656C153.938 97.2656 154.703 96.4844 154.703 95.1719V86.7188H154.828L164.172 96.25C164.922 97.0156 165.344 97.2656 166.062 97.2656C167.156 97.2656 167.969 96.4531 167.969 95.3594C167.969 94.8125 167.797 94.4219 167.359 93.9531L158.641 85.1719L166.719 77.1562C167.141 76.7344 167.312 76.3281 167.312 75.8281C167.312 74.9062 166.516 74.1875 165.516 74.1875C164.906 74.1875 164.547 74.3906 163.891 75.0469L154.828 84.3125H154.703V76.2812C154.703 74.9688 153.938 74.1875 152.688 74.1875C151.438 74.1875 150.672 74.9688 150.672 76.2812V95.1719C150.672 96.4844 151.438 97.2656 152.688 97.2656ZM172.938 97H178.906C182.578 97 184.859 95.1406 184.859 92.2188C184.859 90.1406 183.391 88.6094 181.219 88.3281V88.2031C182.859 87.9219 184.125 86.375 184.125 84.6406C184.125 82.0156 182.125 80.4375 178.781 80.4375H172.938C171.672 80.4375 170.922 81.2188 170.922 82.5312V94.9062C170.922 96.2188 171.672 97 172.938 97ZM174.734 87.2031V83.0781H177.875C179.453 83.0781 180.328 83.8125 180.328 85.1094C180.328 86.4844 179.391 87.2031 177.578 87.2031H174.734ZM174.734 94.3594V89.6719H177.812C179.906 89.6719 180.984 90.4688 180.984 92.0156C180.984 93.5312 179.969 94.3594 178.125 94.3594H174.734ZM192.609 97.2656C194.75 97.2656 196.828 96.1562 197.781 94.3594H197.859V95.5156C197.922 96.6719 198.656 97.3125 199.719 97.3125C200.812 97.3125 201.609 96.6094 201.609 95.3594V85.5938C201.609 82.2656 198.938 80.0938 194.828 80.0938C191.656 80.0938 189.094 81.3125 188.25 83.2344C188.078 83.5938 187.984 83.9375 187.984 84.2969C187.984 85.2344 188.672 85.8594 189.625 85.8594C190.281 85.8594 190.797 85.6094 191.203 85.0781C192.172 83.6562 193.156 83.1406 194.672 83.1406C196.594 83.1406 197.766 84.1406 197.766 85.875V87.0625L193.375 87.3125C189.344 87.5625 187.078 89.3281 187.078 92.2656C187.078 95.25 189.406 97.2656 192.609 97.2656ZM193.797 94.3281C192.109 94.3281 190.969 93.4688 190.969 92.1094C190.969 90.7969 192.047 89.9531 193.922 89.8281L197.766 89.5938V90.8594C197.766 92.8594 195.984 94.3281 193.797 94.3281ZM206.969 102.891C208.109 102.891 208.922 102.156 208.922 100.844V94.25H209C209.906 96.1094 211.781 97.2656 214.188 97.2656C218.344 97.2656 221 94 221 88.7188C221 83.4219 218.328 80.1562 214.125 80.1562C211.719 80.1562 209.844 81.375 208.906 83.2969H208.828V82.1094C208.828 80.8281 208.031 80.1094 206.922 80.1094C205.812 80.1094 205.031 80.8281 205.031 82.1094V100.844C205.031 102.156 205.828 102.891 206.969 102.891ZM212.938 94.0781C210.516 94.0781 208.906 91.9688 208.891 88.7188C208.906 85.5 210.516 83.3594 212.938 83.3594C215.453 83.3594 217.016 85.4531 217.016 88.7188C217.016 92 215.453 94.0781 212.938 94.0781ZM229.234 97.3125C230.406 97.3125 231.172 96.5781 231.172 95.4062V83.4375H235.078C235.891 83.4375 236.516 82.875 236.516 81.9531C236.516 81.0312 235.891 80.4375 235.078 80.4375H223.406C222.594 80.4375 221.969 81.0312 221.969 81.9531C221.969 82.875 222.594 83.4375 223.406 83.4375H227.312V95.4062C227.312 96.5781 228.047 97.3125 229.234 97.3125ZM240.797 97.3125C241.875 97.3125 242.531 96.9375 243.156 95.9219L249.688 85.8594H249.812V95.3281C249.812 96.6094 250.609 97.3125 251.719 97.3125C252.828 97.3125 253.625 96.6094 253.625 95.3281V82.25C253.625 80.9375 252.781 80.1094 251.469 80.1094C250.422 80.1094 249.766 80.4844 249.125 81.5L242.609 91.5H242.484V82.1094C242.484 80.8281 241.688 80.1094 240.578 80.1094C239.469 80.1094 238.672 80.8281 238.672 82.0938V95.1719C238.672 96.5 239.406 97.3125 240.797 97.3125ZM259.062 102.891C260.203 102.891 261.016 102.156 261.016 100.844V94.25H261.094C262 96.1094 263.875 97.2656 266.281 97.2656C270.438 97.2656 273.094 94 273.094 88.7188C273.094 83.4219 270.422 80.1562 266.219 80.1562C263.812 80.1562 261.938 81.375 261 83.2969H260.922V82.1094C260.922 80.8281 260.125 80.1094 259.016 80.1094C257.906 80.1094 257.125 80.8281 257.125 82.1094V100.844C257.125 102.156 257.922 102.891 259.062 102.891ZM265.031 94.0781C262.609 94.0781 261 91.9688 260.984 88.7188C261 85.5 262.609 83.3594 265.031 83.3594C267.547 83.3594 269.109 85.4531 269.109 88.7188C269.109 92 267.547 94.0781 265.031 94.0781ZM280.797 97.2656C282.938 97.2656 285.016 96.1562 285.969 94.3594H286.047V95.5156C286.109 96.6719 286.844 97.3125 287.906 97.3125C289 97.3125 289.797 96.6094 289.797 95.3594V85.5938C289.797 82.2656 287.125 80.0938 283.016 80.0938C279.844 80.0938 277.281 81.3125 276.438 83.2344C276.266 83.5938 276.172 83.9375 276.172 84.2969C276.172 85.2344 276.859 85.8594 277.812 85.8594C278.469 85.8594 278.984 85.6094 279.391 85.0781C280.359 83.6562 281.344 83.1406 282.859 83.1406C284.781 83.1406 285.953 84.1406 285.953 85.875V87.0625L281.562 87.3125C277.531 87.5625 275.266 89.3281 275.266 92.2656C275.266 95.25 277.594 97.2656 280.797 97.2656ZM281.984 94.3281C280.297 94.3281 279.156 93.4688 279.156 92.1094C279.156 90.7969 280.234 89.9531 282.109 89.8281L285.953 89.5938V90.8594C285.953 92.8594 284.172 94.3281 281.984 94.3281ZM121.844 135.328C126.109 135.328 128.812 133.281 128.812 130.062C128.812 128.156 127.688 126.828 125.656 126.344V126.219C127.25 125.797 128.234 124.406 128.234 122.734C128.234 119.797 125.875 118.094 121.797 118.094C118.688 118.094 116.375 119.266 115.594 121.125C115.422 121.469 115.359 121.797 115.359 122.188C115.359 123.109 116 123.688 116.969 123.688C117.594 123.688 117.984 123.484 118.438 122.859C119.188 121.734 120.141 121.109 121.797 121.109C123.484 121.109 124.438 121.859 124.438 123.125C124.438 124.453 123.547 125.125 121.766 125.125H120.594C119.797 125.125 119.266 125.641 119.266 126.469C119.266 127.297 119.797 127.812 120.594 127.812H121.844C123.953 127.812 124.953 128.516 124.953 130C124.953 131.406 123.766 132.266 121.844 132.266C120.078 132.266 119.125 131.672 118.188 130.469C117.703 129.891 117.359 129.688 116.734 129.688C115.734 129.688 115.062 130.281 115.062 131.234C115.062 131.578 115.156 131.938 115.312 132.266C116.188 134.125 118.656 135.328 121.844 135.328ZM136.578 135.266C138.719 135.266 140.797 134.156 141.75 132.359H141.828V133.516C141.891 134.672 142.625 135.312 143.688 135.312C144.781 135.312 145.578 134.609 145.578 133.359V123.594C145.578 120.266 142.906 118.094 138.797 118.094C135.625 118.094 133.062 119.312 132.219 121.234C132.047 121.594 131.953 121.938 131.953 122.297C131.953 123.234 132.641 123.859 133.594 123.859C134.25 123.859 134.766 123.609 135.172 123.078C136.141 121.656 137.125 121.141 138.641 121.141C140.562 121.141 141.734 122.141 141.734 123.875V125.062L137.344 125.312C133.312 125.562 131.047 127.328 131.047 130.266C131.047 133.25 133.375 135.266 136.578 135.266ZM137.766 132.328C136.078 132.328 134.938 131.469 134.938 130.109C134.938 128.797 136.016 127.953 137.891 127.828L141.734 127.594V128.859C141.734 130.859 139.953 132.328 137.766 132.328ZM156.266 135.328C159.375 135.328 162.125 133.719 163.047 131.453C163.219 131.078 163.281 130.75 163.281 130.453C163.281 129.484 162.562 128.859 161.641 128.859C160.812 128.859 160.375 129.188 159.859 130.062C159.094 131.391 158.047 132.188 156.312 132.188C153.844 132.188 152.234 130.156 152.234 126.719C152.234 123.328 153.828 121.25 156.328 121.25C157.938 121.25 159.031 121.969 159.875 123.484C160.312 124.266 160.781 124.594 161.578 124.594C162.516 124.594 163.234 124 163.234 123.031C163.234 122.75 163.172 122.422 163.031 122.094C162.234 119.766 159.484 118.094 156.234 118.094C151.391 118.094 148.281 121.453 148.281 126.734C148.281 132.047 151.422 135.328 156.266 135.328ZM171.672 135.312C172.844 135.312 173.609 134.578 173.609 133.406V121.438H177.516C178.328 121.438 178.953 120.875 178.953 119.953C178.953 119.031 178.328 118.438 177.516 118.438H165.844C165.031 118.438 164.406 119.031 164.406 119.953C164.406 120.875 165.031 121.438 165.844 121.438H169.75V133.406C169.75 134.578 170.484 135.312 171.672 135.312ZM183.062 140.891C184.203 140.891 185.016 140.156 185.016 138.844V132.25H185.094C186 134.109 187.875 135.266 190.281 135.266C194.438 135.266 197.094 132 197.094 126.719C197.094 121.422 194.422 118.156 190.219 118.156C187.812 118.156 185.938 119.375 185 121.297H184.922V120.109C184.922 118.828 184.125 118.109 183.016 118.109C181.906 118.109 181.125 118.828 181.125 120.109V138.844C181.125 140.156 181.922 140.891 183.062 140.891ZM189.031 132.078C186.609 132.078 185 129.969 184.984 126.719C185 123.5 186.609 121.359 189.031 121.359C191.547 121.359 193.109 123.453 193.109 126.719C193.109 130 191.547 132.078 189.031 132.078ZM204.797 135.266C206.938 135.266 209.016 134.156 209.969 132.359H210.047V133.516C210.109 134.672 210.844 135.312 211.906 135.312C213 135.312 213.797 134.609 213.797 133.359V123.594C213.797 120.266 211.125 118.094 207.016 118.094C203.844 118.094 201.281 119.312 200.438 121.234C200.266 121.594 200.172 121.938 200.172 122.297C200.172 123.234 200.859 123.859 201.812 123.859C202.469 123.859 202.984 123.609 203.391 123.078C204.359 121.656 205.344 121.141 206.859 121.141C208.781 121.141 209.953 122.141 209.953 123.875V125.062L205.562 125.312C201.531 125.562 199.266 127.328 199.266 130.266C199.266 133.25 201.594 135.266 204.797 135.266ZM205.984 132.328C204.297 132.328 203.156 131.469 203.156 130.109C203.156 128.797 204.234 127.953 206.109 127.828L209.953 127.594V128.859C209.953 130.859 208.172 132.328 205.984 132.328ZM218.484 135.312C219.141 135.312 219.562 135.078 220.047 134.328L223.609 129.062H223.688L227.266 134.391C227.672 135.016 228.094 135.312 228.812 135.312C229.859 135.312 230.672 134.625 230.672 133.594C230.672 133.188 230.531 132.812 230.25 132.406L226.109 126.625L230.234 121.062C230.578 120.609 230.719 120.219 230.719 119.766C230.719 118.797 229.953 118.109 228.859 118.109C228.172 118.109 227.75 118.422 227.25 119.188L223.875 124.25H223.797L220.344 119.156C219.844 118.375 219.453 118.109 218.688 118.109C217.625 118.109 216.812 118.844 216.812 119.797C216.812 120.25 216.953 120.641 217.234 121.016L221.375 126.734L217.172 132.422C216.844 132.891 216.688 133.25 216.688 133.703C216.688 134.641 217.438 135.312 218.484 135.312ZM240.641 135.328C245.5 135.328 248.656 132.094 248.656 126.719C248.656 121.359 245.469 118.094 240.641 118.094C235.812 118.094 232.625 121.375 232.625 126.719C232.625 132.094 235.781 135.328 240.641 135.328ZM240.641 132.25C238.172 132.25 236.578 130.25 236.578 126.719C236.578 123.203 238.188 121.188 240.641 121.188C243.109 121.188 244.703 123.203 244.703 126.719C244.703 130.25 243.109 132.25 240.641 132.25ZM253.469 135H259.438C263.109 135 265.391 133.141 265.391 130.219C265.391 128.141 263.922 126.609 261.75 126.328V126.203C263.391 125.922 264.656 124.375 264.656 122.641C264.656 120.016 262.656 118.438 259.312 118.438H253.469C252.203 118.438 251.453 119.219 251.453 120.531V132.906C251.453 134.219 252.203 135 253.469 135ZM255.266 125.203V121.078H258.406C259.984 121.078 260.859 121.812 260.859 123.109C260.859 124.484 259.922 125.203 258.109 125.203H255.266ZM255.266 132.359V127.672H258.344C260.438 127.672 261.516 128.469 261.516 130.016C261.516 131.531 260.5 132.359 258.656 132.359H255.266ZM273.141 135.266C275.281 135.266 277.359 134.156 278.312 132.359H278.391V133.516C278.453 134.672 279.188 135.312 280.25 135.312C281.344 135.312 282.141 134.609 282.141 133.359V123.594C282.141 120.266 279.469 118.094 275.359 118.094C272.188 118.094 269.625 119.312 268.781 121.234C268.609 121.594 268.516 121.938 268.516 122.297C268.516 123.234 269.203 123.859 270.156 123.859C270.812 123.859 271.328 123.609 271.734 123.078C272.703 121.656 273.688 121.141 275.203 121.141C277.125 121.141 278.297 122.141 278.297 123.875V125.062L273.906 125.312C269.875 125.562 267.609 127.328 267.609 130.266C267.609 133.25 269.938 135.266 273.141 135.266ZM274.328 132.328C272.641 132.328 271.5 131.469 271.5 130.109C271.5 128.797 272.578 127.953 274.453 127.828L278.297 127.594V128.859C278.297 130.859 276.516 132.328 274.328 132.328ZM287.484 135.312C288.672 135.312 289.422 134.531 289.422 133.266V127.969H296.422V133.266C296.422 134.531 297.172 135.312 298.359 135.312C299.547 135.312 300.297 134.531 300.297 133.266V120.172C300.297 118.906 299.547 118.109 298.359 118.109C297.172 118.109 296.422 118.906 296.422 120.156V124.969H289.422V120.172C289.422 118.906 288.672 118.109 287.484 118.109C286.297 118.109 285.547 118.906 285.547 120.156V133.266C285.547 134.531 286.297 135.312 287.484 135.312ZM308.672 135.266C310.812 135.266 312.891 134.156 313.844 132.359H313.922V133.516C313.984 134.672 314.719 135.312 315.781 135.312C316.875 135.312 317.672 134.609 317.672 133.359V123.594C317.672 120.266 315 118.094 310.891 118.094C307.719 118.094 305.156 119.312 304.312 121.234C304.141 121.594 304.047 121.938 304.047 122.297C304.047 123.234 304.734 123.859 305.688 123.859C306.344 123.859 306.859 123.609 307.266 123.078C308.234 121.656 309.219 121.141 310.734 121.141C312.656 121.141 313.828 122.141 313.828 123.875V125.062L309.438 125.312C305.406 125.562 303.141 127.328 303.141 130.266C303.141 133.25 305.469 135.266 308.672 135.266ZM309.859 132.328C308.172 132.328 307.031 131.469 307.031 130.109C307.031 128.797 308.109 127.953 309.984 127.828L313.828 127.594V128.859C313.828 130.859 312.047 132.328 309.859 132.328ZM323.672 131.031C322.656 131.031 322.016 131.516 321.844 132.656L320.938 138.406C320.922 138.469 320.906 138.578 320.906 138.734C320.859 139.578 321.438 140.172 322.359 140.172C323.281 140.172 323.75 139.75 323.969 138.828L325.297 133.531C325.391 133.203 325.422 132.922 325.422 132.625C325.422 131.641 324.719 131.031 323.672 131.031ZM84.6094 173.312C85.7812 173.312 86.5625 172.578 86.5625 171.406V159.438H93.4062V171.406C93.4062 172.578 94.1875 173.312 95.375 173.312C96.5469 173.312 97.2969 172.578 97.2969 171.406V158.531C97.2969 157.219 96.5312 156.438 95.2812 156.438H84.7031C83.4375 156.438 82.6875 157.219 82.6875 158.531V171.406C82.6875 172.578 83.4375 173.312 84.6094 173.312ZM108.125 173.328C112.984 173.328 116.141 170.094 116.141 164.719C116.141 159.359 112.953 156.094 108.125 156.094C103.297 156.094 100.109 159.375 100.109 164.719C100.109 170.094 103.266 173.328 108.125 173.328ZM108.125 170.25C105.656 170.25 104.062 168.25 104.062 164.719C104.062 161.203 105.672 159.188 108.125 159.188C110.594 159.188 112.188 161.203 112.188 164.719C112.188 168.25 110.594 170.25 108.125 170.25ZM119.016 177.656C120.109 177.656 120.781 177 120.781 175.906V173H132.625V175.906C132.625 177 133.312 177.656 134.422 177.656C135.531 177.656 136.188 177 136.188 175.906V171.953C136.188 170.766 135.484 170 134.406 170H133.578V158.531C133.578 157.219 132.828 156.438 131.562 156.438H122.859C121.656 156.438 120.938 157.234 120.859 158.531L120.406 165.078C120.25 167.312 119.812 169.281 118.594 170H118.562C117.719 170.109 117.219 170.75 117.219 171.734V175.906C117.219 177 117.906 177.656 119.016 177.656ZM129.703 170H122.609V169.875C123.375 168.781 123.75 167.156 123.875 165.281L124.297 159.422H129.703V170ZM140.203 173.312C141.375 173.312 142.156 172.578 142.156 171.406V159.438H149V171.406C149 172.578 149.781 173.312 150.969 173.312C152.141 173.312 152.891 172.578 152.891 171.406V158.531C152.891 157.219 152.125 156.438 150.875 156.438H140.297C139.031 156.438 138.281 157.219 138.281 158.531V171.406C138.281 172.578 139.031 173.312 140.203 173.312ZM158.5 173.312C159.578 173.312 160.234 172.938 160.859 171.922L167.391 161.859H167.516V171.328C167.516 172.609 168.312 173.312 169.422 173.312C170.531 173.312 171.328 172.609 171.328 171.328V158.25C171.328 156.938 170.484 156.109 169.172 156.109C168.125 156.109 167.469 156.484 166.828 157.5L160.312 167.5H160.188V158.109C160.188 156.828 159.391 156.109 158.281 156.109C157.172 156.109 156.375 156.828 156.375 158.094V171.172C156.375 172.5 157.109 173.312 158.5 173.312ZM182.094 173.328C185.203 173.328 187.953 171.719 188.875 169.453C189.047 169.078 189.109 168.75 189.109 168.453C189.109 167.484 188.391 166.859 187.469 166.859C186.641 166.859 186.203 167.188 185.688 168.062C184.922 169.391 183.875 170.188 182.141 170.188C179.672 170.188 178.062 168.156 178.062 164.719C178.062 161.328 179.656 159.25 182.156 159.25C183.766 159.25 184.859 159.969 185.703 161.484C186.141 162.266 186.609 162.594 187.406 162.594C188.344 162.594 189.062 162 189.062 161.031C189.062 160.75 189 160.422 188.859 160.094C188.062 157.766 185.312 156.094 182.062 156.094C177.219 156.094 174.109 159.453 174.109 164.734C174.109 170.047 177.25 173.328 182.094 173.328ZM193.859 173.312C195.031 173.312 195.812 172.578 195.812 171.406V165.594H195.938L202.109 172.422C202.578 173 203.078 173.312 203.844 173.312C204.875 173.312 205.641 172.547 205.641 171.516C205.641 171.047 205.484 170.656 205.094 170.203L199.516 164.156L204.797 158.969C205.219 158.547 205.344 158.203 205.344 157.719C205.344 156.812 204.594 156.109 203.609 156.109C203.031 156.109 202.656 156.312 202.156 156.859L195.938 163.344H195.812V158.031C195.812 156.859 195.031 156.109 193.859 156.109C192.688 156.109 191.938 156.844 191.938 158.031V171.406C191.938 172.578 192.688 173.312 193.859 173.312ZM213.406 173.266C215.547 173.266 217.625 172.156 218.578 170.359H218.656V171.516C218.719 172.672 219.453 173.312 220.516 173.312C221.609 173.312 222.406 172.609 222.406 171.359V161.594C222.406 158.266 219.734 156.094 215.625 156.094C212.453 156.094 209.891 157.312 209.047 159.234C208.875 159.594 208.781 159.938 208.781 160.297C208.781 161.234 209.469 161.859 210.422 161.859C211.078 161.859 211.594 161.609 212 161.078C212.969 159.656 213.953 159.141 215.469 159.141C217.391 159.141 218.562 160.141 218.562 161.875V163.062L214.172 163.312C210.141 163.562 207.875 165.328 207.875 168.266C207.875 171.25 210.203 173.266 213.406 173.266ZM214.594 170.328C212.906 170.328 211.766 169.469 211.766 168.109C211.766 166.797 212.844 165.953 214.719 165.828L218.562 165.594V166.859C218.562 168.859 216.781 170.328 214.594 170.328ZM237.094 173.266C239.234 173.266 241.312 172.156 242.266 170.359H242.344V171.516C242.406 172.672 243.141 173.312 244.203 173.312C245.297 173.312 246.094 172.609 246.094 171.359V161.594C246.094 158.266 243.422 156.094 239.312 156.094C236.141 156.094 233.578 157.312 232.734 159.234C232.562 159.594 232.469 159.938 232.469 160.297C232.469 161.234 233.156 161.859 234.109 161.859C234.766 161.859 235.281 161.609 235.688 161.078C236.656 159.656 237.641 159.141 239.156 159.141C241.078 159.141 242.25 160.141 242.25 161.875V163.062L237.859 163.312C233.828 163.562 231.562 165.328 231.562 168.266C231.562 171.25 233.891 173.266 237.094 173.266ZM238.281 170.328C236.594 170.328 235.453 169.469 235.453 168.109C235.453 166.797 236.531 165.953 238.406 165.828L242.25 165.594V166.859C242.25 168.859 240.469 170.328 238.281 170.328ZM251.422 173.312C252.594 173.312 253.375 172.578 253.375 171.406V165.594H253.5L259.672 172.422C260.141 173 260.641 173.312 261.406 173.312C262.438 173.312 263.203 172.547 263.203 171.516C263.203 171.047 263.047 170.656 262.656 170.203L257.078 164.156L262.359 158.969C262.781 158.547 262.906 158.203 262.906 157.719C262.906 156.812 262.156 156.109 261.172 156.109C260.594 156.109 260.219 156.312 259.719 156.859L253.5 163.344H253.375V158.031C253.375 156.859 252.594 156.109 251.422 156.109C250.25 156.109 249.5 156.844 249.5 158.031V171.406C249.5 172.578 250.25 173.312 251.422 173.312ZM271.938 173.312C273.109 173.312 273.875 172.578 273.875 171.406V159.438H277.781C278.594 159.438 279.219 158.875 279.219 157.953C279.219 157.031 278.594 156.438 277.781 156.438H266.109C265.297 156.438 264.672 157.031 264.672 157.953C264.672 158.875 265.297 159.438 266.109 159.438H270.016V171.406C270.016 172.578 270.75 173.312 271.938 173.312ZM283.5 173.312C284.578 173.312 285.234 172.938 285.859 171.922L292.391 161.859H292.516V171.328C292.516 172.609 293.312 173.312 294.422 173.312C295.531 173.312 296.328 172.609 296.328 171.328V158.25C296.328 156.938 295.484 156.109 294.172 156.109C293.125 156.109 292.469 156.484 291.828 157.5L285.312 167.5H285.188V158.109C285.188 156.828 284.391 156.109 283.281 156.109C282.172 156.109 281.375 156.828 281.375 158.094V171.172C281.375 172.5 282.109 173.312 283.5 173.312ZM301.828 173H307.797C311.469 173 313.75 171.141 313.75 168.219C313.75 166.141 312.281 164.609 310.109 164.328V164.203C311.75 163.922 313.016 162.375 313.016 160.641C313.016 158.016 311.016 156.438 307.672 156.438H301.828C300.562 156.438 299.812 157.219 299.812 158.531V170.906C299.812 172.219 300.562 173 301.828 173ZM303.625 163.203V159.078H306.766C308.344 159.078 309.219 159.812 309.219 161.109C309.219 162.484 308.281 163.203 306.469 163.203H303.625ZM303.625 170.359V165.672H306.703C308.797 165.672 309.875 166.469 309.875 168.016C309.875 169.531 308.859 170.359 307.016 170.359H303.625ZM318.562 173.312C319.75 173.312 320.5 172.531 320.5 171.266V165.969H327.5V171.266C327.5 172.531 328.25 173.312 329.438 173.312C330.625 173.312 331.375 172.531 331.375 171.266V158.172C331.375 156.906 330.625 156.109 329.438 156.109C328.25 156.109 327.5 156.906 327.5 158.156V162.969H320.5V158.172C320.5 156.906 319.75 156.109 318.562 156.109C317.375 156.109 316.625 156.906 316.625 158.156V171.266C316.625 172.531 317.375 173.312 318.562 173.312ZM339.75 173.266C341.891 173.266 343.969 172.156 344.922 170.359H345V171.516C345.062 172.672 345.797 173.312 346.859 173.312C347.953 173.312 348.75 172.609 348.75 171.359V161.594C348.75 158.266 346.078 156.094 341.969 156.094C338.797 156.094 336.234 157.312 335.391 159.234C335.219 159.594 335.125 159.938 335.125 160.297C335.125 161.234 335.812 161.859 336.766 161.859C337.422 161.859 337.938 161.609 338.344 161.078C339.312 159.656 340.297 159.141 341.812 159.141C343.734 159.141 344.906 160.141 344.906 161.875V163.062L340.516 163.312C336.484 163.562 334.219 165.328 334.219 168.266C334.219 171.25 336.547 173.266 339.75 173.266ZM340.938 170.328C339.25 170.328 338.109 169.469 338.109 168.109C338.109 166.797 339.188 165.953 341.062 165.828L344.906 165.594V166.859C344.906 168.859 343.125 170.328 340.938 170.328ZM354.734 173.172C355.984 173.172 356.969 172.188 356.969 170.922C356.969 169.672 355.984 168.672 354.734 168.672C353.469 168.672 352.484 169.672 352.484 170.922C352.484 172.188 353.469 173.172 354.734 173.172ZM83.4219 211.266C84.5625 211.266 85.25 210.562 85.25 209.375V195H85.3594L91.3438 209.516C91.7188 210.438 92.3281 210.859 93.25 210.859C94.1875 210.859 94.7656 210.438 95.1562 209.5L101.141 195H101.25V209.375C101.25 210.562 101.922 211.266 103.062 211.266C104.203 211.266 104.875 210.562 104.875 209.375V190.75C104.875 189.141 103.922 188.188 102.312 188.188C100.906 188.188 100.094 188.797 99.5 190.281L93.3125 205.469H93.1875L86.9844 190.281C86.3906 188.781 85.5938 188.188 84.2031 188.188C82.5938 188.188 81.6094 189.156 81.6094 190.75V209.375C81.6094 210.562 82.2812 211.266 83.4219 211.266ZM116.109 211.328C120.969 211.328 124.125 208.094 124.125 202.719C124.125 197.359 120.938 194.094 116.109 194.094C111.281 194.094 108.094 197.375 108.094 202.719C108.094 208.094 111.25 211.328 116.109 211.328ZM116.109 208.25C113.641 208.25 112.047 206.25 112.047 202.719C112.047 199.203 113.656 197.188 116.109 197.188C118.578 197.188 120.172 199.203 120.172 202.719C120.172 206.25 118.578 208.25 116.109 208.25ZM136.984 211.312C138.156 211.312 138.906 210.516 138.906 209.234V203.594H139.031L144.5 210.141C145.203 211.062 145.672 211.312 146.516 211.312C147.516 211.312 148.297 210.625 148.297 209.547C148.297 209.078 148.109 208.641 147.734 208.188L142.625 202.172L147.438 197.109C147.891 196.609 148.047 196.281 148.047 195.734C148.047 194.781 147.281 194.109 146.266 194.109C145.641 194.109 145.156 194.391 144.688 194.953L139.031 201.344H138.906V196.203C138.906 194.922 138.156 194.109 136.984 194.109C135.797 194.109 135.062 194.906 135.062 196.203V201.344H134.953L129.281 194.953C128.828 194.391 128.328 194.109 127.703 194.109C126.688 194.109 125.922 194.781 125.922 195.734C125.922 196.281 126.078 196.609 126.531 197.109L131.359 202.172L126.234 208.188C125.875 208.641 125.672 209.078 125.672 209.547C125.672 210.625 126.453 211.312 127.453 211.312C128.297 211.312 128.766 211.062 129.484 210.141L134.953 203.594H135.062V209.234C135.062 210.516 135.797 211.312 136.984 211.312ZM153.297 211.312C154.484 211.312 155.234 210.531 155.234 209.266V203.969H162.234V209.266C162.234 210.531 162.984 211.312 164.172 211.312C165.359 211.312 166.109 210.531 166.109 209.266V196.172C166.109 194.906 165.359 194.109 164.172 194.109C162.984 194.109 162.234 194.906 162.234 196.156V200.969H155.234V196.172C155.234 194.906 154.484 194.109 153.297 194.109C152.109 194.109 151.359 194.906 151.359 196.156V209.266C151.359 210.531 152.109 211.312 153.297 211.312ZM176.953 211.328C181.812 211.328 184.969 208.094 184.969 202.719C184.969 197.359 181.781 194.094 176.953 194.094C172.125 194.094 168.938 197.375 168.938 202.719C168.938 208.094 172.094 211.328 176.953 211.328ZM176.953 208.25C174.484 208.25 172.891 206.25 172.891 202.719C172.891 199.203 174.5 197.188 176.953 197.188C179.422 197.188 181.016 199.203 181.016 202.719C181.016 206.25 179.422 208.25 176.953 208.25ZM196.109 211.312C197.297 211.312 198.047 210.531 198.047 209.266V203.969H205.047V209.266C205.047 210.531 205.797 211.312 206.984 211.312C208.172 211.312 208.922 210.531 208.922 209.266V196.172C208.922 194.906 208.172 194.109 206.984 194.109C205.797 194.109 205.047 194.906 205.047 196.156V200.969H198.047V196.172C198.047 194.906 197.297 194.109 196.109 194.109C194.922 194.109 194.172 194.906 194.172 196.156V209.266C194.172 210.531 194.922 211.312 196.109 211.312ZM214.547 211.312C215.625 211.312 216.281 210.938 216.906 209.922L223.438 199.859H223.562V209.328C223.562 210.609 224.359 211.312 225.469 211.312C226.578 211.312 227.375 210.609 227.375 209.328V196.25C227.375 194.938 226.531 194.109 225.219 194.109C224.172 194.109 223.516 194.484 222.875 195.5L216.359 205.5H216.234V196.109C216.234 194.828 215.438 194.109 214.328 194.109C213.219 194.109 212.422 194.828 212.422 196.094V209.172C212.422 210.5 213.156 211.312 214.547 211.312ZM244.609 211.328C249.469 211.328 252.625 208.094 252.625 202.719C252.625 197.359 249.438 194.094 244.609 194.094C239.781 194.094 236.594 197.375 236.594 202.719C236.594 208.094 239.75 211.328 244.609 211.328ZM244.609 208.25C242.141 208.25 240.547 206.25 240.547 202.719C240.547 199.203 242.156 197.188 244.609 197.188C247.078 197.188 248.672 199.203 248.672 202.719C248.672 206.25 247.078 208.25 244.609 208.25ZM267.547 205.531C269.406 205.531 270.812 204.922 271.719 204.016H271.906V209.406C271.906 210.578 272.656 211.312 273.844 211.312C275.016 211.312 275.781 210.578 275.781 209.406V196.031C275.781 194.859 275.016 194.109 273.844 194.109C272.656 194.109 271.906 194.844 271.906 196.031V200.844C271.281 201.625 270.125 202.281 268.422 202.281C266.453 202.281 265.344 201.047 265.344 199.047V196.031C265.344 194.859 264.578 194.109 263.406 194.109C262.219 194.109 261.484 194.844 261.484 196.031V199.484C261.484 203.156 263.703 205.531 267.547 205.531ZM286.641 211.328C289.797 211.328 292.266 210.094 293.359 207.984C293.531 207.641 293.625 207.297 293.625 207C293.625 206.062 292.938 205.5 292.062 205.5C291.516 205.5 291.156 205.672 290.75 206.125C289.5 207.719 288.359 208.328 286.609 208.328C284.078 208.328 282.469 206.547 282.469 203.781V203.656H292.234C293.391 203.656 294.047 202.969 294.047 201.812C294.047 197.312 290.953 194.094 286.422 194.094C281.641 194.094 278.594 197.5 278.594 202.781C278.594 208.156 281.578 211.328 286.641 211.328ZM282.5 201.094C282.656 198.719 284.25 197.109 286.438 197.109C288.625 197.109 290.156 198.688 290.234 201.094H282.5ZM298.688 211.312C299.812 211.312 300.531 210.609 300.531 209.5V199.672H300.641L304.734 208.906C305.156 209.875 305.719 210.281 306.688 210.281C307.656 210.281 308.219 209.828 308.641 208.875L312.734 199.672H312.859V209.5C312.859 210.609 313.578 211.312 314.703 211.312C315.844 211.312 316.562 210.609 316.562 209.5V196.828C316.562 195.141 315.547 194.109 313.844 194.109C312.359 194.109 311.594 194.719 310.953 196.344L306.797 206H306.672L302.531 196.344C301.906 194.719 301.109 194.109 299.578 194.109C297.891 194.109 296.828 195.172 296.828 196.844V209.5C296.828 210.609 297.562 211.312 298.688 211.312ZM328.391 211.312C329.578 211.312 330.328 210.531 330.328 209.266V203.969H337.328V209.266C337.328 210.531 338.078 211.312 339.266 211.312C340.453 211.312 341.203 210.531 341.203 209.266V196.172C341.203 194.906 340.453 194.109 339.266 194.109C338.078 194.109 337.328 194.906 337.328 196.156V200.969H330.328V196.172C330.328 194.906 329.578 194.109 328.391 194.109C327.203 194.109 326.453 194.906 326.453 196.156V209.266C326.453 210.531 327.203 211.312 328.391 211.312ZM352.078 211.328C355.234 211.328 357.703 210.094 358.797 207.984C358.969 207.641 359.062 207.297 359.062 207C359.062 206.062 358.375 205.5 357.5 205.5C356.953 205.5 356.594 205.672 356.188 206.125C354.938 207.719 353.797 208.328 352.047 208.328C349.516 208.328 347.906 206.547 347.906 203.781V203.656H357.672C358.828 203.656 359.484 202.969 359.484 201.812C359.484 197.312 356.391 194.094 351.859 194.094C347.078 194.094 344.031 197.5 344.031 202.781C344.031 208.156 347.016 211.328 352.078 211.328ZM347.938 201.094C348.094 198.719 349.688 197.109 351.875 197.109C354.062 197.109 355.594 198.688 355.672 201.094H347.938ZM129 249.312C130.172 249.312 130.953 248.578 130.953 247.406V235.438H137.797V247.406C137.797 248.578 138.578 249.312 139.766 249.312C140.938 249.312 141.688 248.578 141.688 247.406V234.531C141.688 233.219 140.922 232.438 139.672 232.438H129.094C127.828 232.438 127.078 233.219 127.078 234.531V247.406C127.078 248.578 127.828 249.312 129 249.312ZM152.547 249.328C155.703 249.328 158.172 248.094 159.266 245.984C159.438 245.641 159.531 245.297 159.531 245C159.531 244.062 158.844 243.5 157.969 243.5C157.422 243.5 157.062 243.672 156.656 244.125C155.406 245.719 154.266 246.328 152.516 246.328C149.984 246.328 148.375 244.547 148.375 241.781V241.656H158.141C159.297 241.656 159.953 240.969 159.953 239.812C159.953 235.312 156.859 232.094 152.328 232.094C147.547 232.094 144.5 235.5 144.5 240.781C144.5 246.156 147.484 249.328 152.547 249.328ZM148.406 239.094C148.562 236.719 150.156 235.109 152.344 235.109C154.531 235.109 156.062 236.688 156.141 239.094H148.406ZM164.688 254.891C165.828 254.891 166.641 254.156 166.641 252.844V246.25H166.719C167.625 248.109 169.5 249.266 171.906 249.266C176.062 249.266 178.719 246 178.719 240.719C178.719 235.422 176.047 232.156 171.844 232.156C169.438 232.156 167.562 233.375 166.625 235.297H166.547V234.109C166.547 232.828 165.75 232.109 164.641 232.109C163.531 232.109 162.75 232.828 162.75 234.109V252.844C162.75 254.156 163.547 254.891 164.688 254.891ZM170.656 246.078C168.234 246.078 166.625 243.969 166.609 240.719C166.625 237.5 168.234 235.359 170.656 235.359C173.172 235.359 174.734 237.453 174.734 240.719C174.734 244 173.172 246.078 170.656 246.078ZM188.922 249.328C192.078 249.328 194.547 248.094 195.641 245.984C195.812 245.641 195.906 245.297 195.906 245C195.906 244.062 195.219 243.5 194.344 243.5C193.797 243.5 193.438 243.672 193.031 244.125C191.781 245.719 190.641 246.328 188.891 246.328C186.359 246.328 184.75 244.547 184.75 241.781V241.656H194.516C195.672 241.656 196.328 240.969 196.328 239.812C196.328 235.312 193.234 232.094 188.703 232.094C183.922 232.094 180.875 235.5 180.875 240.781C180.875 246.156 183.859 249.328 188.922 249.328ZM184.781 239.094C184.938 236.719 186.531 235.109 188.719 235.109C190.906 235.109 192.438 236.688 192.516 239.094H184.781ZM209.578 249.312C210.75 249.312 211.5 248.516 211.5 247.234V241.594H211.625L217.094 248.141C217.797 249.062 218.266 249.312 219.109 249.312C220.109 249.312 220.891 248.625 220.891 247.547C220.891 247.078 220.703 246.641 220.328 246.188L215.219 240.172L220.031 235.109C220.484 234.609 220.641 234.281 220.641 233.734C220.641 232.781 219.875 232.109 218.859 232.109C218.234 232.109 217.75 232.391 217.281 232.953L211.625 239.344H211.5V234.203C211.5 232.922 210.75 232.109 209.578 232.109C208.391 232.109 207.656 232.906 207.656 234.203V239.344H207.547L201.875 232.953C201.422 232.391 200.922 232.109 200.297 232.109C199.281 232.109 198.516 232.781 198.516 233.734C198.516 234.281 198.672 234.609 199.125 235.109L203.953 240.172L198.828 246.188C198.469 246.641 198.266 247.078 198.266 247.547C198.266 248.625 199.047 249.312 200.047 249.312C200.891 249.312 201.359 249.062 202.078 248.141L207.547 241.594H207.656V247.234C207.656 248.516 208.391 249.312 209.578 249.312ZM226.078 249.312C227.156 249.312 227.812 248.938 228.438 247.922L234.969 237.859H235.094V247.328C235.094 248.609 235.891 249.312 237 249.312C238.109 249.312 238.906 248.609 238.906 247.328V234.25C238.906 232.938 238.062 232.109 236.75 232.109C235.703 232.109 235.047 232.484 234.406 233.5L227.891 243.5H227.766V234.109C227.766 232.828 226.969 232.109 225.859 232.109C224.75 232.109 223.953 232.828 223.953 234.094V247.172C223.953 248.5 224.688 249.312 226.078 249.312ZM244.406 249H250.375C254.047 249 256.328 247.141 256.328 244.219C256.328 242.141 254.859 240.609 252.688 240.328V240.203C254.328 239.922 255.594 238.375 255.594 236.641C255.594 234.016 253.594 232.438 250.25 232.438H244.406C243.141 232.438 242.391 233.219 242.391 234.531V246.906C242.391 248.219 243.141 249 244.406 249ZM246.203 239.203V235.078H249.344C250.922 235.078 251.797 235.812 251.797 237.109C251.797 238.484 250.859 239.203 249.047 239.203H246.203ZM246.203 246.359V241.672H249.281C251.375 241.672 252.453 242.469 252.453 244.016C252.453 245.531 251.438 246.359 249.594 246.359H246.203ZM264.078 249.266C266.219 249.266 268.297 248.156 269.25 246.359H269.328V247.516C269.391 248.672 270.125 249.312 271.188 249.312C272.281 249.312 273.078 248.609 273.078 247.359V237.594C273.078 234.266 270.406 232.094 266.297 232.094C263.125 232.094 260.562 233.312 259.719 235.234C259.547 235.594 259.453 235.938 259.453 236.297C259.453 237.234 260.141 237.859 261.094 237.859C261.75 237.859 262.266 237.609 262.672 237.078C263.641 235.656 264.625 235.141 266.141 235.141C268.062 235.141 269.234 236.141 269.234 237.875V239.062L264.844 239.312C260.812 239.562 258.547 241.328 258.547 244.266C258.547 247.25 260.875 249.266 264.078 249.266ZM265.266 246.328C263.578 246.328 262.438 245.469 262.438 244.109C262.438 242.797 263.516 241.953 265.391 241.828L269.234 241.594V242.859C269.234 244.859 267.453 246.328 265.266 246.328ZM282.203 249.312C283.375 249.312 284.141 248.578 284.141 247.406V235.438H288.047C288.859 235.438 289.484 234.875 289.484 233.953C289.484 233.031 288.859 232.438 288.047 232.438H276.375C275.562 232.438 274.938 233.031 274.938 233.953C274.938 234.875 275.562 235.438 276.375 235.438H280.281V247.406C280.281 248.578 281.016 249.312 282.203 249.312ZM293.656 249H298.719C302.578 249 305.062 246.75 305.062 243.203C305.062 239.656 302.578 237.406 298.719 237.406H295.516V234.031C295.516 232.859 294.734 232.109 293.562 232.109C292.391 232.109 291.641 232.844 291.641 234.031V246.906C291.641 248.219 292.391 249 293.656 249ZM295.516 246.016V240.359H298.219C300.016 240.359 301.203 241.484 301.203 243.188C301.203 244.875 300.031 246.016 298.219 246.016H295.516ZM310.344 249.172C311.594 249.172 312.578 248.188 312.578 246.922C312.578 245.672 311.594 244.672 310.344 244.672C309.078 244.672 308.094 245.672 308.094 246.922C308.094 248.188 309.078 249.172 310.344 249.172Z" fill="#151515"/>
<path d="M387.029 243.173C377.092 258.735 360.117 268.022 341.628 268.022C336.295 268.022 331.012 267.234 325.928 265.684L323.632 264.981L321.939 267.896L321.399 268.836C311.461 284.406 294.472 293.701 275.967 293.701C272.739 293.701 269.498 293.409 266.331 292.835L264.676 292.53L263.542 293.775C253.374 304.876 238.882 311.244 223.781 311.244C213.538 311.244 203.536 308.312 194.859 302.749C187.406 297.979 181.193 291.384 176.886 283.678L175.152 280.567L172.352 282.763C162.895 290.176 151.056 294.259 139.021 294.259C128.781 294.259 118.787 291.327 110.118 285.772C94.2786 275.627 85.0098 258.271 85.327 239.347L85.3794 236.154L82.1907 236.248C81.6469 236.264 81.1044 236.272 80.557 236.272C70.2778 236.272 60.2602 233.332 51.5783 227.774C31.7063 215.05 22.3312 190.294 28.7828 167.571L29.2982 165.758L27.9073 164.485C16.0257 153.616 10.0069 138.322 10.4671 123C-2.44398 144.897 1.70429 173.081 20.4627 190.241L21.8552 191.51L21.3399 193.328C14.8866 216.046 24.2618 240.806 44.1353 253.53C52.8157 259.089 62.8333 262.025 73.1124 262.025C73.6598 262.025 74.204 262.021 74.7461 262.004L77.9348 261.903L77.884 265.103C77.5669 284.024 86.834 301.379 102.673 311.528C111.343 317.079 121.336 320.015 131.576 320.015C143.613 320.015 155.45 315.932 164.909 308.515L167.709 306.319L169.441 309.43C173.748 317.14 179.963 323.731 187.414 328.505C196.092 334.064 206.093 337 216.338 337C231.439 337 245.931 330.632 256.099 319.527L257.233 318.287L258.886 318.588C262.056 319.165 265.295 319.458 268.523 319.458C287.027 319.458 304.017 310.158 313.955 294.592L314.494 293.653L316.188 290.733L318.484 291.436C323.568 292.99 328.852 293.775 334.185 293.775C352.674 293.775 369.648 284.487 379.586 268.929C384.881 260.634 387.724 251.131 388 241.461C387.667 242.026 387.387 242.616 387.029 243.173Z" fill="#E9E8E7"/>
<path d="M308.922 0C291.435 0 274.218 6.45682 260.95 18.533C259.597 17.484 258.203 16.4675 256.733 15.5283C247.234 9.44949 236.617 6.55035 226.124 6.55035C211.312 6.55035 196.746 12.3242 185.904 23.0952C172.989 24.124 160.571 29.5196 150.938 38.7902C143.635 35.6146 135.919 34.0777 128.271 34.0777C109.503 34.0777 91.1424 43.3279 80.2755 60.324C73.358 71.1397 70.6156 83.403 71.5128 95.2881C66.7361 94.0276 61.8659 93.4137 57.0274 93.4137C37.7519 93.4137 18.9532 103.18 8.24078 120.876C-6.07998 144.544 -1.15692 174.475 18.5182 192.451C11.8154 216.034 20.9208 242.171 42.6273 256.056C52.136 262.139 62.768 265.03 73.2771 265.03C73.8519 265.03 74.43 265.022 75.0065 265.006C74.6857 284.132 83.9342 302.983 101.229 314.05C110.722 320.121 121.325 323.016 131.806 323.016C144.453 323.016 156.923 318.8 167.05 310.871C171.485 318.8 177.871 325.785 186.059 331.026C195.555 337.101 206.169 340 216.658 340C232.322 340 247.706 333.539 258.708 321.54C262.089 322.154 265.503 322.459 268.898 322.459C287.689 322.459 306.078 313.188 316.954 296.18C317.345 295.57 317.656 294.928 318.021 294.306C323.468 295.969 329.066 296.778 334.627 296.778C353.402 296.778 371.773 287.527 382.644 270.527C391.901 256.056 393.75 239.003 389.258 223.723C403.58 216.55 416.256 205.641 425.512 191.162C452.851 148.407 440.363 91.5717 397.612 64.2234C391.323 60.2021 384.709 57.1444 377.949 54.8146C373.859 37.4403 363.305 21.5705 347.082 11.1898C335.235 3.61472 322.004 0 308.922 0ZM308.922 6.09909C321.275 6.09909 333.334 9.63651 343.796 16.3293C358.086 25.4698 368.111 39.636 372.017 56.2133L372.786 59.4865L375.965 60.5802C382.628 62.8776 388.807 65.8335 394.328 69.3629C434.175 94.853 445.859 148.021 420.378 187.876C412.101 200.819 400.397 211.325 386.53 218.266L381.969 220.551L383.408 225.439C387.575 239.625 385.425 254.861 377.51 267.242C368.123 281.92 352.093 290.679 334.627 290.679C329.59 290.679 324.604 289.939 319.801 288.471L315.203 287.068L312.765 291.215L312.249 292.134L311.817 292.895C302.421 307.585 286.377 316.36 268.898 316.36C265.852 316.36 262.789 316.083 259.799 315.539L256.489 314.937L254.214 317.417C244.608 327.891 230.92 333.901 216.658 333.901C206.985 333.901 197.54 331.128 189.344 325.887C182.307 321.386 176.44 315.165 172.375 307.894L168.899 301.677L163.293 306.069C154.359 313.062 143.176 316.917 131.806 316.917C122.14 316.917 112.703 314.148 104.516 308.911C89.5573 299.339 80.806 282.965 81.1044 265.107L81.2109 258.715L74.8239 258.911C74.3077 258.927 73.7934 258.931 73.2771 258.931C63.5729 258.931 54.1101 256.162 45.9145 250.917C27.1443 238.91 18.291 215.554 24.3844 194.122L25.415 190.495L22.6311 187.95C4.77879 171.637 0.921653 144.756 13.4573 124.035C22.7534 108.678 39.0414 99.5128 57.0274 99.5128C61.3975 99.5128 65.7486 100.078 69.9582 101.184L78.2396 103.371L77.5948 94.8287C76.755 83.7161 79.4576 72.9207 85.4128 63.6094C94.7962 48.935 110.818 40.1768 128.271 40.1768C135.281 40.1768 142.088 41.5917 148.507 44.3851L152.236 46.0034L155.166 43.1856C163.585 35.086 174.672 30.1133 186.39 29.174L188.617 28.9951L190.201 27.4215C199.653 18.033 212.746 12.6494 226.124 12.6494C235.802 12.6494 245.25 15.4184 253.447 20.6636C254.597 21.3996 255.796 22.2535 257.218 23.3554L261.268 26.4944L265.055 23.0464C277.061 12.1168 292.639 6.09909 308.922 6.09909Z" fill="#333333"/>
<path d="M445.466 272C434.187 272 424.605 263.551 423.182 252.34C421.614 240.037 430.35 228.75 442.657 227.185C443.62 227.06 444.58 227 445.531 227C456.81 227 466.388 235.453 467.815 246.66C468.577 252.622 466.965 258.52 463.284 263.272C459.604 268.025 454.295 271.061 448.333 271.819C447.369 271.944 446.414 272 445.466 272Z" fill="white"/>
<path d="M445.031 224C443.934 224 442.83 224.074 441.717 224.214C427.476 226.024 417.4 239.042 419.21 253.283C420.882 266.411 432.075 276 444.965 276C446.057 276 447.166 275.934 448.279 275.791C462.524 273.98 472.6 260.962 470.79 246.721C469.118 233.593 457.925 224 445.031 224ZM445.031 230.16C454.976 230.16 463.423 237.613 464.679 247.497C466.059 258.346 458.352 268.3 447.499 269.68C446.657 269.787 445.807 269.84 444.965 269.84C435.024 269.84 426.577 262.387 425.321 252.507C424.651 247.251 426.072 242.048 429.316 237.855C432.56 233.667 437.237 230.989 442.493 230.324C443.335 230.217 444.189 230.16 445.031 230.16Z" fill="#333333"/>
<path d="M474.475 310C468.215 310 462.892 305.304 462.101 299.075C461.232 292.239 466.083 285.969 472.92 285.101C473.454 285.032 473.987 285 474.516 285C480.784 285 486.103 289.696 486.899 295.925C487.319 299.236 486.426 302.515 484.382 305.151C482.335 307.792 479.386 309.479 476.075 309.895C475.537 309.968 475.004 310 474.475 310Z" fill="white"/>
<path d="M474.516 282C473.863 282 473.202 282.04 472.537 282.125C464.044 283.205 458.045 290.967 459.126 299.455C460.121 307.281 466.785 313 474.476 313C475.129 313 475.79 312.96 476.451 312.875C484.948 311.795 490.955 304.037 489.874 295.545C488.879 287.723 482.207 282 474.516 282ZM474.516 288.045C479.253 288.045 483.276 291.596 483.872 296.307C484.195 298.814 483.517 301.292 481.974 303.287C480.426 305.282 478.197 306.556 475.689 306.878C475.282 306.931 474.875 306.955 474.476 306.955C469.743 306.955 465.721 303.404 465.124 298.693C464.805 296.186 465.479 293.708 467.027 291.713C468.57 289.714 470.8 288.44 473.303 288.122C473.71 288.069 474.117 288.045 474.516 288.045Z" fill="#333333"/>
<path d="M485.014 325C484.596 325 484.169 325.024 483.743 325.081C478.263 325.775 474.386 330.784 475.08 336.26C475.726 341.31 480.029 345 484.989 345C485.412 345 485.838 344.976 486.264 344.919C491.74 344.225 495.617 339.216 494.919 333.74C494.277 328.69 489.97 325 485.014 325ZM485.014 331.089C486.97 331.089 488.631 332.558 488.878 334.507C489.15 336.646 487.636 338.607 485.497 338.879L484.989 338.911C483.033 338.911 481.372 337.442 481.121 335.493C480.849 333.354 482.371 331.393 484.51 331.117L485.014 331.089Z" fill="#333333"/>
</svg>
