<svg width="655" height="698" viewBox="0 0 655 698" fill="none" xmlns="http://www.w3.org/2000/svg">
<g filter="url(#filter0_f)">
<ellipse cx="415.112" cy="667.065" rx="145.039" ry="10.9357" fill="#EAEAEA"/>
</g>
<path d="M326.88 509.839C326.88 509.839 318.66 535.735 290.451 546.367" stroke="#333333" stroke-width="8" stroke-linecap="round" stroke-linejoin="round"/>
<path d="M350.675 627.526L378.368 627.526C378.368 627.526 375.074 584.666 387.012 539.282C396.248 504.175 399.207 480.499 399.207 480.499" stroke="#333333" stroke-width="8" stroke-linecap="round" stroke-linejoin="round"/>
<path d="M491.113 629.503L467.377 629.503C467.377 629.503 473.311 572.208 456.775 523.016C447.987 496.873 427.967 469.441 427.967 469.441" stroke="#333333" stroke-width="8" stroke-linecap="round" stroke-linejoin="round"/>
<path d="M526.001 509.999C526.001 509.999 536.414 530.253 546.001 542.204C562.03 562.187 566 563.999 566 563.999" stroke="#333333" stroke-width="8" stroke-linecap="round" stroke-linejoin="round"/>
<path fill-rule="evenodd" clip-rule="evenodd" d="M487.255 227.592C485.308 225.376 482.308 224.397 479.428 225.035L330.199 258.12C325.454 259.172 322.128 263.451 322.28 268.308L329.774 508.888C329.951 514.571 334.777 518.991 340.453 518.67L483.676 510.57C489.415 510.245 493.73 505.208 493.17 499.487L482.967 395.35C482.967 395.35 503.343 356.125 504.95 341.839C506.2 330.733 526.17 303.517 534.998 291.951C537.375 288.838 537.258 284.469 534.671 281.527L487.255 227.592Z" fill="#65D36E" stroke="#333333" stroke-width="8" stroke-linecap="round" stroke-linejoin="round"/>
<path fill-rule="evenodd" clip-rule="evenodd" d="M499.4 293.875C497.743 294.289 496.071 293.255 495.702 291.587L481.317 226.597C481.207 226.101 480.747 225.764 480.241 225.808L332.622 238.74C321.889 239.68 313.83 248.952 314.394 259.711L327.921 517.654C328.479 528.278 337.255 536.607 347.894 536.607H503.477C514.054 536.607 522.802 528.372 523.44 517.814L537.471 285.721C537.513 285.039 536.88 284.513 536.217 284.679L499.4 293.875Z" fill="white" stroke="#333333" stroke-width="8" stroke-linecap="round" stroke-linejoin="round"/>
<path d="M432.791 489.527C432.791 489.527 427.574 495.031 421.992 494.997C416.41 494.962 411.323 489.527 411.323 489.527" stroke="#333333" stroke-width="8" stroke-linecap="round" stroke-linejoin="round"/>
<ellipse rx="34.2864" ry="31.649" transform="matrix(-1 0 0 1 382.979 425.762)" fill="white" stroke="#333333" stroke-width="8" stroke-linecap="round" stroke-linejoin="round"/>
<ellipse rx="19.7806" ry="18.4619" transform="matrix(-1 0 0 1 379.905 427.013)" fill="#333333"/>
<ellipse rx="34.2864" ry="31.649" transform="matrix(-1 0 0 1 467.376 425.762)" fill="white" stroke="#333333" stroke-width="8" stroke-linecap="round" stroke-linejoin="round"/>
<ellipse rx="19.1213" ry="18.4619" transform="matrix(-1 0 0 1 463.576 426.946)" fill="#333333"/>
<path d="M406.915 311.988C371.809 311.709 343.669 303.612 313.857 292.722C308.168 290.644 290.726 282.655 285.973 280.356C270.803 273.02 272.819 270.999 269 267.314C269 258.937 274.071 240.453 294.354 233.528C314.637 226.604 342.183 222.825 353.421 221.801C353.981 220.039 354.692 217.911 355.544 215.486C360.764 200.618 371.228 174.606 384.068 153.672C388.526 127.314 406.729 87.5901 415.273 71.0232C413.787 67.0211 416.555 53.4324 439.513 31.095C462.471 8.75752 495.329 3.73159 508.888 4.01081C507.64 9.01335 504.047 22.3527 498.571 40.3904C497.527 43.8307 496.414 47.4419 495.236 51.1987C486.042 80.5166 477.405 85.8218 483.256 114.023C489.106 142.224 491.893 158.419 488.828 173.496C486.376 185.559 492.078 210.725 495.236 221.801C499.973 226.268 557.46 248.141 583 255.586C576.09 264.745 566.19 269.454 562.104 270.664C561.001 271.023 559.642 271.501 558.071 272.092C549.055 275.488 533.066 282.64 518.64 292.722C497.465 307.521 442.02 312.268 406.915 311.988Z" fill="#D5D5D5"/>
<path d="M495.236 221.801C499.973 226.268 557.46 248.141 583 255.586C576.09 264.745 566.19 269.454 562.104 270.664C561.001 271.023 559.642 271.501 558.071 272.092M495.236 221.801C493.286 224.035 486.543 226.157 439.513 233.528C392.705 231.965 362.615 225.059 353.421 221.801M495.236 221.801C492.078 210.725 486.376 185.559 488.828 173.496M495.236 221.801C486.506 220.684 464.978 215.547 448.707 203.931M353.421 221.801C342.183 222.825 314.637 226.604 294.354 233.528C274.071 240.453 269 258.937 269 267.314C272.819 270.999 270.803 273.02 285.973 280.356C290.726 282.654 308.168 290.644 313.857 292.722C343.669 303.612 371.809 311.709 406.915 311.988C442.02 312.268 497.465 307.521 518.64 292.722C533.066 282.64 549.055 275.488 558.071 272.092M353.421 221.801C353.981 220.039 354.692 217.911 355.544 215.486C360.764 200.618 371.228 174.606 384.068 153.672C388.526 127.314 406.729 87.5901 415.273 71.0232C413.787 67.0211 416.555 53.4324 439.513 31.095C462.471 8.75752 495.329 3.73159 508.888 4.01081C507.64 9.01335 504.047 22.3527 498.571 40.3904M488.828 173.496C491.893 158.419 489.106 142.224 483.256 114.023C477.405 85.8218 486.042 80.5166 495.236 51.1987C496.414 47.4419 497.527 43.8307 498.571 40.3904M488.828 173.496C488.828 125.471 455.951 85.1703 439.513 71.0232M498.571 40.3904C499.133 34.9406 498.666 22.9863 492.301 18.7671M558.071 272.092C549.054 265.698 525.398 250.382 502.909 240.274" stroke="#333333" stroke-width="8" stroke-linecap="round" stroke-linejoin="round"/>
<path d="M549 656L618.888 353M626.5 320L620.388 346.5M620.388 346.5C604 337.5 598.8 313.5 616 303.5M620.388 346.5L618.888 353M618.888 353C637.5 355 663.5 327 643.5 305" stroke="#333333" stroke-width="8" stroke-linecap="round" stroke-linejoin="round"/>
<path d="M615 324L621.5 341L636 328L640 270L615 324Z" fill="#65D36E"/>
<path d="M622.5 325L621.5 341L636 328L640 270L622.5 325Z" fill="#41BA75"/>
<defs>
<filter id="filter0_f" x="250.072" y="636.129" width="330.079" height="61.8713" filterUnits="userSpaceOnUse" color-interpolation-filters="sRGB">
<feFlood flood-opacity="0" result="BackgroundImageFix"/>
<feBlend mode="normal" in="SourceGraphic" in2="BackgroundImageFix" result="shape"/>
<feGaussianBlur stdDeviation="10" result="effect1_foregroundBlur"/>
</filter>
</defs>
</svg>
