<svg width="47" height="46" viewBox="0 0 47 46" fill="none" xmlns="http://www.w3.org/2000/svg">
<path d="M46.5 23.0005C46.5 29.144 44.1075 34.9201 39.7635 39.264H7.23648C2.89254 34.9201 0.5 29.144 0.5 23.0005C0.5 16.857 2.89254 11.0809 7.23648 6.737H39.7635C44.1075 11.0809 46.5 16.857 46.5 23.0005Z" fill="#40C64B"/>
<path d="M46.5 23.0005C46.5 29.144 44.1075 34.9201 39.7635 39.264H23.5V6.737H39.7635C44.1075 11.0809 46.5 16.857 46.5 23.0005Z" fill="#49A01F"/>
<path d="M39.7641 6.73648L33.157 13.3436H13.8442L7.23706 6.73648C11.581 2.39254 17.3571 0 23.5006 0C29.6441 0 35.4201 2.39254 39.7641 6.73648Z" fill="#65D36E"/>
<path d="M39.7641 39.2641C35.4201 43.608 29.6441 46.0006 23.5006 46.0006C17.3571 46.0006 11.581 43.608 7.23706 39.2641L13.8442 32.657H33.157L39.7641 39.2641Z" fill="#65D36E"/>
<path d="M33.1564 32.657L39.7635 39.2641C35.4196 43.608 29.6435 46.0006 23.5 46.0006V32.657H33.1564Z" fill="#40C64B"/>
<path d="M33.1564 13.3436H23.5V0C29.6435 0 35.4196 2.39254 39.7635 6.73648L33.1564 13.3436Z" fill="#40C64B"/>
<path d="M23.5 38.0039C31.7864 38.0039 38.5039 31.2864 38.5039 23C38.5039 14.7136 31.7864 7.99609 23.5 7.99609C15.2136 7.99609 8.49609 14.7136 8.49609 23C8.49609 31.2864 15.2136 38.0039 23.5 38.0039Z" fill="#49A01F"/>
<path d="M38.5039 23C38.5039 31.2728 31.7728 38.0039 23.5 38.0039V7.99609C31.7728 7.99609 38.5039 14.7272 38.5039 23Z" fill="#65D36E"/>
<path d="M17.5065 31H12.7765V15.6H17.5065V31ZM24.4392 31H19.9072V15.6H23.9332L29.8292 23.036V15.6H34.3172V31H30.4232L24.4392 23.52V31Z" fill="white"/>
</svg>
