<svg width="433" height="455" viewBox="0 0 433 455" fill="none" xmlns="http://www.w3.org/2000/svg">
<path d="M4.84961 299.565C4.84961 259.8 21.0143 223.187 29.0966 209.852C52.1312 234.099 81.2276 240.16 105.475 230.462C111.536 247.434 140.633 247.839 150.332 247.434L155.181 335.936L155.194 336.151C155.604 343.085 156.395 356.444 133.359 369.882C110.082 383.46 107.899 379.58 56.9806 388.067C20.6102 348.059 4.84961 349.272 4.84961 299.565Z" fill="#D0D0D0"/>
<path fill-rule="evenodd" clip-rule="evenodd" d="M28.5763 205.032C30.079 204.87 31.5713 205.418 32.6122 206.513C54.4581 229.509 81.499 234.83 103.673 225.961C104.897 225.471 106.267 225.501 107.468 226.043C108.669 226.584 109.598 227.591 110.041 228.832C112.192 234.855 118.749 238.654 127.648 240.745C136.265 242.77 145.457 242.786 150.129 242.591C152.781 242.481 155.028 244.521 155.173 247.171L160.022 335.652L160.023 335.672L160.034 335.866L160.034 335.867L160.04 335.962C160.252 339.536 160.611 345.588 157.496 352.558C154.349 359.601 147.95 366.986 135.802 374.072C123.797 381.075 116.901 383.745 106.404 385.656C102.062 386.447 97.0728 387.115 90.8991 387.942C89.8887 388.078 88.8465 388.217 87.7703 388.362C80.0669 389.401 70.4381 390.742 57.7777 392.852C56.1523 393.123 54.5006 392.55 53.3922 391.331C44.5489 381.603 36.9436 374.348 30.4133 368.118L30.1437 367.861C23.6168 361.634 17.9543 356.226 13.4481 350.432C4.0553 338.356 0 325.019 0 299.567C0 258.683 16.5455 221.206 24.9492 207.34C25.7325 206.047 27.0737 205.194 28.5763 205.032ZM30.2249 217.778C22.0021 233.586 9.6988 265.447 9.6988 299.567C9.6988 323.822 13.5238 334.732 21.1039 344.478C25.0841 349.595 30.1812 354.492 36.8386 360.843L37.1479 361.138C43.247 366.957 50.4631 373.841 58.782 382.856C70.3128 380.967 79.2541 379.724 86.4746 378.751C87.5704 378.603 88.6231 378.462 89.6364 378.326C95.8409 377.494 100.568 376.861 104.666 376.115C113.809 374.45 119.643 372.27 130.915 365.695C141.804 359.343 146.528 353.33 148.641 348.601C150.76 343.86 150.552 339.812 150.353 336.439L150.353 336.439L150.34 336.224L150.339 336.203L145.745 252.368C140.301 252.346 132.773 251.912 125.43 250.187C117.235 248.261 107.994 244.411 103.039 236.498C79.3469 244.172 52.3673 238.247 30.2249 217.778ZM78.3835 294.783C81.0257 295.221 82.8125 297.718 82.3745 300.36C80.7324 310.265 76.2398 316.216 70.2057 318.769C64.5262 321.172 58.6553 320.043 55.0194 318.435C52.5699 317.352 51.4622 314.489 52.5452 312.039C53.6283 309.59 56.4919 308.482 58.9414 309.565C60.9632 310.459 63.9425 310.888 66.426 309.837C68.5551 308.936 71.5387 306.42 72.8063 298.774C73.2443 296.132 75.7413 294.345 78.3835 294.783Z" fill="#333333"/>
<path d="M367.342 18.3026C303.33 16.3628 218.627 8.60379 184.278 4.96674C175.549 4.06953 169.325 8.63407 167.305 11.0285C165.284 13.4532 155.908 23.152 134.571 42.5496C113.234 61.9472 110.324 74.0707 111.536 77.7077C116.386 153.358 122.448 222.381 124.872 247.437C126.085 272.492 128.267 326.967 127.297 344.425C126.327 361.882 143.866 367.863 152.756 368.672C288.54 365.035 339.458 356.548 356.431 356.548C370.009 356.548 375.829 345.233 377.041 339.575C379.951 307.569 383.103 233.293 384.315 200.155C386.74 156.51 391.589 64.6143 391.589 46.1866C391.589 27.7589 375.425 19.9191 367.342 18.3026Z" fill="white"/>
<path fill-rule="evenodd" clip-rule="evenodd" d="M171.018 14.1465C168.729 16.8867 159.107 26.7963 137.833 46.1367C127.429 55.5947 121.76 63.0651 118.849 68.3705C117.394 71.0223 116.671 73.0547 116.356 74.4633C116.077 75.7118 116.168 76.2396 116.16 76.2412C116.159 76.2412 116.159 76.2404 116.158 76.2387C116.277 76.6142 116.35 77.003 116.376 77.3963C121.221 152.989 127.279 221.96 129.699 246.968C129.706 247.046 129.712 247.123 129.716 247.201C130.922 272.132 133.126 326.919 132.139 344.692C131.765 351.419 134.818 355.801 139.118 358.823C143.52 361.918 149.09 363.421 152.925 363.815C220.565 361.998 267.063 358.977 298.756 356.411C311.753 355.359 322.259 354.384 330.745 353.596C332.627 353.421 334.409 353.256 336.097 353.101C345.302 352.255 351.917 351.698 356.431 351.698C361.704 351.698 365.318 349.559 367.83 346.871C370.349 344.175 371.737 340.922 372.24 338.818C375.128 306.796 378.259 233.04 379.469 199.977C379.47 199.946 379.471 199.915 379.473 199.885C381.904 156.137 386.74 64.4382 386.74 46.1854C386.74 38.5804 383.471 33.2733 379.285 29.5725C375.13 25.8994 370.112 23.8758 366.765 23.1355C302.629 21.1688 218.095 13.4226 183.775 9.78883C176.977 9.09286 172.241 12.705 171.018 14.1465ZM163.598 7.8998C166.427 4.54728 174.13 -0.95237 184.773 0.141576L184.788 0.143094C219.096 3.77572 303.658 11.52 367.489 13.4542C367.759 13.4624 368.028 13.4932 368.293 13.5462C373.037 14.4949 379.918 17.1876 385.708 22.3059C391.625 27.5361 396.439 35.3627 396.439 46.1854C396.439 64.7815 391.579 156.816 389.16 200.376C387.947 233.501 384.793 307.865 381.87 340.013C381.853 340.207 381.823 340.4 381.783 340.59C381.018 344.159 378.898 349.231 374.917 353.493C370.821 357.877 364.736 361.396 356.431 361.396C352.459 361.396 346.344 361.899 336.984 362.759C335.305 362.913 333.527 363.078 331.647 363.253C323.161 364.04 312.593 365.022 299.539 366.078C267.63 368.661 220.867 371.697 152.886 373.518C152.696 373.523 152.506 373.517 152.317 373.5C147.267 373.041 139.783 371.146 133.54 366.758C127.09 362.224 121.859 354.886 122.455 344.154C123.406 327.038 121.253 273.015 120.034 247.786C117.603 222.643 111.569 153.909 106.728 78.5114C106.275 76.607 106.418 74.4643 106.891 72.3496C107.447 69.856 108.558 66.9633 110.346 63.7048C113.921 57.1898 120.375 48.8997 131.309 38.9601C152.671 19.5399 161.804 10.0527 163.579 7.92276L163.598 7.89974L163.598 7.8998Z" fill="#333333"/>
<path d="M134.571 42.5492C113.234 61.9468 110.324 74.0703 111.536 77.7073C119.215 79.7279 137.723 84.254 150.332 86.1938C166.092 88.6185 163.668 77.7073 164.88 77.7073C165.85 77.7073 173.366 41.3369 177.003 23.1516C177.812 18.3022 178.943 8.11846 177.003 6.1787C175.064 4.23894 169.729 8.6034 167.305 11.0281C165.284 13.4528 155.908 23.1516 134.571 42.5492Z" fill="#65D36E"/>
<path fill-rule="evenodd" clip-rule="evenodd" d="M170.871 14.3181C168.339 17.2859 158.681 27.1821 137.833 46.1349C127.429 55.5929 121.76 63.0633 118.849 68.3687C117.555 70.726 116.84 72.5938 116.477 73.9691C125.329 76.2061 140.418 79.7596 151.069 81.3982C154.535 81.9314 156.493 81.6462 157.524 81.2963C158.43 80.9886 158.759 80.5909 158.949 80.2871C159.215 79.8609 159.387 79.3013 159.549 78.456C159.557 78.4178 159.567 78.3613 159.58 78.2912C159.64 77.9609 159.755 77.3282 159.876 76.8866C159.949 76.6198 160.155 75.8891 160.65 75.1437C160.704 75.0629 160.765 74.977 160.833 74.8876C160.848 74.8372 160.864 74.7839 160.881 74.7277C161.151 73.8171 161.515 72.4204 161.96 70.5923C162.842 66.9607 163.976 61.8953 165.201 56.2225C167.642 44.9223 170.416 31.3553 172.232 22.2761C172.612 19.9793 173.059 16.4722 173.189 13.3696C173.205 12.9829 173.215 12.6121 173.221 12.2589C172.354 12.9357 171.519 13.6817 170.871 14.3181ZM172.979 8.75536C172.98 8.75778 172.981 8.76041 172.982 8.76325C172.967 8.72513 172.967 8.71926 172.979 8.75536ZM173.991 1.03342C175.578 0.692383 178.287 0.602158 180.432 2.74707C181.449 3.76341 181.945 4.95958 182.208 5.77152C182.491 6.64899 182.652 7.56101 182.751 8.3952C182.949 10.0657 182.954 11.9622 182.879 13.7733C182.727 17.4256 182.212 21.3918 181.787 23.9463C181.778 23.9977 181.769 24.049 181.758 24.1001C179.937 33.206 177.144 46.8713 174.681 58.2702C173.452 63.9632 172.297 69.1269 171.384 72.8831C170.93 74.7489 170.52 76.3357 170.179 77.4852C170.015 78.0386 169.831 78.6158 169.633 79.1056C169.546 79.3223 169.376 79.7251 169.117 80.1452C169.11 80.1572 169.102 80.1701 169.093 80.1837C169.085 80.2253 169.079 80.2612 169.074 80.2875C168.857 81.4122 168.423 83.4288 167.174 85.4274C165.848 87.5482 163.752 89.4238 160.643 90.4799C157.657 91.4939 154.009 91.6634 149.594 90.9842C136.722 89.0039 118.009 84.4227 110.302 82.3945C108.719 81.9779 107.453 80.791 106.936 79.2383C106.243 77.1617 106.357 74.7368 106.891 72.3478C107.447 69.8542 108.558 66.9615 110.346 63.703C113.921 57.188 120.375 48.8979 131.309 38.9583C152.671 19.5381 161.804 10.0509 163.579 7.92096C163.673 7.80838 163.772 7.7001 163.875 7.59647C165.242 6.22977 167.483 4.25062 169.802 2.82954C170.929 2.13865 172.398 1.3759 173.991 1.03342Z" fill="#333333"/>
<path fill-rule="evenodd" clip-rule="evenodd" d="M239.711 314.976C241.913 313.451 244.934 314.001 246.458 316.203C247.81 318.156 250.308 320.319 253.18 320.912C255.618 321.415 259.435 321.017 264.367 315.674C266.184 313.706 269.252 313.583 271.22 315.4C273.188 317.216 273.31 320.284 271.494 322.252C264.787 329.518 257.693 331.746 251.22 330.411C245.181 329.165 240.769 325.024 238.484 321.723C236.959 319.521 237.509 316.5 239.711 314.976Z" fill="#333333"/>
<path d="M140.633 276.531C140.633 261.801 152.574 249.859 167.305 249.859H225.497C240.228 249.859 252.169 261.801 252.169 276.531C252.169 291.261 240.228 303.203 225.497 303.203H167.305C152.574 303.203 140.633 291.261 140.633 276.531Z" fill="white"/>
<path fill-rule="evenodd" clip-rule="evenodd" d="M225.497 259.558H167.305C157.931 259.558 150.332 267.157 150.332 276.531C150.332 285.905 157.931 293.504 167.305 293.504H225.497C234.871 293.504 242.47 285.905 242.47 276.531C242.47 267.157 234.871 259.558 225.497 259.558ZM167.305 249.859C152.574 249.859 140.633 261.801 140.633 276.531C140.633 291.261 152.574 303.203 167.305 303.203H225.497C240.228 303.203 252.169 291.261 252.169 276.531C252.169 261.801 240.228 249.859 225.497 249.859H167.305Z" fill="#333333"/>
<path d="M191.552 275.32C191.552 288.041 181.239 298.354 168.517 298.354C155.795 298.354 145.482 288.041 145.482 275.32C145.482 262.598 155.795 252.285 168.517 252.285C181.239 252.285 191.552 262.598 191.552 275.32Z" fill="#333333"/>
<path d="M257.018 276.531C257.018 261.801 268.959 249.859 283.689 249.859H341.882C356.612 249.859 368.554 261.801 368.554 276.531C368.554 291.261 356.612 303.203 341.882 303.203H283.689C268.959 303.203 257.018 291.261 257.018 276.531Z" fill="white"/>
<path fill-rule="evenodd" clip-rule="evenodd" d="M341.882 259.558H283.689C274.315 259.558 266.716 267.157 266.716 276.531C266.716 285.905 274.315 293.504 283.689 293.504H341.882C351.256 293.504 358.855 285.905 358.855 276.531C358.855 267.157 351.256 259.558 341.882 259.558ZM283.689 249.859C268.959 249.859 257.018 261.801 257.018 276.531C257.018 291.261 268.959 303.203 283.689 303.203H341.882C356.612 303.203 368.554 291.261 368.554 276.531C368.554 261.801 356.612 249.859 341.882 249.859H283.689Z" fill="#333333"/>
<path d="M307.936 275.32C307.936 288.041 297.624 298.354 284.902 298.354C272.18 298.354 261.867 288.041 261.867 275.32C261.867 262.598 272.18 252.285 284.902 252.285C297.624 252.285 307.936 262.598 307.936 275.32Z" fill="#333333"/>
<path d="M115.173 196.515C113.233 205.244 112.748 227.632 112.748 237.735C112.748 240.16 114.203 245.009 120.022 245.009C127.296 245.009 352.793 274.105 374.616 276.53C392.073 278.47 398.863 269.256 400.075 264.407C400.883 257.537 402.742 239.917 403.712 224.399C404.682 208.881 393.609 204.193 387.951 203.789C311.977 193.686 155.423 173.48 136.995 173.48C113.96 173.48 117.597 185.604 115.173 196.515Z" fill="#333333"/>
<path fill-rule="evenodd" clip-rule="evenodd" d="M120.933 190.905C120.69 192.943 120.404 195.338 119.908 197.569C119.043 201.462 118.445 208.832 118.079 216.833C117.719 224.697 117.599 232.745 117.599 237.737C117.599 237.891 117.627 238.2 117.731 238.564C117.833 238.921 117.978 239.224 118.14 239.45C118.29 239.658 118.453 239.801 118.656 239.906C118.854 240.008 119.261 240.161 120.024 240.161C120.794 240.161 122.412 240.314 124.343 240.515C126.428 240.731 129.256 241.048 132.715 241.449C139.637 242.251 149.141 243.399 160.396 244.782C182.909 247.549 212.467 251.262 242.472 255.051C257.267 256.919 272.164 258.804 286.378 260.603C329.868 266.107 366.966 270.802 375.153 271.712C389.902 273.351 394.499 266.038 395.303 263.474C396.127 256.409 397.928 239.228 398.874 224.098C399.276 217.662 397.216 214.054 394.992 211.957C392.584 209.687 389.519 208.765 387.608 208.628C387.509 208.621 387.411 208.611 387.314 208.598C349.336 203.548 291.219 195.973 240.299 189.661C214.837 186.504 191.189 183.666 172.763 181.617C154.17 179.55 141.266 178.332 136.997 178.332C131.599 178.332 128.261 179.052 126.182 179.977C124.26 180.833 123.299 181.909 122.664 183.136C121.935 184.546 121.522 186.375 121.174 188.962C121.094 189.554 121.016 190.209 120.933 190.905ZM122.238 171.117C126.032 169.428 130.877 168.633 136.997 168.633C141.942 168.633 155.517 169.941 173.835 171.978C192.32 174.033 216.015 176.877 241.492 180.035C292.389 186.345 350.46 193.913 388.458 198.966C392.194 199.268 397.405 200.902 401.645 204.9C406.129 209.127 409.121 215.621 408.554 224.703C407.576 240.341 405.707 258.055 404.893 264.975C404.869 265.18 404.831 265.384 404.781 265.585C402.933 272.978 393.753 283.537 374.082 281.352C365.814 280.433 328.556 275.718 285.009 270.206C270.831 268.412 255.986 266.533 241.258 264.673C211.252 260.885 181.708 257.173 159.213 254.408C147.963 253.026 138.486 251.881 131.598 251.083C128.153 250.684 125.369 250.372 123.341 250.162C122.325 250.056 121.516 249.978 120.917 249.926C120.346 249.877 120.09 249.864 120.035 249.861C120.025 249.86 120.022 249.86 120.024 249.86C115.534 249.86 112.259 247.881 110.269 245.117C108.457 242.6 107.9 239.725 107.9 237.737C107.9 232.626 108.023 224.428 108.39 216.39C108.752 208.489 109.366 200.301 110.441 195.465C110.823 193.742 111.02 192.089 111.244 190.219C111.339 189.416 111.44 188.573 111.562 187.667C111.933 184.912 112.506 181.665 114.05 178.68C115.688 175.512 118.289 172.875 122.238 171.117Z" fill="#333333"/>
<path fill-rule="evenodd" clip-rule="evenodd" d="M58.1743 294.165C60.4877 292.816 63.4571 293.597 64.8066 295.911C67.46 300.459 72.3516 307.361 78.2353 313.055C84.3084 318.932 90.4899 322.601 95.7759 322.601C101.99 322.601 107.949 320.519 112.987 317.747C118.033 314.969 121.858 311.659 123.722 309.625C125.532 307.651 128.6 307.518 130.574 309.328C132.548 311.137 132.682 314.205 130.872 316.179C128.291 318.995 123.629 322.959 117.664 326.243C111.689 329.532 104.11 332.3 95.7759 332.3C86.5138 332.3 77.945 326.27 71.4905 320.024C64.8465 313.594 59.4332 305.948 56.429 300.798C55.0795 298.484 55.8609 295.515 58.1743 294.165ZM378.536 299.148C379.437 296.626 382.212 295.311 384.734 296.212C390.488 298.267 399.361 301.716 407.329 305.411C411.306 307.256 415.152 309.204 418.301 311.11C421.218 312.874 424.3 315.038 425.933 317.486C426.253 317.966 426.622 318.502 427.015 319.071C427.877 320.32 428.848 321.728 429.636 323.042C430.869 325.096 432.051 327.517 432.576 330.356C433.693 336.384 431.599 342.65 425.651 349.919C416.799 360.738 407.23 370.799 403.505 374.524C401.611 376.418 398.54 376.418 396.647 374.524C394.753 372.63 394.753 369.56 396.647 367.666C400.196 364.117 409.539 354.296 418.145 343.777C423.108 337.711 423.439 334.278 423.04 332.122C422.808 330.87 422.247 329.578 421.32 328.032C420.681 326.968 420.031 326.028 419.285 324.95C418.849 324.32 418.381 323.643 417.863 322.866C417.556 322.405 416.233 321.194 413.281 319.408C410.56 317.762 407.071 315.983 403.249 314.21C395.618 310.672 387.032 307.332 381.472 305.346C378.95 304.445 377.635 301.67 378.536 299.148ZM260.054 360.221C262.712 359.889 265.135 361.774 265.467 364.432C266.171 370.062 270.011 383.331 280.189 395.932C288.509 406.233 301.179 409.067 315.453 409.781C324.992 410.258 331.152 409.713 335.251 408.4C339.045 407.184 341.038 405.332 342.441 402.667C343.326 400.986 345.111 399.976 347.008 400.084C348.904 400.192 350.563 401.397 351.252 403.168L359.738 424.99C360.709 427.486 359.473 430.297 356.976 431.268C354.48 432.238 351.67 431.002 350.699 428.506L345.126 414.176C343.18 415.624 340.891 416.777 338.21 417.636C332.408 419.495 324.828 419.961 314.969 419.468C300.147 418.727 283.721 415.742 272.643 402.026C261.258 387.929 256.756 372.937 255.844 365.635C255.511 362.977 257.396 360.554 260.054 360.221ZM230.263 364.158C232.086 366.121 231.972 369.189 230.009 371.012C224.484 376.142 213.935 387.171 209.488 400.513C207.35 406.928 206.808 416.207 207.157 425.623C207.501 434.911 208.684 443.768 209.656 449.015C209.985 450.792 209.298 452.605 207.875 453.718C206.451 454.831 204.526 455.06 202.881 454.313L176.209 442.189C173.771 441.081 172.693 438.206 173.801 435.768C174.909 433.329 177.784 432.251 180.222 433.36L198.755 441.784C198.171 437.074 197.673 431.607 197.465 425.982C197.107 416.303 197.576 405.579 200.287 397.446C205.538 381.691 217.62 369.281 223.41 363.904C225.372 362.082 228.441 362.196 230.263 364.158Z" fill="#333333"/>
<path fill-rule="evenodd" clip-rule="evenodd" d="M387.578 321.586C378.071 316.938 323.219 331.255 320.794 340.646C318.369 350.038 344.253 420.278 353.771 422.581C363.289 424.883 403.806 420.012 408.711 407.445C413.616 394.878 397.085 326.234 387.578 321.586Z" fill="white"/>
<path fill-rule="evenodd" clip-rule="evenodd" d="M385.357 325.907C385.421 325.965 385.547 326.086 385.73 326.303C386.126 326.773 386.627 327.493 387.216 328.514C388.393 330.556 389.696 333.411 391.057 336.938C393.768 343.968 396.515 353.164 398.838 362.693C401.159 372.214 403.022 381.926 404.002 389.966C404.492 393.992 404.751 397.513 404.752 400.338C404.753 403.317 404.46 404.998 404.194 405.68C403.683 406.987 401.746 408.962 397.327 411.048C393.161 413.013 387.742 414.632 381.976 415.84C376.244 417.042 370.364 417.797 365.376 418.112C360.53 418.418 356.986 418.276 355.233 417.935C355.187 417.897 355.128 417.848 355.057 417.784C354.662 417.426 354.107 416.816 353.407 415.879C352.009 414.009 350.362 411.289 348.55 407.86C344.944 401.033 340.969 391.934 337.327 382.52C333.691 373.118 330.438 363.534 328.254 355.771C327.16 351.882 326.357 348.531 325.902 345.931C325.674 344.628 325.547 343.59 325.502 342.811C325.481 342.439 325.483 342.184 325.488 342.026C325.631 341.861 326.001 341.461 326.834 340.851C328.217 339.839 330.271 338.684 332.942 337.456C338.253 335.013 345.363 332.57 352.814 330.526C360.252 328.485 367.848 326.891 374.09 326.091C377.218 325.69 379.904 325.502 382.008 325.532C383.058 325.548 383.892 325.617 384.521 325.717C384.832 325.767 385.064 325.82 385.23 325.867C385.282 325.882 385.324 325.896 385.357 325.907ZM355.368 418.033C355.368 418.033 355.365 418.032 355.36 418.029C355.365 418.032 355.368 418.033 355.368 418.033ZM321.106 333.025C319.216 334.409 316.852 336.517 316.099 339.432C315.76 340.746 315.751 342.163 315.819 343.362C315.892 344.645 316.082 346.081 316.348 347.603C316.882 350.65 317.778 354.346 318.918 358.398C321.203 366.519 324.561 376.4 328.282 386.019C331.998 395.627 336.127 405.106 339.975 412.391C341.89 416.017 343.808 419.236 345.638 421.685C346.551 422.907 347.527 424.051 348.555 424.98C349.516 425.848 350.893 426.871 352.631 427.292C355.775 428.052 360.723 428.124 365.987 427.792C371.426 427.448 377.767 426.632 383.966 425.333C390.132 424.041 396.357 422.229 401.465 419.819C406.32 417.528 411.287 414.182 413.229 409.206C414.189 406.747 414.452 403.533 414.451 400.334C414.45 396.982 414.147 393.042 413.629 388.793C412.592 380.283 410.648 370.186 408.261 360.395C405.876 350.612 403.014 340.989 400.106 333.448C398.656 329.69 397.147 326.322 395.619 323.671C394.855 322.346 394.031 321.102 393.143 320.049C392.294 319.043 391.16 317.937 389.708 317.228C387.504 316.15 384.692 315.872 382.149 315.835C379.424 315.795 376.246 316.036 372.857 316.471C366.065 317.341 358.014 319.042 350.247 321.173C342.494 323.3 334.842 325.907 328.889 328.645C325.928 330.007 323.225 331.474 321.106 333.025Z" fill="#333333"/>
<path fill-rule="evenodd" clip-rule="evenodd" d="M379.205 340.59C376.073 339.536 357.167 344.502 356.152 347.074C355.137 349.646 362.487 367.986 365.67 368.411C368.853 368.835 382.702 366.699 384.623 363.223C386.544 359.747 382.336 341.645 379.205 340.59Z" fill="#65D36E"/>
<path fill-rule="evenodd" clip-rule="evenodd" d="M376.9 345.359C376.986 345.54 377.078 345.745 377.176 345.976C377.841 347.547 378.526 349.738 379.088 352.116C379.648 354.484 380.042 356.854 380.192 358.751C380.256 359.566 380.268 360.217 380.247 360.701C380.035 360.814 379.76 360.947 379.413 361.093C378.163 361.62 376.46 362.124 374.562 362.548C372.689 362.966 370.776 363.273 369.174 363.449C368.496 363.524 367.898 363.572 367.402 363.597C367.237 363.364 367.044 363.073 366.825 362.718C365.877 361.179 364.799 359.006 363.798 356.652C362.803 354.312 361.954 351.957 361.425 350.104C361.36 349.874 361.301 349.658 361.248 349.456C361.357 349.409 361.471 349.361 361.591 349.312C363.304 348.604 365.652 347.837 368.16 347.152C370.657 346.471 373.172 345.911 375.191 345.587C375.85 345.481 376.422 345.406 376.9 345.359ZM368.012 364.329C368.011 364.324 367.977 364.288 367.908 364.234C367.978 364.306 368.012 364.333 368.012 364.329ZM380.751 360.383C380.75 360.383 380.742 360.389 380.729 360.402C380.744 360.39 380.751 360.383 380.751 360.383ZM380.185 361.328C380.184 361.332 380.183 361.335 380.183 361.335C380.183 361.335 380.184 361.333 380.185 361.328ZM376.376 344.412C376.33 344.347 376.306 344.321 376.306 344.325C376.305 344.328 376.328 344.36 376.376 344.412ZM353.279 342.981C352.834 343.386 352.092 344.149 351.639 345.297C351.254 346.273 351.208 347.192 351.206 347.715C351.204 348.314 351.264 348.9 351.34 349.419C351.493 350.461 351.771 351.616 352.099 352.767C352.762 355.089 353.759 357.828 354.873 360.447C355.981 363.053 357.274 365.705 358.567 367.805C359.205 368.84 359.935 369.893 360.736 370.764C361.319 371.397 362.798 372.922 365.028 373.219C366.458 373.41 368.433 373.288 370.232 373.09C372.182 372.876 374.447 372.511 376.675 372.014C378.877 371.523 381.195 370.868 383.182 370.03C384.175 369.611 385.203 369.098 386.13 368.462C387.01 367.858 388.114 366.931 388.866 365.571C389.622 364.204 389.827 362.69 389.905 361.663C389.992 360.501 389.959 359.239 389.861 357.99C389.663 355.482 389.17 352.609 388.527 349.885C387.885 347.171 387.051 344.422 386.106 342.193C385.64 341.091 385.082 339.963 384.421 338.993C383.9 338.23 382.731 336.663 380.751 335.996C379.427 335.551 377.991 335.576 377.119 335.619C376.058 335.671 374.868 335.816 373.655 336.011C371.217 336.402 368.354 337.046 365.607 337.796C362.869 338.543 360.105 339.433 357.89 340.347C356.797 340.798 355.701 341.311 354.771 341.88C354.307 342.164 353.776 342.528 353.279 342.981Z" fill="#65D36E"/>
<path fill-rule="evenodd" clip-rule="evenodd" d="M398.535 378.707C398.089 376.066 395.587 374.287 392.946 374.732L352.087 381.628C349.446 382.073 347.666 384.575 348.112 387.216C348.557 389.857 351.06 391.637 353.701 391.191L394.56 384.296C397.201 383.85 398.981 381.348 398.535 378.707Z" fill="#333333"/>
<path fill-rule="evenodd" clip-rule="evenodd" d="M401.002 394.077C400.159 391.535 397.414 390.159 394.872 391.002L359.248 402.822C356.706 403.665 355.329 406.41 356.172 408.952C357.015 411.494 359.76 412.871 362.302 412.027L397.926 400.207C400.468 399.364 401.845 396.619 401.002 394.077Z" fill="#333333"/>
<path d="M362.59 356.996C362.219 355.796 362.89 354.523 364.089 354.152C365.289 353.781 366.562 354.452 366.933 355.651L369.024 362.407C369.395 363.606 368.724 364.879 367.525 365.251C366.325 365.622 365.052 364.95 364.681 363.751L362.59 356.996Z" fill="white"/>
<path d="M360.947 351.687C360.576 350.488 361.248 349.215 362.447 348.844C363.646 348.472 364.919 349.144 365.29 350.343C365.662 351.542 364.99 352.815 363.791 353.186C362.592 353.558 361.319 352.886 360.947 351.687Z" fill="white"/>
<path fill-rule="evenodd" clip-rule="evenodd" d="M380.776 349.694C380.801 349.777 380.825 349.86 380.847 349.943C380.866 349.993 380.884 350.044 380.9 350.096L383.339 357.978C383.711 359.177 383.039 360.45 381.84 360.821C380.641 361.192 379.368 360.521 378.997 359.322L378.181 356.685C378.18 356.686 378.18 356.686 378.18 356.686L376.507 351.28C376.163 350.169 374.984 349.548 373.874 349.892C372.764 350.235 372.142 351.414 372.486 352.524L374.278 358.315C374.282 358.329 374.287 358.343 374.291 358.356L374.975 360.567C375.347 361.766 374.675 363.039 373.476 363.41C372.277 363.781 371.004 363.11 370.633 361.911L368.069 353.627L368.044 353.547C368.03 353.502 368.018 353.457 368.007 353.412C367.14 350.187 369.147 346.772 372.58 345.709C376.089 344.623 379.758 346.407 380.776 349.694Z" fill="white"/>
</svg>
