<svg width="19" height="19" viewBox="0 0 19 19" fill="none" xmlns="http://www.w3.org/2000/svg">
<path fill-rule="evenodd" clip-rule="evenodd" d="M9.5 19C14.7467 19 19 14.7467 19 9.5C19 4.2533 14.7467 0 9.5 0C4.2533 0 0 4.2533 0 9.5C0 14.7467 4.2533 19 9.5 19ZM5.08787 10.6099L7.59859 12.9762C8.04909 13.4079 8.77949 13.4079 9.22998 12.9762L13.9121 8.53713C14.3626 8.10542 14.3626 7.40549 13.9121 6.97378C13.4616 6.54207 12.7312 6.54207 12.2807 6.97378L8.41429 10.6468L6.71927 9.04651C6.26877 8.6148 5.53837 8.6148 5.08787 9.04651C4.63738 9.47822 4.63738 10.1782 5.08787 10.6099Z" fill="url(#paint0_linear)"/>
<defs>
<linearGradient id="paint0_linear" x1="1.6625" y1="-2.85" x2="21.9343" y2="4.3719" gradientUnits="userSpaceOnUse">
<stop stop-color="#48C9FF"/>
<stop offset="0.489583" stop-color="#8461F7"/>
<stop offset="1" stop-color="#FF8A71"/>
</linearGradient>
</defs>
</svg>
