<svg width="35" height="35" viewBox="0 0 35 35" fill="none" xmlns="http://www.w3.org/2000/svg">
<path fill-rule="evenodd" clip-rule="evenodd" d="M17.5 27C22.7467 27 27 22.7467 27 17.5C27 12.2533 22.7467 8 17.5 8C12.2533 8 8 12.2533 8 17.5C8 22.7467 12.2533 27 17.5 27ZM13.0879 18.6099L15.5986 20.9762C16.0491 21.4079 16.7795 21.4079 17.23 20.9762L21.9121 16.5371C22.3626 16.1054 22.3626 15.4055 21.9121 14.9738C21.4616 14.5421 20.7312 14.5421 20.2807 14.9738L16.4143 18.6468L14.7193 17.0465C14.2688 16.6148 13.5384 16.6148 13.0879 17.0465C12.6374 17.4782 12.6374 18.1782 13.0879 18.6099Z" fill="url(#paint0_linear)"/>
<defs>
<linearGradient id="paint0_linear" x1="9.6625" y1="5.15" x2="29.9343" y2="12.3719" gradientUnits="userSpaceOnUse">
<stop stop-color="#48C9FF"/>
<stop offset="0.489583" stop-color="#8461F7"/>
<stop offset="1" stop-color="#FF8A71"/>
</linearGradient>
</defs>
</svg>
