<svg width="35" height="35" viewBox="0 0 35 35" fill="none" xmlns="http://www.w3.org/2000/svg">
<path fill-rule="evenodd" clip-rule="evenodd" d="M11.7748 25.1364C10.1929 25.1364 8.90912 23.8529 8.90912 22.2727C8.90912 21.2239 9.47699 20.2891 10.345 19.7898C10.345 19.5001 10.3409 16.0668 10.3409 16.0668C10.3409 12.7684 12.5552 9.99141 15.5909 9.16179C15.5909 9.16179 15.5909 8.99476 15.5909 8.90909C15.5909 7.85473 16.4457 7 17.5 7C18.5544 7 19.4091 7.85473 19.4091 8.90909C19.4091 8.99471 19.4091 9.16179 19.4091 9.16179C22.4455 9.99124 24.6591 12.7685 24.6591 16.0718V19.7982C25.5281 20.2998 26.0909 21.2307 26.0909 22.2727C26.0909 23.855 24.809 25.1364 23.2253 25.1364H20.3637C20.362 26.7182 19.0774 28 17.5 28C15.9185 28 14.6364 26.7192 14.6364 25.1384L11.7748 25.1364ZM16.5455 25.1364C16.5455 25.6644 16.9723 26.0909 17.5 26.0909C18.024 26.0909 18.4529 25.6628 18.4545 25.1364H16.5455ZM22.75 20.6845V16.0718C22.75 13.1671 20.4012 10.8182 17.5 10.8182C14.6 10.8182 12.25 13.1679 12.25 16.0668V20.6844C12.25 20.9514 12.045 21.2167 11.7921 21.2818L11.5334 21.3484C11.1155 21.456 10.8182 21.8345 10.8182 22.2727C10.8182 22.7984 11.2471 23.2273 11.7748 23.2273H23.2252C23.7548 23.2273 24.1818 22.8004 24.1818 22.2727C24.1818 21.8364 23.8833 21.4564 23.4656 21.3485L23.2153 21.2838C22.9608 21.218 22.75 20.949 22.75 20.6845Z" fill="#222222"/>
</svg>
