<svg width="40" height="40" viewBox="0 0 40 40" fill="none" xmlns="http://www.w3.org/2000/svg">
<path fill-rule="evenodd" clip-rule="evenodd" d="M20 30.8571C25.9962 30.8571 30.8571 25.9962 30.8571 20C30.8571 14.0038 25.9962 9.14285 20 9.14285C14.0038 9.14285 9.14285 14.0038 9.14285 20C9.14285 25.9962 14.0038 30.8571 20 30.8571ZM24.5924 21.7913C24.5924 24.6353 22.8211 26.39 19.9854 26.39C16.9917 26.39 15.2371 24.5605 15.2371 21.0429C15.2371 15.8954 17.1747 13.9827 20.3513 13.9162C21.3243 13.8913 21.8814 13.8414 22.2723 13.7998C22.3551 13.7933 22.4305 13.7867 22.5008 13.7806C22.6984 13.7635 22.855 13.7499 23.0207 13.7499C23.5862 13.7499 24.2182 13.9495 24.2182 14.7811C24.2182 15.4297 23.9022 15.8122 22.9958 15.9785C22.6798 16.0451 22.2723 16.0867 20.6424 16.1282C18.5717 16.1864 17.7152 17.1677 17.4491 19.3132H17.5156C18.0478 18.2321 19.0208 17.5669 20.5426 17.5669C22.9875 17.5669 24.5924 19.2051 24.5924 21.7913ZM18.2557 21.8911C18.2557 23.3381 18.8711 24.1447 19.9189 24.1447C20.9501 24.1447 21.5738 23.3381 21.5738 21.8911C21.5738 20.494 20.9418 19.6625 19.9189 19.6625C18.8794 19.6625 18.2557 20.494 18.2557 21.8911Z" fill="url(#paint0_linear)"/>
<defs>
<linearGradient id="paint0_linear" x1="11.0429" y1="5.88571" x2="34.2106" y2="14.1393" gradientUnits="userSpaceOnUse">
<stop stop-color="#48C9FF"/>
<stop offset="0.489583" stop-color="#8461F7"/>
<stop offset="1" stop-color="#FF8A71"/>
</linearGradient>
</defs>
</svg>
