<svg width="35" height="35" viewBox="0 0 35 35" fill="none" xmlns="http://www.w3.org/2000/svg">
<path fill-rule="evenodd" clip-rule="evenodd" d="M21.2879 9.70098L22.1219 10.1877C22.1219 10.1877 24.6121 9.75315 24.7568 9.73991C25.5103 9.64748 26.3218 10.0522 26.7009 10.7087L27.746 12.519C28.1267 13.1783 28.0721 14.0868 27.6316 14.6616C27.5294 14.8055 25.9106 16.7444 25.9106 16.7444C25.9106 16.7444 25.9208 16.8875 25.9208 17.2277C25.9208 17.3916 25.9067 17.7177 25.9067 17.7177C25.9067 17.7177 27.5294 19.6498 27.6132 19.7685C28.0699 20.3748 28.1251 21.2799 27.746 21.9364L26.7009 23.7467C26.3202 24.406 25.506 24.8129 24.7807 24.7182C24.7747 24.7176 22.1085 24.2663 22.1085 24.2663L21.2879 24.7502C21.2879 24.7502 20.417 27.1246 20.3562 27.2564C20.0594 27.9551 19.3032 28.4554 18.5452 28.4554H16.4548C15.6934 28.4554 14.934 27.9537 14.6564 27.2847C14.5829 27.1243 13.7097 24.7414 13.7097 24.7414L12.873 24.2643C12.873 24.2643 10.3877 24.7023 10.243 24.7156C9.48953 24.8079 8.67812 24.4032 8.29911 23.7467L7.25393 21.9364C6.87325 21.277 6.92798 20.3685 7.36853 19.7936C7.47077 19.6497 9.09113 17.7093 9.09113 17.7093C9.09113 17.7093 9.07921 17.5679 9.07921 17.2277C9.07921 17.067 9.09273 16.7472 9.09273 16.7472C9.09273 16.7472 7.47077 14.8057 7.38699 14.687C6.93018 14.0807 6.87488 13.1755 7.25393 12.519L8.29911 10.7087C8.67975 10.0494 9.49384 9.64245 10.2119 9.73646C10.3877 9.75305 12.8976 10.1903 12.8976 10.1903L13.7217 9.70036C13.7217 9.70036 14.5829 7.33106 14.6438 7.19925C14.9405 6.50047 15.6967 6 16.4548 6H18.5452C19.3065 6 20.0659 6.50155 20.3435 7.17039C20.417 7.33081 21.2879 9.70098 21.2879 9.70098ZM19.4365 11.3382L19.2857 10.8336C19.0664 10.1 18.4448 8.43681 18.3785 8.28114C18.3401 8.1909 16.66 8.19093 16.6216 8.28118C16.5554 8.43686 15.9338 10.1 15.7146 10.8335L15.5637 11.3381L15.0794 11.5447C14.6217 11.74 14.1894 11.9902 13.7916 12.2895L13.3702 12.6065L12.8571 12.4847C12.1118 12.3076 10.3595 12.0142 10.1914 11.9937C10.094 11.9818 9.25389 13.4369 9.31289 13.5153C9.41467 13.6506 10.5448 15.0211 11.0707 15.5779L11.4319 15.9604L11.3692 16.4826C11.3397 16.7284 11.3248 16.977 11.3248 17.2278C11.3248 17.4785 11.3397 17.7272 11.3692 17.9729L11.4319 18.4952L11.0707 18.8776C10.5448 19.4345 9.41467 20.805 9.31289 20.9402C9.25389 21.0186 10.094 22.4738 10.1914 22.4619C10.3595 22.4414 12.1118 22.1479 12.8571 21.9709L13.3702 21.849L13.7916 22.166C14.1894 22.4653 14.6217 22.7156 15.0794 22.9108L15.5637 23.1175L15.7146 23.622C15.9338 24.3555 16.5554 26.0187 16.6216 26.1744C16.66 26.2646 18.3401 26.2646 18.3785 26.1744C18.4448 26.0187 19.0664 24.3555 19.2857 23.6219L19.4365 23.1174L19.9209 22.9107C20.3786 22.7155 20.8108 22.4652 21.2086 22.1659L21.63 21.8488L22.1431 21.9707C22.8884 22.1477 24.6406 22.4413 24.8086 22.4618C24.8662 22.4688 25.7462 21.0186 25.6872 20.9402C25.5854 20.8049 24.4553 19.4343 23.9294 18.8773L23.5682 18.4949L23.6309 17.9727C23.6604 17.727 23.6752 17.4784 23.6752 17.2278C23.6752 16.9771 23.6604 16.7285 23.6309 16.4828L23.5682 15.9606L23.9294 15.5782C24.4553 15.0212 25.5854 13.6506 25.6872 13.5154C25.7462 13.4369 24.906 11.9818 24.8086 11.9937C24.6406 12.0143 22.8884 12.3078 22.1431 12.4848L21.63 12.6067L21.2086 12.2896C20.8108 11.9904 20.3786 11.7401 19.9209 11.5448L19.4365 11.3382ZM17.5 20.596C15.6398 20.596 14.1317 19.088 14.1317 17.2277C14.1317 15.3674 15.6398 13.8594 17.5 13.8594C19.3603 13.8594 20.8683 15.3674 20.8683 17.2277C20.8683 19.088 19.3603 20.596 17.5 20.596ZM17.5 18.3505C18.1201 18.3505 18.6227 17.8478 18.6227 17.2277C18.6227 16.6076 18.1201 16.1049 17.5 16.1049C16.8799 16.1049 16.3772 16.6076 16.3772 17.2277C16.3772 17.8478 16.8799 18.3505 17.5 18.3505Z" fill="#222222"/>
</svg>
