<svg width="35" height="35" viewBox="0 0 35 35" fill="none" xmlns="http://www.w3.org/2000/svg">
<path fill-rule="evenodd" clip-rule="evenodd" d="M16.4373 9.125H11.1199L11.1248 26.125L23.8725 26.125C23.8725 26.125 23.8748 19.9324 23.8748 16.5625H17.4998C16.913 16.5625 16.4373 16.0868 16.4373 15.5V9.125ZM18.5625 14.4375H23.875L18.5625 9.125V14.4375ZM11.1202 7H18.8842C19.1774 7 19.5844 7.16946 19.7879 7.37304L25.6271 13.2144C25.833 13.4204 26 13.8297 26 14.118V26.1258C26 27.299 25.0496 28.25 23.8727 28.25H11.1273C9.95241 28.25 9 27.2956 9 26.125V9.12501C9 7.9514 9.95187 7 11.1202 7ZM12.1875 22.9375C12.1875 22.3507 12.6647 21.875 13.2451 21.875H21.7549C22.339 21.875 22.8125 22.3466 22.8125 22.9375C22.8125 23.5243 22.3353 24 21.7549 24H13.2451C12.661 24 12.1875 23.5284 12.1875 22.9375ZM12.1875 19.75C12.1875 19.1632 12.6667 18.6875 13.2545 18.6875H17.4955C18.0848 18.6875 18.5625 19.1591 18.5625 19.75C18.5625 20.3368 18.0833 20.8125 17.4955 20.8125H13.2545C12.6652 20.8125 12.1875 20.3409 12.1875 19.75Z" fill="#222222"/>
</svg>
