<svg width="42" height="42" viewBox="0 0 42 42" fill="none" xmlns="http://www.w3.org/2000/svg">
<path fill-rule="evenodd" clip-rule="evenodd" d="M38.5 21V23.6265C38.5 27.0071 35.7541 29.75 32.375 29.75C30.2662 29.75 28.4066 28.6871 27.3048 27.0672C25.713 28.721 23.4767 29.75 21 29.75C16.1675 29.75 12.25 25.8325 12.25 21C12.25 16.1675 16.1675 12.25 21 12.25C25.8325 12.25 29.75 16.1675 29.75 21V23.6319C29.75 25.0795 30.923 26.25 32.375 26.25C33.822 26.25 35 25.0733 35 23.6265V21C35 13.268 28.732 7 21 7C13.268 7 7 13.268 7 21C7 28.732 13.268 35 21 35C21.9665 35 22.75 35.7835 22.75 36.75C22.75 37.7165 21.9665 38.5 21 38.5C11.335 38.5 3.5 30.665 3.5 21C3.5 11.335 11.335 3.5 21 3.5C30.665 3.5 38.5 11.335 38.5 21ZM26.25 21C26.25 18.1005 23.8995 15.75 21 15.75C18.1005 15.75 15.75 18.1005 15.75 21C15.75 23.8995 18.1005 26.25 21 26.25C23.8995 26.25 26.25 23.8995 26.25 21Z" fill="black"/>
</svg>
