<svg width="35" height="35" viewBox="0 0 35 35" fill="none" xmlns="http://www.w3.org/2000/svg">
<path fill-rule="evenodd" clip-rule="evenodd" d="M24.3901 15.5232C24.0084 15.1438 24.0066 14.5269 24.3859 14.1452C24.7653 13.7636 25.3822 13.7618 25.7639 14.1411L27.7126 16.0782C28.0943 16.4576 28.0961 17.0745 27.7167 17.4562L25.768 19.4165C25.3886 19.7982 24.7717 19.8 24.3901 19.4206C24.0084 19.0412 24.0066 18.4243 24.386 18.0427L24.6812 17.7436H19.7151C19.1786 17.7436 18.7436 17.3111 18.7436 16.7693C18.7436 16.2311 19.1794 15.7949 19.7151 15.7949H24.6634L24.3901 15.5232ZM16.7949 25.5385V27.6955C16.7949 28.7244 15.7771 29.2979 14.897 28.7537L9.873 25.647C9.3594 25.3294 9 24.682 9 24.0804V9.45802C9 9.14648 9.09332 8.87669 9.24788 8.66704C9.26108 8.63261 9.27957 8.59918 9.30466 8.56683C9.57227 8.22175 9.99154 8 10.4619 8H21.1791C21.9847 8 22.641 8.65475 22.641 9.45802V11.8974C22.641 12.4356 22.2048 12.8718 21.6667 12.8718C21.1285 12.8718 20.6923 12.4356 20.6923 11.8974V9.94872L13.3958 9.94445L15.9219 11.5065C16.4355 11.8241 16.7949 12.4715 16.7949 13.0731V23.5897H20.6923V21.641C20.6923 21.1029 21.1285 20.6667 21.6667 20.6667C22.2048 20.6667 22.641 21.1029 22.641 21.641V24.0804C22.641 24.8874 21.9851 25.5385 21.1791 25.5385H16.7949ZM14.8509 13.1629L10.9486 10.7388V24.0683L14.8509 26.4443L14.8509 13.1629Z" fill="#000"/>
</svg>
