<svg width="42" height="42" viewBox="0 0 42 42" fill="none" xmlns="http://www.w3.org/2000/svg">
<path fill-rule="evenodd" clip-rule="evenodd" d="M32.1799 33.768C33.0575 33.768 33.768 33.0574 33.768 32.1799V9.8202C33.768 8.94252 33.0574 8.23204 32.1799 8.23204H9.82019C8.94251 8.23204 8.23202 8.94267 8.23202 9.8202V32.1799C8.23202 33.0576 8.94266 33.768 9.82019 33.768H21V24.192H19.4032C18.5218 24.192 17.8072 23.4775 17.8072 22.596C17.8072 21.7146 18.5218 21 19.4032 21H21C21 17.9727 21.3418 16.0648 22.7618 14.4755C24.1659 12.904 25.8067 12.222 27.384 12.222C28.2655 12.222 28.98 12.9366 28.98 13.818C28.98 14.6995 28.2655 15.414 27.384 15.414C26.6864 15.414 25.9186 15.7331 25.1421 16.6022C24.4354 17.3932 24.192 18.7516 24.192 21H27.384C28.2655 21 28.98 21.7146 28.98 22.596C28.98 23.4775 28.2655 24.192 27.384 24.192H24.192V33.768H32.1799ZM5.04004 32.1799V9.8202C5.04004 7.17993 7.17948 5.04004 9.8202 5.04004H32.1799C34.8202 5.04004 36.96 7.17948 36.96 9.8202V32.1799C36.96 34.8201 34.8206 36.96 32.1799 36.96H9.8202C7.17993 36.96 5.04004 34.8206 5.04004 32.1799Z" fill="black"/>
</svg>
