<svg width="35" height="35" viewBox="0 0 35 35" fill="none" xmlns="http://www.w3.org/2000/svg">
<path fill-rule="evenodd" clip-rule="evenodd" d="M9.25 8.5C8.2835 8.5 7.5 9.2835 7.5 10.25C7.5 11.2165 8.2835 12 9.25 12H25.75C26.7165 12 27.5 11.2165 27.5 10.25C27.5 9.2835 26.7165 8.5 25.75 8.5H9.25ZM9.25 15.75C8.2835 15.75 7.5 16.5335 7.5 17.5C7.5 18.4665 8.2835 19.25 9.25 19.25H25.75C26.7165 19.25 27.5 18.4665 27.5 17.5C27.5 16.5335 26.7165 15.75 25.75 15.75H9.25ZM9.25 23C8.2835 23 7.5 23.7835 7.5 24.75C7.5 25.7165 8.2835 26.5 9.25 26.5H25.75C26.7165 26.5 27.5 25.7165 27.5 24.75C27.5 23.7835 26.7165 23 25.75 23H9.25Z" fill="black"/>
</svg>
