<svg width="35" height="35" viewBox="0 0 35 35" fill="none" xmlns="http://www.w3.org/2000/svg">
<path fill-rule="evenodd" clip-rule="evenodd" d="M18.65 21.525H19.2252C19.8602 21.525 20.375 22.0354 20.375 22.675C20.375 23.3101 19.8647 23.825 19.2252 23.825H15.7748C15.1398 23.825 14.625 23.3146 14.625 22.675C14.625 22.0399 15.1353 21.525 15.7748 21.525H16.35V18.075H15.7784C15.1414 18.075 14.625 17.5646 14.625 16.925C14.625 16.2899 15.1348 15.775 15.7784 15.775H17.4966C17.817 15.775 18.1041 15.9035 18.3121 16.1115C18.5214 16.3187 18.65 16.6058 18.65 16.925V21.525ZM17.5 29C11.1487 29 6 23.8513 6 17.5C6 11.1487 11.1487 6 17.5 6C23.8513 6 29 11.1487 29 17.5C29 23.8513 23.8513 29 17.5 29ZM17.5001 26.7C22.5812 26.7 26.7001 22.581 26.7001 17.5C26.7001 12.419 22.5812 8.3 17.5001 8.3C12.4191 8.3 8.30014 12.419 8.30014 17.5C8.30014 22.581 12.4191 26.7 17.5001 26.7ZM17.5 14.625C16.5473 14.625 15.775 13.8527 15.775 12.9C15.775 11.9473 16.5473 11.175 17.5 11.175C18.4526 11.175 19.225 11.9473 19.225 12.9C19.225 13.8527 18.4526 14.625 17.5 14.625Z" fill="#222222"/>
</svg>
