<svg width="42" height="42" viewBox="0 0 42 42" fill="none" xmlns="http://www.w3.org/2000/svg">
<path fill-rule="evenodd" clip-rule="evenodd" d="M13.0125 5.04004H28.9876C33.3907 5.04004 36.96 8.60876 36.96 13.0125V28.9876C36.96 33.3907 33.3913 36.96 28.9876 36.96H13.0125C8.60942 36.96 5.04004 33.3913 5.04004 28.9876V13.0125C5.04004 8.60942 8.60876 5.04004 13.0125 5.04004ZM8.23205 28.9876C8.23205 31.6282 10.3721 33.768 13.0125 33.768H28.9876C31.6282 33.768 33.7681 31.628 33.7681 28.9876V13.0125C33.7681 10.3719 31.6281 8.23204 28.9876 8.23204H13.0125C10.3719 8.23204 8.23205 10.372 8.23205 13.0125V28.9876ZM13.02 21C13.02 16.5928 16.5928 13.02 21 13.02C25.4073 13.02 28.98 16.5928 28.98 21C28.98 25.4073 25.4073 28.98 21 28.98C16.5928 28.98 13.02 25.4073 13.02 21ZM25.788 21C25.788 18.3557 23.6444 16.212 21 16.212C18.3557 16.212 16.212 18.3557 16.212 21C16.212 23.6444 18.3557 25.788 21 25.788C23.6444 25.788 25.788 23.6444 25.788 21ZM28.98 14.616C28.0986 14.616 27.384 13.9015 27.384 13.02C27.384 12.1386 28.0986 11.424 28.98 11.424C29.8615 11.424 30.576 12.1386 30.576 13.02C30.576 13.9015 29.8615 14.616 28.98 14.616Z" fill="black"/>
</svg>
