<svg width="107" height="40" viewBox="0 0 107 40" fill="none" xmlns="http://www.w3.org/2000/svg">
<path d="M0 17.4545C0 11.3449 0 8.29005 1.18902 5.95647C2.23491 3.90379 3.90379 2.23491 5.95647 1.18902C8.29005 0 11.3449 0 17.4545 0H22.5454C28.6551 0 31.7099 0 34.0435 1.18902C36.0962 2.23491 37.7651 3.90379 38.811 5.95647C40 8.29005 40 11.3449 40 17.4545V22.5455C40 28.6551 40 31.71 38.811 34.0435C37.7651 36.0962 36.0962 37.7651 34.0435 38.811C31.7099 40 28.6551 40 22.5454 40H17.4545C11.3449 40 8.29005 40 5.95647 38.811C3.90379 37.7651 2.23491 36.0962 1.18902 34.0435C0 31.71 0 28.6551 0 22.5455V17.4545Z" fill="#D2E3D6"/>
<path d="M17.4545 -6.10352e-05C11.3449 -6.10352e-05 8.29005 -6.10352e-05 5.95647 1.18896C3.90379 2.23485 2.23491 3.90373 1.18902 5.95641C0 8.28999 0 11.3448 0 17.4545V22.5454C0 28.6551 0 31.7099 1.18902 34.0435C2.23491 36.0962 3.90379 37.765 5.95647 38.8109C8.29005 39.9999 11.3449 39.9999 17.4545 39.9999H22.5454C28.6551 39.9999 31.7099 39.9999 34.0435 38.8109C36.0962 37.765 37.7651 36.0962 38.811 34.0435C40 31.7099 40 28.6551 40 22.5454V17.4545C40 15.8935 40 14.5319 39.9802 13.3308C39.9714 12.7974 39.9669 12.5307 39.8987 12.2593C39.8399 12.0256 39.7372 11.7824 39.6106 11.5774C39.4636 11.3392 39.2667 11.1412 38.8727 10.7453L29.3191 1.14298C28.8994 0.721188 28.6896 0.510273 28.4444 0.35943C28.227 0.225694 27.9899 0.127121 27.7418 0.0673529C27.4619 -6.10352e-05 27.1644 -6.10352e-05 26.5694 -6.10352e-05H17.4545Z" fill="#2EC86B"/>
<mask id="mask0" mask-type="alpha" maskUnits="userSpaceOnUse" x="27" y="0" width="13" height="13">
<path d="M27.8788 0H29.0909C35.1158 0 40 4.88417 40 10.9091V12.1212H27.8788V0Z" fill="white"/>
</mask>
<g mask="url(#mask0)">
<path opacity="0.5" d="M27.8788 -4.84836C27.8788 -7.10009 27.8788 -8.22596 28.0032 -9.17116C28.8625 -15.6982 33.9986 -20.8343 40.5257 -21.6936C41.4709 -21.8181 42.5967 -21.8181 44.8485 -21.8181C47.1002 -21.8181 48.2261 -21.8181 49.1713 -21.6936C55.6983 -20.8343 60.8344 -15.6982 61.6937 -9.17116C61.8182 -8.22596 61.8182 -7.10009 61.8182 -4.84836C61.8182 -2.59662 61.8182 -1.47076 61.6937 -0.525555C60.8344 6.00148 55.6983 11.1376 49.1713 11.9969C48.2261 12.1213 47.1002 12.1213 44.8485 12.1213H41.4545C37.8448 12.1213 36.0399 12.1213 34.5792 11.6467C31.6271 10.6875 29.3126 8.37302 28.3534 5.4209C27.8788 3.96022 27.8788 2.15534 27.8788 -1.45442V-4.84836Z" fill="white"/>
</g>
<path d="M9.93242 17.4324C8.50646 17.4324 7.36485 18.5482 7.36485 19.9305V28.7181C7.36485 30.0964 8.51162 31.2162 9.93242 31.2162C11.3582 31.2162 12.5 30.1003 12.5 28.7181V19.9305C12.5 18.5523 11.3532 17.4324 9.93242 17.4324ZM24.1216 8.78378C19.422 8.78378 15.6081 12.5481 15.6081 17.182V28.7259C15.6081 30.1001 16.738 31.2162 18.1341 31.2162C19.5301 31.2162 20.6601 30.1 20.6601 28.7259V17.182C20.6601 15.2963 22.2145 13.7645 24.1216 13.7645C26.0267 13.7645 27.5831 15.2985 27.5831 17.182V28.7259C27.5831 30.1001 28.713 31.2162 30.1091 31.2162C31.5051 31.2162 32.6351 30.1 32.6351 28.7259V17.182C32.6351 12.5506 28.8195 8.78378 24.1216 8.78378ZM9.93242 8.78378C8.09606 8.78378 6.60739 10.2724 6.60739 12.1088C6.60739 13.9452 8.09606 15.4338 9.93242 15.4338C11.7688 15.4338 13.2574 13.9452 13.2574 12.1088C13.2574 10.2724 11.7688 8.78378 9.93242 8.78378Z" fill="white"/>
<path d="M60.6497 8.78378C62.007 8.78378 63.1127 9.83877 63.1731 11.1602L63.1757 11.2741V28.7259C63.1757 30.1 62.0457 31.2162 60.6497 31.2162C59.8324 31.2162 59.1063 30.8337 58.6447 30.2408C57.4562 30.8635 56.1007 31.2162 54.6622 31.2162C50.0216 31.2162 46.2418 27.5407 46.1504 22.987L46.1487 22.818V22.0849C46.1487 22.02 46.1512 21.9556 46.1561 21.8919L46.1505 21.796L46.1487 21.6988V17.182C46.1487 12.5481 49.9625 8.78378 54.6622 8.78378L54.7043 8.78432L54.7044 8.78378H60.6497ZM54.6622 13.7645C52.7965 13.7645 51.2684 15.2304 51.2028 17.0595L51.2006 17.182V21.6988C51.2006 21.764 51.1981 21.8285 51.1931 21.8924L51.1987 21.988L51.2006 22.0849V22.818C51.2006 24.7015 52.757 26.2355 54.6622 26.2355C56.5278 26.2355 58.056 24.7696 58.1215 22.9404L58.1237 22.818L58.1232 18.3265L58.1245 18.3267V14.8462C58.1245 14.2492 57.6405 13.7651 57.0435 13.7651H54.95C54.9043 13.7651 54.8588 13.7661 54.8136 13.768C54.7637 13.7656 54.7131 13.7645 54.6622 13.7645Z" fill="#2EC86B"/>
<path d="M68.7902 8.78378C67.4328 8.78378 66.3271 9.83877 66.2668 11.1602L66.2642 11.2741V35.2124C66.2642 36.5864 67.3942 37.7027 68.7902 37.7027C70.1475 37.7027 71.2532 36.6477 71.3135 35.3263L71.3161 35.2124L71.3166 31.2157L74.7354 31.2162H74.7777C79.4183 31.2162 83.198 27.5407 83.2895 22.987L83.2912 22.818V22.0849C83.2912 22.02 83.2887 21.9556 83.2837 21.8919L83.2893 21.796L83.2912 21.6988V17.182C83.2912 12.5481 79.4773 8.78378 74.7777 8.78378L74.7355 8.78432L74.7354 8.78378H68.7902ZM74.7777 13.7645C76.6433 13.7645 78.1715 15.2304 78.237 17.0596L78.2392 17.182V21.6988C78.2392 21.764 78.2418 21.8286 78.2467 21.8924L78.2411 21.988L78.2392 22.0849V22.818C78.2392 24.7015 76.6828 26.2355 74.7777 26.2355C74.7293 26.2355 74.681 26.2345 74.6331 26.2326C74.6063 26.2333 74.5791 26.2337 74.5519 26.2337H72.3964C71.7993 26.2337 71.3153 25.7496 71.3153 25.1526V21.6721L71.3166 21.6719V18.3265L71.3153 18.3267V14.8462C71.3153 14.2492 71.7993 13.7651 72.3964 13.7651H74.4899C74.5356 13.7651 74.581 13.7661 74.6263 13.768C74.6761 13.7656 74.7268 13.7645 74.7777 13.7645Z" fill="#2EC86B"/>
<path d="M88.9057 8.78378C87.5484 8.78378 86.4427 9.83877 86.3823 11.1602L86.3797 11.2741V35.2124C86.3797 36.5864 87.5098 37.7027 88.9057 37.7027C90.2631 37.7027 91.3687 36.6477 91.4291 35.3263L91.4317 35.2124L91.4322 31.2157L94.851 31.2162H94.8933C99.5339 31.2162 103.314 27.5407 103.405 22.987L103.407 22.818V22.0849C103.407 22.02 103.404 21.9556 103.399 21.8919L103.405 21.796L103.407 21.6988V17.182C103.407 12.5481 99.5929 8.78378 94.8933 8.78378L94.8511 8.78432L94.851 8.78378H88.9057ZM94.8933 13.7645C96.7589 13.7645 98.287 15.2304 98.3526 17.0596L98.3548 17.182V21.6988C98.3548 21.764 98.3573 21.8286 98.3623 21.8924L98.3567 21.988L98.3548 22.0849V22.818C98.3548 24.7015 96.7984 26.2355 94.8933 26.2355C94.8448 26.2355 94.7966 26.2345 94.7487 26.2326C94.7218 26.2333 94.6947 26.2337 94.6675 26.2337H92.512C91.9149 26.2337 91.4309 25.7496 91.4309 25.1526V21.6721L91.4322 21.6719V18.3265L91.4309 18.3267V14.8462C91.4309 14.2492 91.9149 13.7651 92.512 13.7651H94.6054C94.6511 13.7651 94.6966 13.7661 94.7418 13.768C94.7917 13.7656 94.8424 13.7645 94.8933 13.7645Z" fill="#2EC86B"/>
</svg>
