<svg width="40" height="40" viewBox="0 0 40 40" fill="none" xmlns="http://www.w3.org/2000/svg">
<path d="M0 17.4545C0 11.3449 0 8.29004 1.18902 5.95646C2.23491 3.90379 3.90379 2.23491 5.95646 1.18902C8.29004 0 11.3449 0 17.4545 0H22.5454C28.6551 0 31.7099 0 34.0435 1.18902C36.0962 2.23491 37.7651 3.90379 38.8109 5.95646C40 8.29004 40 11.3449 40 17.4545V22.5454C40 28.6551 40 31.7099 38.8109 34.0435C37.7651 36.0962 36.0962 37.7651 34.0435 38.8109C31.7099 40 28.6551 40 22.5454 40H17.4545C11.3449 40 8.29004 40 5.95646 38.8109C3.90379 37.7651 2.23491 36.0962 1.18902 34.0435C0 31.7099 0 28.6551 0 22.5454V17.4545Z" fill="#D2E3D6"/>
<path d="M17.4545 0C11.3449 0 8.29004 0 5.95646 1.18902C3.90379 2.23491 2.23491 3.90379 1.18902 5.95646C0 8.29004 0 11.3449 0 17.4545V22.5454C0 28.6551 0 31.7099 1.18902 34.0435C2.23491 36.0962 3.90379 37.7651 5.95646 38.8109C8.29004 40 11.3449 40 17.4545 40H22.5454C28.6551 40 31.7099 40 34.0435 38.8109C36.0962 37.7651 37.7651 36.0962 38.8109 34.0435C40 31.7099 40 28.6551 40 22.5454V17.4545C40 15.8935 40 14.532 39.9801 13.3309C39.9713 12.7975 39.9669 12.5308 39.8986 12.2593C39.8399 12.0257 39.7371 11.7825 39.6106 11.5775C39.4636 11.3393 39.2666 11.1413 38.8727 10.7453L29.319 1.14304C28.8994 0.721249 28.6895 0.510334 28.4444 0.359491C28.227 0.225755 27.9899 0.127182 27.7418 0.0674138C27.4619 0 27.1644 0 26.5694 0H17.4545Z" fill="#2EC86B"/>
<mask id="mask0" mask-type="alpha" maskUnits="userSpaceOnUse" x="27" y="0" width="13" height="13">
<path d="M27.8788 0H29.0909C35.1158 0 40 4.88416 40 10.9091V12.1212H27.8788V0Z" fill="white"/>
</mask>
<g mask="url(#mask0)">
<path opacity="0.5" d="M27.8788 -4.84844C27.8788 -7.10017 27.8788 -8.22603 28.0032 -9.17123C28.8625 -15.6983 33.9986 -20.8344 40.5256 -21.6937C41.4708 -21.8181 42.5967 -21.8181 44.8484 -21.8181C47.1002 -21.8181 48.226 -21.8181 49.1712 -21.6937C55.6983 -20.8344 60.8344 -15.6983 61.6937 -9.17123C61.8181 -8.22603 61.8181 -7.10017 61.8181 -4.84844C61.8181 -2.5967 61.8181 -1.47084 61.6937 -0.525637C60.8344 6.00139 55.6983 11.1375 49.1712 11.9968C48.226 12.1212 47.1002 12.1212 44.8484 12.1212H41.4545C37.8447 12.1212 36.0399 12.1212 34.5792 11.6466C31.6271 10.6874 29.3126 8.37293 28.3534 5.42081C27.8788 3.96013 27.8788 2.15525 27.8788 -1.4545V-4.84844Z" fill="white"/>
</g>
<path d="M9.93241 17.4323C8.50646 17.4323 7.36485 18.5481 7.36485 19.9304V28.718C7.36485 30.0963 8.51162 31.2161 9.93241 31.2161C11.3582 31.2161 12.5 30.1001 12.5 28.718V19.9304C12.5 18.5522 11.3532 17.4323 9.93241 17.4323ZM24.1216 8.78369C19.422 8.78369 15.6081 12.548 15.6081 17.1819V28.7258C15.6081 30.1 16.7379 31.2161 18.1341 31.2161C19.53 31.2161 20.6601 30.0998 20.6601 28.7258V17.1819C20.6601 15.2962 22.2145 13.7644 24.1216 13.7644C26.0267 13.7644 27.5831 15.2984 27.5831 17.1819V28.7258C27.5831 30.1 28.713 31.2161 30.1091 31.2161C31.5051 31.2161 32.6351 30.0998 32.6351 28.7258V17.1819C32.6351 12.5505 28.8195 8.78369 24.1216 8.78369ZM9.93241 8.78369C8.09606 8.78369 6.60739 10.2724 6.60739 12.1087C6.60739 13.9451 8.09606 15.4337 9.93241 15.4337C11.7688 15.4337 13.2574 13.9451 13.2574 12.1087C13.2574 10.2724 11.7688 8.78369 9.93241 8.78369Z" fill="white"/>
</svg>
