<svg width="35" height="35" viewBox="0 0 35 35" fill="none" xmlns="http://www.w3.org/2000/svg">
<path fill-rule="evenodd" clip-rule="evenodd" d="M13.5402 11.2067C12.8958 10.5624 11.8511 10.5624 11.2067 11.2067C10.5624 11.8511 10.5624 12.8958 11.2067 13.5402L15.1665 17.4999L11.2067 21.4598C10.5623 22.1041 10.5623 23.1489 11.2067 23.7932C11.851 24.4376 12.8958 24.4376 13.5401 23.7932L17.4999 19.8334L21.4598 23.7932C22.1041 24.4376 23.1489 24.4376 23.7932 23.7932C24.4376 23.1489 24.4376 22.1041 23.7932 21.4598L19.8334 17.4999L23.7932 13.5402C24.4375 12.8958 24.4375 11.8511 23.7932 11.2067C23.1488 10.5624 22.1041 10.5624 21.4597 11.2067L17.4999 15.1665L13.5402 11.2067Z" fill="white"/>
</svg>
