<svg width="42" height="42" viewBox="0 0 42 42" fill="none" xmlns="http://www.w3.org/2000/svg">
<path fill-rule="evenodd" clip-rule="evenodd" d="M8.75 38.5C8.75 39.8977 10.3078 40.7314 11.4707 39.9561C11.4707 39.9561 16.6588 36.4688 16.9636 36.2818C18.276 36.5918 19.6281 36.75 21 36.75C30.665 36.75 38.5 28.915 38.5 19.25C38.5 9.58502 30.665 1.75 21 1.75C11.335 1.75 3.5 9.58502 3.5 19.25C3.5 24.0175 5.41897 28.4792 8.74118 31.739C8.74118 32.2935 8.75 38.5 8.75 38.5ZM7.00004 19.25C7.00004 11.518 13.2681 5.24999 21 5.24999C28.732 5.24999 35 11.518 35 19.25C35 26.982 28.732 33.25 21 33.25C19.6789 33.25 18.3839 33.0675 17.1403 32.7116C16.6464 32.5703 16.1155 32.6531 15.6881 32.938L12.25 35.2794V30.9895C12.25 30.4918 12.0381 30.0175 11.6671 29.6856C8.71635 27.0445 7.00004 23.2877 7.00004 19.25ZM14.8295 13.6686L16.01 12.4884C16.3315 12.167 16.8596 12.1739 17.1748 12.489L19.5289 14.8425C19.8562 15.1697 19.8543 15.6938 19.5298 16.0182C19.203 16.3448 19.0825 16.9476 19.2556 17.3696C19.2556 17.3696 19.529 18.3669 20.7032 19.5409C21.8775 20.7148 22.877 20.9902 22.877 20.9902C23.2948 21.1725 23.9056 21.0417 24.2301 20.7173C24.5568 20.3906 25.0811 20.3933 25.406 20.7181L27.7601 23.0717C28.082 23.3934 28.0779 23.9191 27.7607 24.2362L26.5802 25.4164C25.6068 26.3896 23.9026 26.5363 22.8028 25.7207C22.8028 25.7207 21.2578 24.7944 18.33 21.8673C15.4022 18.9403 14.5234 17.4503 14.5234 17.4503C13.719 16.3349 13.858 14.6398 14.8295 13.6686Z" fill="black"/>
</svg>
