<svg width="50" height="50" viewBox="0 0 50 50" fill="none" xmlns="http://www.w3.org/2000/svg">
<path fill-rule="evenodd" clip-rule="evenodd" d="M10 24.8368C10 23.5436 11.0483 22.4953 12.3414 22.4953H33.7956C35.0888 22.4953 36.1371 23.5436 36.1371 24.8368C36.1371 26.1299 35.0888 27.1782 33.7956 27.1782H12.3414C11.0483 27.1782 10 26.1299 10 24.8368Z" fill="white"/>
<path fill-rule="evenodd" clip-rule="evenodd" d="M26.0251 13.5058C26.96 12.6124 28.4422 12.6461 29.3356 13.581L38.7014 23.3824C39.5662 24.2874 39.5662 25.7126 38.7014 26.6176L29.3356 36.419C28.4422 37.3539 26.96 37.3876 26.0251 36.4943C25.0902 35.6009 25.0565 34.1187 25.9499 33.1838L33.7699 25L25.9499 16.8162C25.0565 15.8813 25.0902 14.3991 26.0251 13.5058Z" fill="white"/>
</svg>
