<svg width="91" height="35" viewBox="0 0 91 35" fill="none" xmlns="http://www.w3.org/2000/svg">
<path d="M0 15.2727C0 9.92677 0 7.25379 1.04039 5.21191C1.95555 3.41582 3.41582 1.95555 5.21191 1.04039C7.25379 0 9.92677 0 15.2727 0H19.7273C25.0732 0 27.7462 0 29.7881 1.04039C31.5842 1.95555 33.0444 3.41582 33.9596 5.21191C35 7.25379 35 9.92677 35 15.2727V19.7273C35 25.0732 35 27.7462 33.9596 29.7881C33.0444 31.5842 31.5842 33.0444 29.7881 33.9596C27.7462 35 25.0732 35 19.7273 35H15.2727C9.92677 35 7.25379 35 5.21191 33.9596C3.41582 33.0444 1.95555 31.5842 1.04039 29.7881C0 27.7462 0 25.0732 0 19.7273V15.2727Z" fill="#D2E3D6"/>
<path d="M15.2727 0C9.92677 0 7.25379 0 5.21191 1.04039C3.41582 1.95555 1.95555 3.41582 1.04039 5.21191C0 7.25379 0 9.92677 0 15.2727V19.7273C0 25.0732 0 27.7462 1.04039 29.7881C1.95555 31.5842 3.41582 33.0445 5.21191 33.9596C7.25379 35 9.92677 35 15.2727 35H19.7273C25.0732 35 27.7462 35 29.7881 33.9596C31.5842 33.0445 33.0444 31.5842 33.9596 29.7881C35 27.7462 35 25.0732 35 19.7273V15.2727C35 13.9069 35 12.7155 34.9826 11.6645C34.9749 11.1978 34.9711 10.9644 34.9113 10.7269C34.8599 10.5225 34.77 10.3097 34.6593 10.1303C34.5307 9.92186 34.3583 9.74863 34.0136 9.40217L25.6542 1.00016C25.287 0.631093 25.1034 0.446543 24.8888 0.314555C24.6986 0.197535 24.4912 0.111284 24.2741 0.0589872C24.0292 0 23.7689 0 23.2482 0H15.2727Z" fill="#2EC86B"/>
<mask id="mask0" mask-type="alpha" maskUnits="userSpaceOnUse" x="24" y="0" width="11" height="11">
<path d="M24.3939 0H25.4545C30.7263 0 35 4.27365 35 9.54545V10.6061H24.3939V0Z" fill="white"/>
</mask>
<g mask="url(#mask0)">
<path opacity="0.5" d="M24.3939 -4.24234C24.3939 -6.2126 24.3939 -7.19774 24.5028 -8.02479C25.2547 -13.7359 29.7488 -18.23 35.4599 -18.9819C36.287 -19.0908 37.2721 -19.0908 39.2424 -19.0908C41.2127 -19.0908 42.1978 -19.0908 43.0248 -18.9819C48.736 -18.23 53.2301 -13.7359 53.982 -8.02479C54.0909 -7.19774 54.0909 -6.2126 54.0909 -4.24234C54.0909 -2.27207 54.0909 -1.28694 53.982 -0.459883C53.2301 5.25127 48.736 9.74538 43.0248 10.4973C42.1978 10.6061 41.2127 10.6061 39.2424 10.6061H36.2727C33.1142 10.6061 31.5349 10.6061 30.2568 10.1909C27.6737 9.35157 25.6485 7.32637 24.8092 4.74326C24.3939 3.46517 24.3939 1.8859 24.3939 -1.27264V-4.24234Z" fill="white"/>
</g>
<path d="M8.69089 15.2535C7.44318 15.2535 6.44427 16.2298 6.44427 17.4393V25.1285C6.44427 26.3344 7.44769 27.3143 8.69089 27.3143C9.93849 27.3143 10.9375 26.3378 10.9375 25.1285V17.4393C10.9375 16.2333 9.93409 15.2535 8.69089 15.2535ZM21.1064 7.68591C16.9942 7.68591 13.6571 10.9797 13.6571 15.0344V25.1352C13.6571 26.3377 14.6457 27.3143 15.8673 27.3143C17.0888 27.3143 18.0776 26.3376 18.0776 25.1352V15.0344C18.0776 13.3843 19.4377 12.044 21.1064 12.044C22.7734 12.044 24.1353 13.3863 24.1353 15.0344V25.1352C24.1353 26.3377 25.1239 27.3143 26.3455 27.3143C27.567 27.3143 28.5557 26.3376 28.5557 25.1352V15.0344C28.5557 10.9818 25.2171 7.68591 21.1064 7.68591ZM8.69089 7.68591C7.08408 7.68591 5.78149 8.9885 5.78149 10.5953C5.78149 12.2021 7.08408 13.5047 8.69089 13.5047C10.2977 13.5047 11.6003 12.2021 11.6003 10.5953C11.6003 8.9885 10.2977 7.68591 8.69089 7.68591Z" fill="white"/>
<path d="M53.0684 7.68591C54.2561 7.68591 55.2235 8.60903 55.2764 9.7653L55.2787 9.86497V25.1352C55.2787 26.3376 54.2899 27.3143 53.0684 27.3143C52.3532 27.3143 51.7179 26.9796 51.3141 26.4608C50.2741 27.0057 49.088 27.3143 47.8293 27.3143C43.7688 27.3143 40.4616 24.0982 40.3815 20.1138L40.38 19.9658V19.3244C40.38 19.2676 40.3822 19.2112 40.3866 19.1555L40.3817 19.0716L40.38 18.9866V15.0344C40.38 10.9797 43.7171 7.68591 47.8293 7.68591L47.8662 7.68639L47.8663 7.68591H53.0684ZM47.8293 12.044C46.1969 12.044 44.8598 13.3267 44.8024 14.9272L44.8005 15.0344V18.9866C44.8005 19.0436 44.7983 19.1001 44.7939 19.156L44.7988 19.2396L44.8005 19.3244V19.9658C44.8005 21.6139 46.1623 22.9562 47.8293 22.9562C49.4618 22.9562 50.7989 21.6735 50.8563 20.073L50.8582 19.9658L50.8578 16.0358L50.8589 16.036V12.9905C50.8589 12.4681 50.4354 12.0446 49.913 12.0446H48.0812C48.0412 12.0446 48.0014 12.0454 47.9618 12.0471C47.9182 12.045 47.8739 12.044 47.8293 12.044Z" fill="#2EC86B"/>
<path d="M60.1914 7.68591C59.0037 7.68591 58.0362 8.60903 57.9834 9.7653L57.9811 9.86497V30.8109C57.9811 32.0132 58.9699 32.99 60.1914 32.99C61.379 32.99 62.3465 32.0668 62.3993 30.9106L62.4016 30.8109L62.402 27.3138L65.3935 27.3143H65.4304C69.491 27.3143 72.7982 24.0983 72.8783 20.1138L72.8798 19.9658V19.3244C72.8798 19.2676 72.8776 19.2112 72.8732 19.1555L72.8781 19.0716L72.8798 18.9866V15.0344C72.8798 10.9797 69.5426 7.68591 65.4304 7.68591L65.3935 7.68639L65.3935 7.68591H60.1914ZM65.4304 12.044C67.0629 12.044 68.4 13.3267 68.4574 14.9272L68.4593 15.0344V18.9866C68.4593 19.0436 68.4615 19.1001 68.4659 19.156L68.4609 19.2396L68.4593 19.3244V19.9658C68.4593 21.6139 67.0974 22.9562 65.4304 22.9562C65.3881 22.9562 65.3459 22.9553 65.3039 22.9536C65.2804 22.9543 65.2567 22.9545 65.2329 22.9545H63.3468C62.8244 22.9545 62.4009 22.531 62.4009 22.0086V18.9632L62.402 18.963V16.0358L62.4009 16.036V12.9906C62.4009 12.4681 62.8244 12.0446 63.3468 12.0446H65.1786C65.2186 12.0446 65.2584 12.0454 65.298 12.0471C65.3416 12.045 65.3859 12.044 65.4304 12.044Z" fill="#2EC86B"/>
<path d="M77.7925 7.68591C76.6049 7.68591 75.6374 8.60903 75.5846 9.7653L75.5823 9.86497V30.8109C75.5823 32.0132 76.5711 32.99 77.7925 32.99C78.9802 32.99 79.9477 32.0668 80.0005 30.9106L80.0028 30.8109L80.0032 27.3138L82.9947 27.3143H83.0316C87.0922 27.3143 90.3994 24.0983 90.4795 20.1138L90.481 19.9658V19.3244C90.481 19.2676 90.4787 19.2112 90.4744 19.1555L90.4793 19.0716L90.481 18.9866V15.0344C90.481 10.9797 87.1438 7.68591 83.0316 7.68591L82.9947 7.68639L82.9947 7.68591H77.7925ZM83.0316 12.044C84.6641 12.044 86.0012 13.3267 86.0586 14.9272L86.0605 15.0344V18.9866C86.0605 19.0436 86.0627 19.1001 86.0671 19.156L86.0621 19.2396L86.0605 19.3244V19.9658C86.0605 21.6139 84.6986 22.9562 83.0316 22.9562C82.9893 22.9562 82.9471 22.9553 82.9051 22.9536C82.8816 22.9543 82.8579 22.9545 82.8341 22.9545H80.948C80.4256 22.9545 80.0021 22.531 80.0021 22.0086V18.9632L80.0032 18.963V16.0358L80.0021 16.036V12.9906C80.0021 12.4681 80.4256 12.0446 80.948 12.0446H82.7798C82.8198 12.0446 82.8596 12.0454 82.8991 12.0471C82.9428 12.045 82.9871 12.044 83.0316 12.044Z" fill="#2EC86B"/>
</svg>
