<svg width="144" height="40" viewBox="0 0 144 40" fill="none" xmlns="http://www.w3.org/2000/svg">
<path fill-rule="evenodd" clip-rule="evenodd" d="M67.7699 11.2232C60.308 4.04439 48.8235 0.72448 37.5872 0.150957C26.3489 -0.422678 16.2525 0.471151 6.97207 5.7647C6.94664 5.77921 6.92175 5.79476 6.89755 5.81124L6.67043 5.9658C6.52567 6.06427 6.31876 6.20491 6.07031 6.37354C5.57332 6.71086 4.91056 7.15987 4.24677 7.6071C3.84809 7.87571 3.45005 8.143 3.08784 8.38474C3.10751 8.23977 3.12989 8.08604 3.1537 7.92253L3.15372 7.9224L3.16643 7.83503C3.24022 7.32727 3.36238 5.71044 3.34847 5.14983C3.33525 4.61674 3.22857 3.85778 2.64989 3.30544C2.48923 3.15209 2.19991 2.9749 1.81154 2.99953C1.45808 3.02194 1.22509 3.2009 1.12108 3.29801C0.94114 3.46602 0.861061 3.65567 0.843954 3.69618L0.842398 3.69985C0.789851 3.82302 0.759254 3.94907 0.74351 4.01695C0.705406 4.18124 0.66833 4.3979 0.633205 4.62832C0.593203 4.89073 0.539717 5.51593 0.486777 6.13477C0.444492 6.62905 0.402554 7.11926 0.368113 7.4173C0.212602 8.763 0.0632091 10.2724 0.0115804 10.8626C-0.0250991 11.282 0.016679 11.7513 0.263513 12.1727C0.527366 12.6232 0.936834 12.8696 1.33962 12.9787C2.03133 13.1662 2.81816 12.9806 3.37939 12.8128C3.96803 12.6367 4.59344 12.3848 5.11521 12.1746L5.19893 12.1409C5.79512 11.901 6.176 11.7555 6.3832 11.7146C6.87249 11.6182 7.27904 11.5301 7.63557 11.4527C8.94354 11.169 9.57813 11.0314 11.1546 11.1693C11.7612 11.2224 12.2961 10.7735 12.3492 10.1667C12.4022 9.55991 11.9535 9.02495 11.3468 8.97186C9.41956 8.80321 8.46815 9.01094 7.08288 9.31339C6.74105 9.38803 6.37279 9.46843 5.95693 9.55037C5.58587 9.62348 5.11778 9.79859 4.68372 9.97099C4.94224 9.79778 5.21093 9.61715 5.4789 9.43661C6.14551 8.98747 6.81051 8.53695 7.30867 8.19883C7.5578 8.02974 7.76531 7.88869 7.91057 7.78989L8.10228 7.65943C14.7516 3.88184 26.5302 1.79532 37.4748 2.35396C48.4424 2.91377 59.3162 6.15086 66.241 12.813C66.6799 13.2353 67.378 13.2217 67.8002 12.7827C68.2224 12.3437 68.2088 11.6455 67.7699 11.2232ZM137.761 23.8894C138.312 23.2666 138.605 22.4661 138.639 21.4881C138.655 21.0232 138.518 20.593 138.226 20.1976C137.935 19.8021 137.646 19.5994 137.357 19.5893C137.277 19.5865 137.196 19.6078 137.114 19.6531C137.185 19.4629 137.15 19.3012 137.011 19.1679C136.887 19.0191 136.698 18.9402 136.441 18.9313C136.201 18.9229 135.91 18.9849 135.568 19.1175C134.966 19.3373 134.374 19.75 133.791 20.3557C133.209 20.9614 132.908 21.5127 132.891 22.0097C132.869 22.6511 133.048 23.2673 133.428 23.8585C133.87 24.5321 134.436 24.8809 135.125 24.905C136.247 24.9442 137.126 24.6056 137.761 23.8894ZM142.978 31.6564C143.631 30.8927 143.968 30.1901 143.991 29.5488C144.01 28.9877 143.999 28.61 143.958 28.416C143.933 28.2064 143.829 27.9861 143.644 27.7549C143.662 27.6913 143.673 27.6034 143.677 27.4912C143.691 27.1064 143.598 26.766 143.4 26.4702C143.218 26.1749 142.95 26.0211 142.598 26.0087C142.453 26.0037 142.308 26.0227 142.162 26.0658C141.48 26.2988 140.747 26.851 139.962 27.7226C139.193 28.5947 138.798 29.3434 138.776 29.9686C138.749 30.7382 138.848 31.3517 139.073 31.809C139.403 32.4787 139.992 32.8283 140.842 32.858C141.563 32.8832 142.275 32.4827 142.978 31.6564ZM141.398 21.7531C142.364 20.2939 143.151 19.1175 143.76 18.2238C143.766 18.0474 143.724 17.8854 143.633 17.7377C143.542 17.574 143.377 17.488 143.136 17.4796C142.479 17.4566 141.59 18.3325 140.468 20.1073C139.477 21.8385 138.485 23.5856 137.493 25.3489C136.501 27.1121 135.572 28.8775 134.708 30.6452C133.86 32.4135 133.214 33.8918 132.772 35.0803C132.719 35.2069 132.691 35.3263 132.687 35.4385C132.68 35.6309 132.715 35.7927 132.79 35.9237C132.882 36.0714 132.999 36.1638 133.142 36.2009C133.46 36.2762 133.878 35.7932 134.396 34.7518C134.622 34.246 134.857 33.7405 135.099 33.2353C135.565 32.2885 136.365 30.7513 137.499 28.6238C137.911 27.8676 138.134 27.442 138.169 27.347C139.222 25.2487 140.298 23.3841 141.398 21.7531ZM136.577 20.5493C136.916 20.9624 137.077 21.4095 137.06 21.8905C137.049 22.2111 136.86 22.5577 136.494 22.9302C136.145 23.2872 135.787 23.4192 135.421 23.3261C135.151 23.2364 134.932 23.0923 134.762 22.8938C134.593 22.6792 134.513 22.4516 134.521 22.2111C134.535 21.8103 134.781 21.4417 135.258 21.1052C135.735 20.7687 136.175 20.5834 136.577 20.5493ZM142.212 28.7884C142.301 29.0002 142.341 29.2103 142.334 29.4187C142.325 29.6752 142.169 29.9989 141.867 30.3896C141.564 30.7804 141.285 30.9713 141.028 30.9623C140.836 30.9556 140.709 30.903 140.649 30.8046C140.588 30.7061 140.563 30.4966 140.574 30.1759C140.587 29.8072 140.762 29.4039 141.098 28.9662C141.383 28.607 141.682 28.3284 141.994 28.1307C142.005 28.2595 142.078 28.4787 142.212 28.7884ZM117.14 28.611C118.087 28.1304 118.566 27.7458 118.576 27.4572C118.585 27.2167 118.519 27.0458 118.378 26.9446C118.237 26.8273 118.039 26.7642 117.782 26.7553C117.462 26.7441 116.535 27.0969 115.001 27.8139C114.136 28.2171 113.427 28.5375 112.873 28.775C114.155 26.5403 114.839 25.3361 114.925 25.1626C115.805 23.4115 116.266 21.9347 116.308 20.7322C116.335 19.9466 116.195 19.3638 115.887 18.9839C115.657 18.6869 115.349 18.5317 114.964 18.5182C114.5 18.502 113.942 18.627 113.29 18.8932C112.77 19.0997 112.303 19.3483 111.892 19.6389C110.824 20.3401 109.884 21.0617 109.072 21.8038C108.343 22.4526 107.976 22.8571 107.97 23.0175C107.962 23.274 107.994 23.4918 108.068 23.671C108.158 23.8507 108.315 23.9445 108.54 23.9523C108.796 23.9613 109.61 23.3958 110.982 22.2558C112.371 21.1004 113.249 20.5451 113.616 20.5901C114.161 20.6091 114.424 20.9072 114.404 21.4844C114.396 21.7089 113.932 22.8003 113.013 24.7587C112.25 26.3855 111.464 27.9953 110.654 29.5884C110.483 29.8874 110.328 30.179 110.19 30.4631C110.052 30.7311 109.98 30.9774 109.972 31.2019C109.955 31.6668 110.26 31.9102 110.885 31.9321C111.11 31.9399 111.607 31.7085 112.378 31.2378C113.788 30.372 114.51 29.9317 114.542 29.9168L117.14 28.611ZM42.7873 25.9177C42.7426 27.2003 41.8082 28.2191 39.9844 28.9741C38.6653 29.5219 37.613 29.7822 36.8275 29.7547C36.5871 29.7463 36.4739 29.5417 36.4879 29.1409C36.4907 29.0607 37.1799 28.6273 38.5555 27.8406C39.9311 27.0539 40.6258 26.4602 40.6398 26.0594C40.6594 25.4982 40.5756 25.1421 40.3883 24.9911C40.217 24.8407 39.6665 24.7492 38.7367 24.7167L37.246 24.6646C37.0536 24.6579 36.8793 24.5957 36.7229 24.4778C36.5826 24.3606 36.516 24.1977 36.5233 23.9893C36.5283 23.845 36.7872 23.3243 37.3 22.4272C37.8289 21.5307 38.0966 20.9862 38.1034 20.7938C38.1106 20.5854 38.067 20.4555 37.9725 20.404C37.8941 20.3531 37.7346 20.3235 37.4942 20.3151C37.2216 20.3055 36.8725 20.4218 36.4468 20.6637C36.0211 20.9057 35.7673 21.0493 35.6855 21.0946C35.7384 21.4175 35.78 21.8364 35.8101 22.3511C35.8569 22.8504 35.8968 23.3173 35.9297 23.7518C36.0512 25.3292 36.1213 26.3109 36.1399 26.6968C36.1751 27.0672 36.1868 27.4208 36.1751 27.7575C36.1521 28.4148 36.087 28.9021 35.9796 29.2194C35.8717 29.5528 35.6734 29.7144 35.3849 29.7043C35.0964 29.6943 34.8764 29.5581 34.7251 29.296C34.5737 29.0339 34.5121 28.502 34.5401 27.7004C34.554 27.2995 34.5396 26.7934 34.4968 26.1819C34.4705 25.5549 34.3916 24.597 34.2601 23.3083C34.1725 22.5989 34.0979 21.9783 34.0362 21.4464C33.9911 20.899 33.9733 20.4891 33.9828 20.2165C34.0041 19.6072 34.2872 19.3121 34.8322 19.3312C35.0406 19.3385 35.2197 19.4972 35.3693 19.8074C36.5967 19.1279 37.531 18.7994 38.1722 18.8218C38.8294 18.8447 39.347 18.9591 39.725 19.165C40.1196 19.3553 40.3127 19.5708 40.3043 19.8112C40.2869 20.3083 40.0399 20.9498 39.563 21.7357C39.0868 22.5057 38.6335 23.0758 38.2033 23.446L39.1892 23.4804C39.7502 23.5 40.254 23.5497 40.7006 23.6295C41.1477 23.6933 41.5045 23.8181 41.7708 24.004C42.1466 24.274 42.4093 24.5641 42.559 24.8743C42.7247 25.1851 42.8008 25.5329 42.7873 25.9177ZM55.0848 28.3698C55.0607 29.0592 54.995 29.5626 54.8877 29.8799C54.7803 30.1972 54.5743 30.3505 54.2698 30.3399C53.9812 30.3298 53.7687 30.21 53.6323 29.9805C53.4506 29.6691 53.3737 29.1127 53.4017 28.311C53.4157 27.9102 53.4013 27.404 53.3584 26.7925C53.3322 26.1656 53.2533 25.2077 53.1217 23.9189C53.0342 23.2095 52.9595 22.5889 52.8979 22.057C52.8528 21.5097 52.835 21.0997 52.8445 20.8271C52.8663 20.2019 53.1578 19.899 53.7188 19.9186C53.8791 19.9242 54.0449 20.0022 54.2162 20.1527C54.341 20.2534 54.4098 20.3521 54.4225 20.4488L54.8395 24.3642C54.961 25.9415 55.031 26.9232 55.0496 27.3091C55.0848 27.6795 55.0966 28.0331 55.0848 28.3698ZM52.5795 25.6577C52.5476 26.5716 51.5307 27.6597 49.5286 28.9222C47.7399 30.0476 46.6052 30.6019 46.1243 30.5851C45.8358 30.575 45.6233 30.4552 45.4868 30.2257C45.3051 29.9144 45.2283 29.3579 45.2562 28.5562C45.2742 28.0432 45.2322 27.4076 45.1302 26.6496L44.8261 24.3274C44.7794 23.8282 44.7113 23.2479 44.6221 22.5866C44.5334 21.9093 44.4461 21.192 44.3602 20.4345C44.3708 20.1299 44.4102 19.9226 44.4782 19.8126C44.5462 19.7026 44.7245 19.6526 45.0131 19.6627C45.2856 19.6722 45.5323 19.729 45.7534 19.833C45.991 19.9216 46.1223 20.0706 46.147 20.2802C46.1884 20.4743 46.2846 21.1679 46.4355 22.361C46.587 23.5382 46.6732 24.2876 46.694 24.6094C46.7782 25.415 46.8432 26.0834 46.8888 26.6147C46.9511 27.1306 46.9746 27.6049 46.9595 28.0378L46.9444 28.4707C48.2016 27.8565 49.1932 27.2651 49.9193 26.6965C50.4965 26.2511 50.7902 25.8842 50.8003 25.5956C50.8115 25.2749 50.7148 25.0548 50.5104 24.9353C50.3065 24.7998 49.924 24.7222 49.3629 24.7026C49.0263 24.6908 48.6366 24.8217 48.1937 25.0952C47.9643 25.2316 47.7854 25.2976 47.6572 25.2932C47.4328 25.2853 47.2733 25.2557 47.1788 25.2042C46.9898 25.1013 46.9006 24.8975 46.9113 24.5929C46.9213 24.3043 47.2125 24.0095 47.7847 23.7084C48.3735 23.3919 48.9164 23.2423 49.4133 23.2596C50.5995 23.3011 51.4266 23.5146 51.8946 23.9001C52.3787 24.2862 52.607 24.8721 52.5795 25.6577ZM65.0542 27.803C65.7315 27.2488 66.0781 26.7472 66.0937 26.2983C66.1027 26.0418 66.0676 25.8961 65.9886 25.8612C65.9262 25.8109 65.7908 25.7821 65.5824 25.7748C65.4061 25.7686 64.9134 26.0885 64.1045 26.7345C63.0483 27.5644 62.2571 28.1628 61.7307 28.5297C61.7492 28.0006 61.849 26.752 62.03 24.7839C62.2111 22.8157 62.3089 21.6232 62.3234 21.2064C62.3402 20.7254 62.2392 20.4008 62.0204 20.2326C61.8176 20.065 61.5078 19.974 61.0911 19.9594C60.2255 19.9292 59.2012 20.5355 58.0183 21.7784C56.9687 22.8814 56.4361 23.6574 56.4204 24.1064C56.4098 24.411 56.6529 24.572 57.1498 24.5893C57.2941 24.5944 57.7912 24.1462 58.6412 23.2449C59.5078 22.328 59.9972 21.8716 60.1094 21.8755C60.43 21.8867 60.583 22.1007 60.5684 22.5176C60.5656 22.5977 60.4927 23.0768 60.3497 23.9547C60.2233 24.8171 60.1503 25.5289 60.1307 26.09L60.004 29.7215C59.9944 29.994 60.0994 30.2064 60.3187 30.3585C60.5381 30.5106 60.776 30.5912 61.0325 30.6002C61.4333 30.6141 62.1371 30.2214 63.144 29.4218C63.7561 28.8974 64.3928 28.3578 65.0542 27.803ZM74.0573 24.313C73.9991 25.9805 73.7114 27.3268 73.1941 28.3522C72.5385 29.6617 71.5856 30.2945 70.3353 30.2509C69.3094 30.215 68.5033 29.8578 67.9172 29.1792C67.331 28.5006 67.0569 27.6161 67.095 26.5259C67.1387 25.2753 67.3942 24.1606 67.8617 23.1816C68.5373 21.7605 69.5483 21.0735 70.8948 21.1205C71.8085 21.1524 72.5667 21.4999 73.1694 22.1631C73.7888 22.8108 74.0848 23.5274 74.0573 24.313ZM72.2663 24.5876C72.282 24.1387 72.1597 23.7331 71.8995 23.3708C71.5775 22.9422 71.1439 22.7184 70.5989 22.6994C70.1501 22.6837 69.7196 23.0619 69.3075 23.8341C68.8953 24.6063 68.6708 25.5215 68.6338 26.5796C68.6182 27.0286 68.7871 27.4759 69.1407 27.9217C69.4942 28.3674 69.8634 28.597 70.2481 28.6105C71.0496 28.6385 71.6139 28.1044 71.941 27.0082C72.1226 26.4045 72.231 25.5977 72.2663 24.5876ZM83.8078 22.5347C83.9708 22.4601 84.0566 22.3026 84.065 22.0621C84.0784 21.6773 83.8876 21.3977 83.4924 21.2234C83.2714 21.1194 83.0006 21.0618 82.68 21.0506C81.7022 21.0164 80.3229 21.9073 78.5423 23.7232C76.6787 25.6166 75.7225 27.2606 75.6738 28.6555C75.6453 29.4732 75.8003 30.0886 76.139 30.5017C76.4312 30.8651 76.8579 31.0566 77.4189 31.0762C78.028 31.0975 78.8018 30.7713 79.7401 30.0978C80.5302 29.5314 81.2187 28.8893 81.8054 28.1714C81.797 28.4119 81.8473 29.0397 81.9563 30.0548C82.0653 31.0699 82.1064 31.9623 82.0795 32.7318C82.1173 33.4876 82.1687 34.3161 82.2335 35.2173C82.3144 36.1191 82.3856 36.8359 82.4473 37.3678C80.6586 34.8172 79.7336 33.5007 79.6723 33.4183C79.1038 32.6921 78.6994 32.3248 78.4589 32.3164C78.2505 32.3092 78.1051 32.3362 78.0228 32.3975C77.9558 32.4754 77.9187 32.6186 77.9115 32.8271C77.907 32.9553 77.9721 33.1582 78.1069 33.4358C78.3482 33.8777 78.5973 34.3278 78.8542 34.7863C79.2154 35.4731 79.594 36.1204 79.99 36.7282C80.5242 37.5173 81.0581 38.3145 81.5917 39.1198C81.8204 39.4648 82.0533 39.6897 82.2904 39.7943C82.5269 39.9149 82.8776 39.9833 83.3424 39.9996C83.5989 40.0085 83.772 39.8781 83.8616 39.6084C83.9673 39.3392 84.0294 38.94 84.0479 38.4109C84.0436 38.0737 84.0396 37.7284 84.0359 37.3751C84.0316 37.0379 84.0354 36.7009 84.0471 36.3642C84.0723 35.6427 84.0574 34.9199 84.0025 34.1956C83.9635 33.4719 83.9004 32.5226 83.813 31.3477L83.4224 25.9886C83.4235 25.9565 83.4343 25.8766 83.4548 25.7489C83.4753 25.6212 83.4867 25.5253 83.4889 25.4611C83.4962 25.2527 83.4382 25.0741 83.315 24.9253C83.1918 24.7766 82.9619 24.6963 82.6253 24.6845C82.3528 24.675 82.1714 24.8132 82.0812 25.099C81.9351 25.6075 81.7365 26.0099 81.4854 26.3062C80.9323 26.9771 80.2671 27.6441 79.4896 28.3072C78.7122 28.9703 78.1792 29.2968 77.8906 29.2868C77.6822 29.2795 77.5634 29.2352 77.5342 29.1539C77.5055 29.0566 77.4812 28.831 77.4615 28.4772C77.4895 27.6755 78.2456 26.4739 79.7299 24.8724C81.1639 23.3332 82.1534 22.5732 82.6984 22.5922L83.0831 22.6057C83.4037 22.6169 83.6452 22.5932 83.8078 22.5347ZM94.8896 30.6029C94.879 30.9075 94.7655 31.1684 94.5493 31.3856C94.3486 31.6193 94.144 31.7326 93.9356 31.7253C93.5188 31.7108 93.1518 31.1923 92.8344 30.1699C92.6329 29.5047 92.4539 28.6557 92.2974 27.6229C91.757 28.3906 91.0735 29.1212 90.2468 29.8146C89.2554 30.6308 88.4551 31.0282 87.846 31.007C87.3971 30.9913 87.0192 30.7855 86.712 30.3895C86.4048 29.9935 86.2597 29.555 86.2765 29.074C86.3173 27.9036 87.0659 26.2282 88.5223 24.0478C90.0467 21.7573 91.2897 20.6289 92.2515 20.6625C92.4599 20.6698 92.6265 20.7238 92.7514 20.8244C92.8923 20.9257 92.9588 21.0885 92.951 21.313C92.9421 21.5695 92.6721 21.9454 92.1413 22.4405C91.2455 23.276 90.6803 23.8342 90.4458 24.1149C89.8939 24.7538 89.343 25.5934 88.7931 26.6336C88.2592 27.6745 87.987 28.3472 87.9763 28.6518C87.9696 28.8442 87.9812 28.973 88.011 29.0383C88.0568 29.1041 88.1679 29.1401 88.3443 29.1462C88.729 29.1597 89.4281 28.6704 90.4418 27.6784C91.472 26.671 91.9913 26.0471 91.9997 25.8066C92.0092 25.534 92.1287 25.3295 92.3581 25.193C92.6036 25.0571 92.8145 24.9923 92.9909 24.9984C93.1351 25.0035 93.2929 25.0812 93.4642 25.2317C93.636 25.3661 93.7415 25.5624 93.7807 25.8206C93.8204 26.0628 93.8873 26.4424 93.9816 26.9593C94.092 27.4769 94.1893 27.9057 94.2738 28.2457C94.3587 28.5697 94.5014 29.0804 94.7017 29.7776C94.8309 30.2155 94.8935 30.4906 94.8896 30.6029ZM130.756 25.5229C130.693 27.3186 129.885 28.8555 128.332 30.1336C126.927 31.2885 125.48 31.8399 123.989 31.7878C123.027 31.7542 122.217 31.3005 121.557 30.4267C120.897 29.5529 120.591 28.4426 120.638 27.0958C120.678 25.9414 121.198 24.6272 122.196 23.1531C123.499 21.2242 125.097 20.2928 126.988 20.3588C127.164 20.365 127.315 20.4264 127.439 20.5431C127.58 20.6444 127.647 20.7912 127.64 20.9836C127.631 21.2401 127.334 21.4785 126.749 21.6989C126.278 21.859 125.92 21.983 125.676 22.0708C125.124 22.2602 124.475 22.9197 123.73 24.0495C122.916 25.2892 122.492 26.39 122.459 27.352C122.44 27.8971 122.611 28.5131 122.972 29.1999C123.349 29.8873 123.802 30.2402 124.331 30.2587C125.469 30.2985 126.571 29.7751 127.636 28.6886C128.618 27.6795 129.126 26.702 129.159 25.7561C129.174 25.3232 128.938 24.9457 128.452 24.6237C127.37 23.8957 126.834 23.3874 126.844 23.0988C126.854 22.8262 126.95 22.6048 127.132 22.4346C127.315 22.2644 127.614 22.1866 128.031 22.2012C128.544 22.2191 129.103 22.5195 129.709 23.1025C130.439 23.8022 130.788 24.609 130.756 25.5229Z" fill="url(#paint0_linear)"/>
<defs>
<linearGradient id="paint0_linear" x1="12.6" y1="-6" x2="78.0627" y2="77.9567" gradientUnits="userSpaceOnUse">
<stop stop-color="#2EC86B"/>
<stop offset="1" stop-color="#B3D491"/>
</linearGradient>
</defs>
</svg>
